<svg width="12" height="12" viewBox="0 0 12 12" fill="none" xmlns="http://www.w3.org/2000/svg">
<path d="M1 5.28947C1 4.92436 1.00673 4.56795 1.01954 4.22383C1.06141 3.09955 1.08234 2.53741 1.56503 2.07669C2.04772 1.61596 2.65785 1.59123 3.8781 1.54177C4.54758 1.51464 5.26045 1.5 6 1.5C6.73955 1.5 7.4524 1.51464 8.1219 1.54177C9.34215 1.59123 9.9523 1.61596 10.4349 2.07669C10.9176 2.53741 10.9386 3.09955 10.9804 4.22383C10.9932 4.56795 11 4.92436 11 5.28947C11 5.65459 10.9932 6.01099 10.9804 6.35512C10.9386 7.47941 10.9176 8.04153 10.4349 8.50228C9.9523 8.96299 9.34215 8.98772 8.12185 9.03717C7.7549 9.05204 7.3749 9.06317 6.98465 9.07018C6.6141 9.07682 6.4288 9.08018 6.266 9.13892C6.1032 9.19765 5.96625 9.30892 5.69225 9.53146L4.60252 10.4167C4.53637 10.4704 4.45209 10.5 4.36495 10.5C4.16339 10.5 4 10.3452 4 10.1543V9.04195C3.95921 9.04039 3.91857 9.03883 3.87809 9.03717C2.65784 8.98772 2.04772 8.96299 1.56503 8.50224C1.08234 8.04153 1.06141 7.47941 1.01954 6.35512C1.00673 6.01099 1 5.65459 1 5.28947Z" stroke="#989898" stroke-linecap="round" stroke-linejoin="round"/>
<circle cx="10" cy="2.5" r="2" fill="#E60017"/>
</svg>
