<svg width="36" height="36" viewBox="0 0 36 36" fill="none" xmlns="http://www.w3.org/2000/svg">
<path d="M3 15.75C3 14.5938 3.02019 13.4652 3.05863 12.3755C3.18423 8.81525 3.24703 7.03513 4.6951 5.57617C6.14317 4.11721 7.97355 4.0389 11.6343 3.88229C13.6428 3.79635 15.7813 3.75 18 3.75C20.2186 3.75 22.3572 3.79635 24.3657 3.88229C28.0264 4.0389 29.8569 4.11721 31.3048 5.57617C32.7529 7.03513 32.8158 8.81525 32.9413 12.3755C32.9797 13.4652 33 14.5938 33 15.75C33 16.9062 32.9797 18.0348 32.9413 19.1245C32.8158 22.6848 32.7529 24.4649 31.3048 25.9239C29.8569 27.3828 28.0264 27.4611 24.3655 27.6177C23.2647 27.6648 22.1247 27.7001 20.9539 27.7223C19.8423 27.7433 19.2864 27.7539 18.798 27.9399C18.3096 28.1259 17.8987 28.4782 17.0767 29.1829L13.8075 31.9863C13.6091 32.1564 13.3563 32.25 13.0949 32.25C12.4902 32.25 12 31.7598 12 31.1551V27.6328C11.8776 27.6279 11.7557 27.623 11.6343 27.6177C7.97353 27.4611 6.14317 27.3828 4.6951 25.9237C3.24703 24.4648 3.18423 22.6848 3.05863 19.1245C3.02019 18.0348 3 16.9062 3 15.75Z" stroke="white" stroke-width="2" stroke-linecap="round" stroke-linejoin="round"/>
</svg>
