<svg width="36" height="36" viewBox="0 0 36 36" fill="none" xmlns="http://www.w3.org/2000/svg">
<path d="M4.5 31.5L12 24" stroke="white" stroke-width="2" stroke-linecap="round" stroke-linejoin="round"/>
<path d="M19.8877 28.3071C14.2727 27.0323 8.96766 21.7272 7.69279 16.1123C7.49098 15.2234 7.39008 14.779 7.68241 14.058C7.97475 13.3369 8.33185 13.1138 9.04606 12.6676C10.6606 11.659 12.4088 11.3383 14.2231 11.4988C16.7689 11.724 18.0418 11.8366 18.6768 11.5057C19.3119 11.1749 19.7433 10.4013 20.6064 8.85404L21.6996 6.89406C22.4197 5.60292 22.7799 4.95735 23.6269 4.65303C24.474 4.3487 24.9837 4.53299 26.0032 4.90157C28.3873 5.76354 30.2364 7.61258 31.0984 9.99674C31.467 11.0163 31.6513 11.526 31.347 12.3731C31.0426 13.2201 30.397 13.5802 29.1058 14.3004L27.1008 15.4188C25.5564 16.2801 24.7843 16.7109 24.4536 17.352C24.1228 17.9933 24.243 19.2384 24.4831 21.7289C24.6598 23.5602 24.3553 25.32 23.3332 26.9546C22.8865 27.6687 22.6632 28.0259 21.9424 28.3179C21.2215 28.61 20.7769 28.509 19.8877 28.3071Z" stroke="white" stroke-width="2" stroke-linecap="round" stroke-linejoin="round"/>
</svg>
