<svg width="12" height="12" viewBox="0 0 12 12" fill="none" xmlns="http://www.w3.org/2000/svg">
<path d="M1.5 10.5L4 8" stroke="#E60017" stroke-linecap="round" stroke-linejoin="round"/>
<path d="M6.62925 9.4357C4.75758 9.01075 2.98922 7.2424 2.56426 5.37075C2.49699 5.07445 2.46336 4.92633 2.5608 4.68599C2.65825 4.44565 2.77728 4.37128 3.01535 4.22255C3.55352 3.88633 4.13627 3.77944 4.74104 3.83293C5.58965 3.90799 6.01395 3.94552 6.2256 3.83524C6.4373 3.72496 6.5811 3.46709 6.8688 2.95135L7.2332 2.29802C7.47325 1.86764 7.5933 1.65245 7.87565 1.55101C8.158 1.44957 8.3279 1.511 8.66775 1.63386C9.46245 1.92118 10.0788 2.53753 10.3661 3.33225C10.489 3.67209 10.5504 3.84201 10.449 4.12435C10.3475 4.4067 10.1323 4.52673 9.70195 4.76679L9.0336 5.1396C8.5188 5.4267 8.26145 5.5703 8.1512 5.784C8.04095 5.99775 8.081 6.4128 8.16105 7.24295C8.21995 7.8534 8.11845 8.44 7.77775 8.98485C7.62885 9.2229 7.5544 9.34195 7.31415 9.4393C7.07385 9.53665 6.92565 9.503 6.62925 9.4357Z" stroke="#E60017" stroke-linecap="round" stroke-linejoin="round"/>
</svg>
