<svg width="36" height="36" viewBox="0 0 36 36" fill="none" xmlns="http://www.w3.org/2000/svg">
<path d="M16.5 12H19.5" stroke="white" stroke-width="2" stroke-linecap="round"/>
<path d="M3 16.5C3 11.5503 3 9.07537 4.5377 7.53769C6.07538 6 8.55026 6 13.5 6H15C19.9497 6 22.4246 6 23.9624 7.53769C25.5 9.07537 25.5 11.5503 25.5 16.5V19.5C25.5 24.4497 25.5 26.9245 23.9624 28.4623C22.4246 30 19.9497 30 15 30H13.5C8.55026 30 6.07538 30 4.5377 28.4623C3 26.9245 3 24.4497 3 19.5V16.5Z" stroke="white" stroke-width="2" stroke-linecap="round"/>
<path d="M25.5 13.3588L25.6889 13.2029C28.8625 10.5843 30.4494 9.27504 31.7247 9.90723C33 10.5394 33 12.6353 33 16.8272V19.1729C33 23.3648 33 25.4606 31.7247 26.0928C30.4494 26.7249 28.8625 25.4157 25.6889 22.797L25.5 22.6412" stroke="white" stroke-width="2" stroke-linecap="round"/>
</svg>
