<svg width="24" height="24" viewBox="0 0 24 24" fill="none" xmlns="http://www.w3.org/2000/svg">
<path d="M4 17.1818V9.32215C4 5.87045 4 4.14461 5.17157 3.0723C6.34315 2 8.22876 2 12 2C15.7712 2 17.6569 2 18.8284 3.0723C20 4.14461 20 5.87045 20 9.32215V17.1818C20 19.3724 20 20.4676 19.2272 20.8597C17.7305 21.6188 14.9232 19.0859 13.59 18.3233C12.8168 17.881 12.4302 17.6598 12 17.6598C11.5698 17.6598 11.1832 17.881 10.41 18.3233C9.0768 19.0859 6.26947 21.6188 4.77285 20.8597C4 20.4676 4 19.3724 4 17.1818Z" stroke="#00B8FF" stroke-width="1.5" stroke-linecap="round" stroke-linejoin="round"/>
</svg>
