<svg width="12" height="12" viewBox="0 0 12 12" fill="none" xmlns="http://www.w3.org/2000/svg">
<path d="M6.75 2.25C6.75 2.66421 6.4142 3 6 3C5.5858 3 5.25 2.66421 5.25 2.25C5.25 1.83579 6 1 6 1C6 1 6.75 1.83579 6.75 2.25Z" stroke="white" stroke-linejoin="round"/>
<path d="M6 3V4.5" stroke="white" stroke-linejoin="round"/>
<path d="M8.83335 7C9.61575 7 10.25 6.44035 10.25 5.75C10.25 5.05965 9.61575 4.5 8.83335 4.5H3.16667C2.38427 4.5 1.75 5.05965 1.75 5.75C1.75 6.44035 2.38427 7 3.16667 7C3.85204 7 4.45207 6.57055 4.58333 6C4.71459 6.57055 5.31465 7 6 7C6.68535 7 7.2854 6.57055 7.41665 6C7.54795 6.57055 8.14795 7 8.83335 7Z" stroke="white" stroke-linejoin="round"/>
<path d="M2.5 7L2.76045 8.2898C3.02266 9.5884 3.15377 10.2377 3.59804 10.6188C4.04231 11 4.66804 11 5.9195 11H6.0805C7.33195 11 7.9577 11 8.40195 10.6188C8.84625 10.2377 8.97735 9.5884 9.23955 8.2898L9.5 7" stroke="white" stroke-linejoin="round"/>
</svg>
