<svg width="40" height="40" viewBox="0 0 40 40" fill="none" xmlns="http://www.w3.org/2000/svg">
<path d="M14.1666 3.33301V17.4997M25.8333 3.33301V17.4997" stroke="#00B8FF" stroke-width="2" stroke-linecap="round"/>
<path d="M29.8603 3.35245H10.1397C8.62143 3.35245 6.6116 3.09008 5.5733 4.49305C5 5.26768 5 6.38858 5 8.63042C5 10.5417 5 11.4974 5.38657 12.3026C6.04678 13.6777 7.52295 14.2751 8.78818 14.9247L14.9688 18.0982C17.4377 19.3658 18.6722 19.9997 20 19.9997C21.3278 19.9997 22.5623 19.3658 25.0312 18.0982L31.2118 14.9247C32.477 14.2751 33.9532 13.6777 34.6135 12.3026C35 11.4974 35 10.5417 35 8.63042C35 6.38858 35 5.26768 34.4267 4.49305C33.3883 3.09008 31.3785 3.35245 29.8603 3.35245Z" stroke="#00B8FF" stroke-width="2" stroke-linecap="round"/>
<path d="M17.5487 22.7297C18.7464 22.0212 19.3452 21.667 20 21.667C20.6549 21.667 21.2537 22.0212 22.4514 22.7297L24.118 23.7157C25.3612 24.451 25.9827 24.8187 26.3247 25.4337C26.6667 26.0485 26.6667 26.7985 26.6667 28.2987V30.0353C26.6667 31.5355 26.6667 32.2855 26.3247 32.9003C25.9827 33.5153 25.3612 33.883 24.118 34.6183L22.4514 35.6043C21.2537 36.3128 20.6549 36.667 20 36.667C19.3452 36.667 18.7464 36.3128 17.5487 35.6043L15.8821 34.6183C14.6389 33.883 14.0173 33.5153 13.6754 32.9003C13.3334 32.2855 13.3334 31.5355 13.3334 30.0353V28.2987C13.3334 26.7985 13.3334 26.0485 13.6754 25.4337C14.0173 24.8187 14.6389 24.451 15.8821 23.7157L17.5487 22.7297Z" stroke="#00B8FF" stroke-width="2" stroke-linecap="round"/>
</svg>
