<svg width="32" height="32" viewBox="0 0 32 32" fill="none" xmlns="http://www.w3.org/2000/svg">
<path d="M10.6666 9.33333C10.6666 9.33333 13.5944 5.71181 15.2058 4.31852C15.4649 4.09453 15.7558 3.98869 16.0449 4.00096C16.3042 4.01196 16.562 4.11792 16.7944 4.31882C18.4054 5.71237 21.3333 9.33333 21.3333 9.33333M16.0449 5.33333V20" stroke="#86A7D2" stroke-width="2" stroke-linecap="round" stroke-linejoin="round"/>
<path d="M10.6667 14.667C8.79987 14.667 7.86644 14.667 7.1534 15.0303C6.5262 15.3499 6.01627 15.8598 5.69668 16.487C5.33337 17.2001 5.33337 18.1335 5.33337 20.0003V21.3337C5.33337 24.4763 5.33337 26.0477 6.30968 27.0241C7.286 28.0003 8.85735 28.0003 12 28.0003H20C23.1427 28.0003 24.714 28.0003 25.6904 27.0241C26.6667 26.0477 26.6667 24.4763 26.6667 21.3337V20.0003C26.6667 18.1335 26.6667 17.2001 26.3034 16.487C25.9838 15.8598 25.4739 15.3499 24.8467 15.0303C24.1336 14.667 23.2002 14.667 21.3334 14.667" stroke="#86A7D2" stroke-width="2" stroke-linecap="round" stroke-linejoin="round"/>
</svg>
