<svg width="24" height="24" viewBox="0 0 24 24" fill="none" xmlns="http://www.w3.org/2000/svg">
<path d="M18.9131 12.3606C18.3343 13.5086 16.2267 16.9995 12.0001 16.9995C7.77338 16.9995 5.66575 13.5086 5.08691 12.3606" stroke="#00B8FF" stroke-width="1.5" stroke-linecap="round" stroke-linejoin="round"/>
<path d="M21.5 7.50034C21.4085 5.6542 21.1348 4.50316 20.316 3.68435C19.4972 2.86555 18.3462 2.59184 16.5 2.50034M2.5 7.49951C2.59149 5.65337 2.8652 4.50233 3.68401 3.68352C4.50282 2.86472 5.65385 2.59101 7.5 2.49951M21.5 16.4998C21.4085 18.3459 21.1348 19.497 20.316 20.3158C19.4972 21.1346 18.3462 21.4083 16.5 21.4998M2.5 16.5006C2.59149 18.3468 2.8652 19.4978 3.68401 20.3166C4.50282 21.1354 5.65385 21.4091 7.5 21.5006" stroke="#00B8FF" stroke-width="1.5" stroke-linecap="round" stroke-linejoin="round"/>
</svg>
