<svg width="16" height="16" viewBox="0 0 16 16" fill="none" xmlns="http://www.w3.org/2000/svg">
<path d="M2.84529 12.5631C2.99521 13.6767 3.9175 14.549 5.03985 14.6006C5.98426 14.644 6.94361 14.6667 8.00008 14.6667C9.05655 14.6667 10.0159 14.644 10.9603 14.6006C12.0827 14.549 13.0049 13.6767 13.1549 12.5631C13.2527 11.8365 13.3334 11.0917 13.3334 10.3333C13.3334 9.57493 13.2527 8.8302 13.1549 8.10353C13.0049 6.99 12.0827 6.11766 10.9603 6.06606C10.0159 6.02265 9.05655 6 8.00008 6C6.94361 6 5.98426 6.02265 5.03985 6.06606C3.9175 6.11766 2.99521 6.99 2.84529 8.10353C2.74745 8.8302 2.66675 9.57493 2.66675 10.3333C2.66675 11.0917 2.74745 11.8365 2.84529 12.5631Z" stroke="black" stroke-width="1.5"/>
<path d="M5 6.00004V4.33337C5 2.67652 6.34315 1.33337 8 1.33337C8.95167 1.33337 9.79983 1.77649 10.3494 2.46765" stroke="black" stroke-width="1.5" stroke-linecap="round"/>
</svg>
