<svg width="30" height="30" viewBox="0 0 30 30" fill="none" xmlns="http://www.w3.org/2000/svg">
<g clip-path="url(#clip0_485_1745)">
<mask id="mask0_485_1745" style="mask-type:luminance" maskUnits="userSpaceOnUse" x="-6" y="-6" width="42" height="42">
<path d="M-6 -5.99997H36V36H-6V-5.99997Z" fill="white"/>
</mask>
<g mask="url(#mask0_485_1745)">
<path d="M30 15.0005C30 6.71624 23.2843 0.000507355 15 0.000507355C6.71574 0.000507355 0 6.71624 0 15.0005C0 22.0352 4.8429 27.9378 11.3764 29.5588V19.5843H8.28324V15.0005H11.3764V13.0254C11.3764 7.91984 13.6868 5.55344 18.6992 5.55344C19.6495 5.55344 21.2893 5.73974 21.9601 5.9261V10.0813C21.606 10.0441 20.9911 10.0254 20.2271 10.0254C17.7676 10.0254 16.8172 10.9571 16.8172 13.3794V15.0005H21.7168L20.8751 19.5843H16.8172V29.8906C24.2444 28.9936 30 22.6696 30 15.0005Z" fill="#0866FF"/>
<path d="M20.875 19.5838L21.7168 15H16.8172V13.3789C16.8172 10.9566 17.7675 10.0249 20.2271 10.0249C20.9911 10.0249 21.606 10.0435 21.96 10.0808V5.92562C21.2892 5.73926 19.6495 5.5529 18.6992 5.5529C13.6869 5.5529 11.3763 7.91936 11.3763 13.0249V15H8.2832V19.5838H11.3763V29.5583C12.5369 29.8462 13.7504 30 15 30C15.6152 30 16.2214 29.9621 16.8172 29.8901V19.5838H20.875Z" fill="white"/>
</g>
</g>
<defs>
<clipPath id="clip0_485_1745">
<rect width="30" height="30" fill="white"/>
</clipPath>
</defs>
</svg>
