<svg width="30" height="30" viewBox="0 0 30 30" fill="none" xmlns="http://www.w3.org/2000/svg">
<path d="M15.0001 12.2734V18.0826H23.0727C22.7182 19.9507 21.6545 21.5326 20.0591 22.5963L24.9271 26.3736C27.7634 23.7555 29.3998 19.91 29.3998 15.3418C29.3998 14.2782 29.3043 13.2553 29.127 12.2736L15.0001 12.2734Z" fill="#4285F4"/>
<path d="M6.59354 17.8555L5.49561 18.6959L1.60925 21.7232C4.07738 26.6186 9.13601 30.0005 14.9995 30.0005C19.0493 30.0005 22.4447 28.6641 24.9265 26.3733L20.0584 22.5959C18.7221 23.4959 17.0176 24.0414 14.9995 24.0414C11.0996 24.0414 7.7861 21.4096 6.59968 17.8641L6.59354 17.8555Z" fill="#34A853"/>
<path d="M1.60894 8.27734C0.586292 10.2955 0 12.5728 0 15C0 17.4272 0.586292 19.7046 1.60894 21.7227C1.60894 21.7362 6.59985 17.8499 6.59985 17.8499C6.29986 16.9499 6.12254 15.9954 6.12254 14.9999C6.12254 14.0043 6.29986 13.0498 6.59985 12.1498L1.60894 8.27734Z" fill="#FBBC05"/>
<path d="M14.9998 5.97275C17.2089 5.97275 19.1724 6.73637 20.7406 8.20912L25.0359 3.9137C22.4314 1.48646 19.0498 0 14.9998 0C9.13631 0 4.07738 3.36819 1.60925 8.27732L6.6 12.1501C7.78627 8.60456 11.0999 5.97275 14.9998 5.97275Z" fill="#EA4335"/>
</svg>
