<svg width="16" height="16" viewBox="0 0 16 16" fill="none" xmlns="http://www.w3.org/2000/svg">
<path d="M12.5 11.0656V13.0625C12.4991 13.3606 12.3803 13.6462 12.1695 13.857C11.9587 14.0678 11.6731 14.1866 11.375 14.1875H4.0625V10.8125H9.125V8L12.5 11.0656Z" fill="#00AC47"/>
<path d="M12.5 5.1875V11.0656L9.125 8V5.1875H12.5Z" fill="#31A950"/>
<path d="M4.0625 1.8125V5.1875H0.6875L4.0625 1.8125Z" fill="#EA4435"/>
<path d="M4.0625 5.1875H0.6875V11.375H4.0625V5.1875Z" fill="#4285F4"/>
<path d="M12.5 2.9375V5.1875H12.2188L9.125 8V5.1875H4.0625V1.8125H11.375C11.6731 1.81338 11.9587 1.93218 12.1695 2.14297C12.3803 2.35376 12.4991 2.6394 12.5 2.9375Z" fill="#FFBA00"/>
<path d="M4.0625 10.8125V14.1875H1.8125C1.5144 14.1866 1.22876 14.0678 1.01797 13.857C0.807183 13.6462 0.688376 13.3606 0.6875 13.0625V10.8125H4.0625Z" fill="#0066DA"/>
<path d="M15.3125 3.64593V12.3534C15.3125 12.4622 15.2809 12.5687 15.2216 12.6599C15.1623 12.7511 15.0777 12.8231 14.9782 12.8672C14.8788 12.9113 14.7686 12.9255 14.6612 12.9082C14.5538 12.8909 14.4537 12.8428 14.3731 12.7697L12.5 11.0653L9.125 7.99968L12.2188 5.18718L12.5 4.93406L14.3731 3.22968C14.4537 3.15658 14.5538 3.10845 14.6612 3.09114C14.7686 3.07383 14.8788 3.08808 14.9782 3.13216C15.0777 3.17624 15.1623 3.24825 15.2216 3.33946C15.2809 3.43066 15.3125 3.53713 15.3125 3.64593Z" fill="#00AC47"/>
<path d="M12.5 4.93457V11.0658L9.125 8.0002L12.2188 5.1877L12.5 4.93457Z" fill="#188038"/>
</svg>
