<svg width="24" height="24" viewBox="0 0 24 24" fill="none" xmlns="http://www.w3.org/2000/svg">
<path d="M14.8735 17.3222C11.3561 18.0287 9.83204 18.1212 6.92025 19.5408L4.71105 21.8229C4.47499 22.059 4.09226 22.059 3.8562 21.8229L2.57394 20.5406C2.33789 20.3045 2.33789 19.9217 2.57394 19.6857L4.78315 17.4035C6.20295 14.4921 6.47595 13.1332 7.17984 9.62818M18.9239 14.9813C15.8551 18.0503 11.2624 18.4331 8.66578 15.8362C6.06916 13.2394 6.45188 8.64639 9.52068 5.57742C12.5894 2.50845 17.182 2.1257 19.7788 4.72251C22.3754 7.31933 21.9926 11.9123 18.9239 14.9813Z" stroke="white" stroke-width="1.5" stroke-linecap="round" stroke-linejoin="round"/>
<path d="M16.0663 8.42334L16.0577 8.43189M12.4286 12.072L12.42 12.0806M16.0577 12.072L16.0491 12.0806M12.4372 8.43334L12.4286 8.4419" stroke="white" stroke-width="2" stroke-linecap="round" stroke-linejoin="round"/>
</svg>
