<svg width="370" height="60" viewBox="0 0 370 60" fill="none" xmlns="http://www.w3.org/2000/svg">
<rect width="370" height="60" rx="20" fill="#0048CD"/>
<path d="M86.3959 22.5H85.3542C82.4079 22.5 80.9348 22.5 80.0195 23.3787C79.1042 24.2574 79.1042 25.6716 79.1042 28.5V32.5C79.1042 35.3284 79.1042 36.7426 80.0195 37.6213C80.9348 38.5 82.4079 38.5 85.3542 38.5H89.5608C92.5071 38.5 93.9802 38.5 94.8955 37.6213C95.4885 37.052 95.6973 36.2579 95.7708 35" stroke="#00B8FF" stroke-width="1.5" stroke-linecap="round" stroke-linejoin="round"/>
<path d="M93.1667 25V21.8535C93.1667 21.6583 93.3316 21.5 93.535 21.5C93.6326 21.5 93.7263 21.5372 93.7954 21.6035L98.5275 26.1465C98.7634 26.3728 98.8958 26.6799 98.8958 27C98.8958 27.3201 98.7634 27.6272 98.5275 27.8535L93.7954 32.3964C93.7263 32.4628 93.6326 32.5 93.535 32.5C93.3316 32.5 93.1667 32.3417 93.1667 32.1464V29H90.1157C85.875 29 84.3125 32.5 84.3125 32.5V30C84.3125 27.2386 86.6443 25 89.5208 25H93.1667Z" stroke="#00B8FF" stroke-width="1.5" stroke-linecap="round" stroke-linejoin="round"/>
<path d="M114.517 23.9091V37H112.542V23.9091H114.517ZM119.151 31.1705V37H117.24V27.1818H119.074V28.7798H119.196C119.422 28.2599 119.775 27.8423 120.257 27.527C120.743 27.2116 121.354 27.054 122.091 27.054C122.76 27.054 123.346 27.1946 123.849 27.4759C124.352 27.7528 124.742 28.1662 125.019 28.7159C125.296 29.2656 125.434 29.9453 125.434 30.755V37H123.523V30.9851C123.523 30.2734 123.338 29.7173 122.967 29.3168C122.596 28.9119 122.087 28.7095 121.439 28.7095C120.996 28.7095 120.602 28.8054 120.257 28.9972C119.916 29.1889 119.645 29.4702 119.445 29.8409C119.249 30.2074 119.151 30.6506 119.151 31.1705ZM127.998 37V27.1818H129.909V37H127.998ZM128.963 25.6669C128.631 25.6669 128.345 25.5561 128.106 25.3345C127.872 25.1087 127.755 24.8402 127.755 24.5291C127.755 24.2138 127.872 23.9453 128.106 23.7237C128.345 23.4979 128.631 23.3849 128.963 23.3849C129.295 23.3849 129.579 23.4979 129.813 23.7237C130.052 23.9453 130.171 24.2138 130.171 24.5291C130.171 24.8402 130.052 25.1087 129.813 25.3345C129.579 25.5561 129.295 25.6669 128.963 25.6669ZM140.879 27.1818L137.319 37H135.273L131.707 27.1818H133.759L136.245 34.7372H136.347L138.827 27.1818H140.879ZM147.259 27.1818V28.7159H141.896V27.1818H147.259ZM143.334 24.8295H145.245V34.1172C145.245 34.4879 145.3 34.767 145.411 34.9545C145.522 35.1378 145.665 35.2635 145.839 35.3317C146.018 35.3956 146.212 35.4276 146.421 35.4276C146.575 35.4276 146.709 35.4169 146.824 35.3956C146.939 35.3743 147.028 35.3572 147.092 35.3445L147.438 36.9233C147.327 36.9659 147.169 37.0085 146.964 37.0511C146.76 37.098 146.504 37.1236 146.197 37.1278C145.695 37.1364 145.226 37.0469 144.791 36.8594C144.357 36.6719 144.005 36.3821 143.737 35.9901C143.468 35.598 143.334 35.1058 143.334 34.5135V24.8295ZM153.499 37.1982C152.531 37.1982 151.698 36.9915 150.999 36.5781C150.305 36.1605 149.768 35.5746 149.389 34.8203C149.014 34.0618 148.826 33.1733 148.826 32.1548C148.826 31.1491 149.014 30.2628 149.389 29.4957C149.768 28.7287 150.296 28.13 150.974 27.6996C151.656 27.2692 152.453 27.054 153.365 27.054C153.919 27.054 154.455 27.1456 154.975 27.3288C155.495 27.5121 155.962 27.7997 156.375 28.1918C156.789 28.5838 157.115 29.093 157.353 29.7195C157.592 30.3416 157.711 31.098 157.711 31.9886V32.6662H149.906V31.2344H155.838C155.838 30.7315 155.736 30.2862 155.531 29.8984C155.327 29.5064 155.039 29.1974 154.669 28.9716C154.302 28.7457 153.872 28.6328 153.377 28.6328C152.84 28.6328 152.372 28.7649 151.971 29.0291C151.575 29.2891 151.268 29.63 151.051 30.0518C150.838 30.4695 150.731 30.9233 150.731 31.4134V32.532C150.731 33.1882 150.846 33.7464 151.076 34.2067C151.311 34.6669 151.637 35.0185 152.054 35.2614C152.472 35.5 152.96 35.6193 153.518 35.6193C153.88 35.6193 154.21 35.5682 154.509 35.4659C154.807 35.3594 155.065 35.2017 155.282 34.9929C155.499 34.7841 155.666 34.5263 155.781 34.2195L157.59 34.5455C157.445 35.0781 157.185 35.5447 156.81 35.9453C156.439 36.3416 155.972 36.6506 155.41 36.8722C154.852 37.0895 154.215 37.1982 153.499 37.1982ZM167.453 37.2173C166.83 37.2173 166.268 37.1023 165.765 36.8722C165.262 36.6378 164.864 36.299 164.57 35.8558C164.28 35.4126 164.135 34.8693 164.135 34.2259C164.135 33.6719 164.242 33.2159 164.455 32.858C164.668 32.5 164.955 32.2166 165.318 32.0078C165.68 31.799 166.085 31.6413 166.532 31.5348C166.98 31.4283 167.436 31.3473 167.9 31.2919C168.488 31.2237 168.965 31.1683 169.332 31.1257C169.698 31.0788 169.965 31.0043 170.131 30.902C170.297 30.7997 170.38 30.6335 170.38 30.4034V30.3587C170.38 29.8004 170.222 29.3679 169.907 29.0611C169.596 28.7543 169.132 28.6009 168.514 28.6009C167.87 28.6009 167.363 28.7436 166.992 29.0291C166.626 29.3104 166.372 29.6236 166.232 29.9688L164.436 29.5597C164.649 28.9631 164.96 28.4815 165.369 28.1151C165.782 27.7443 166.257 27.4759 166.794 27.3097C167.331 27.1392 167.896 27.054 168.488 27.054C168.88 27.054 169.296 27.1009 169.735 27.1946C170.178 27.2841 170.591 27.4503 170.975 27.6932C171.362 27.9361 171.68 28.2834 171.927 28.7351C172.174 29.1825 172.298 29.7642 172.298 30.4801V37H170.431V35.6577H170.355C170.231 35.9048 170.046 36.1477 169.798 36.3864C169.551 36.625 169.234 36.8232 168.846 36.9808C168.458 37.1385 167.994 37.2173 167.453 37.2173ZM167.868 35.6832C168.396 35.6832 168.848 35.5788 169.223 35.37C169.602 35.1612 169.89 34.8885 170.086 34.5518C170.286 34.2109 170.387 33.8466 170.387 33.4588V32.1932C170.318 32.2614 170.186 32.3253 169.99 32.3849C169.798 32.4403 169.579 32.4893 169.332 32.532C169.085 32.5703 168.844 32.6065 168.61 32.6406C168.375 32.6705 168.179 32.696 168.021 32.7173C167.651 32.7642 167.312 32.843 167.005 32.9538C166.703 33.0646 166.46 33.2244 166.276 33.4332C166.097 33.6378 166.008 33.9105 166.008 34.2514C166.008 34.7244 166.183 35.0824 166.532 35.3253C166.882 35.5639 167.327 35.6832 167.868 35.6832ZM184.28 27.1818V28.7159H178.731V27.1818H184.28ZM180.253 37V26.044C180.253 25.4304 180.387 24.9212 180.655 24.5163C180.924 24.1072 181.28 23.8026 181.723 23.6023C182.166 23.3977 182.648 23.2955 183.167 23.2955C183.551 23.2955 183.879 23.3274 184.152 23.3913C184.425 23.451 184.627 23.5064 184.759 23.5575L184.312 25.1044C184.222 25.0788 184.107 25.049 183.966 25.0149C183.826 24.9766 183.655 24.9574 183.455 24.9574C182.991 24.9574 182.658 25.0724 182.458 25.3026C182.262 25.5327 182.164 25.8651 182.164 26.2997V37H180.253ZM186.252 37V27.1818H188.099V28.7415H188.201C188.38 28.2131 188.695 27.7976 189.147 27.495C189.603 27.1882 190.119 27.0348 190.694 27.0348C190.813 27.0348 190.954 27.0391 191.116 27.0476C191.282 27.0561 191.412 27.0668 191.506 27.0795V28.9077C191.429 28.8864 191.293 28.8629 191.097 28.8374C190.901 28.8075 190.705 28.7926 190.509 28.7926C190.057 28.7926 189.654 28.8885 189.301 29.0803C188.951 29.2678 188.674 29.5298 188.47 29.8665C188.265 30.1989 188.163 30.5781 188.163 31.0043V37H186.252ZM193.16 37V27.1818H195.071V37H193.16ZM194.125 25.6669C193.793 25.6669 193.507 25.5561 193.268 25.3345C193.034 25.1087 192.917 24.8402 192.917 24.5291C192.917 24.2138 193.034 23.9453 193.268 23.7237C193.507 23.4979 193.793 23.3849 194.125 23.3849C194.457 23.3849 194.741 23.4979 194.975 23.7237C195.214 23.9453 195.333 24.2138 195.333 24.5291C195.333 24.8402 195.214 25.1087 194.975 25.3345C194.741 25.5561 194.457 25.6669 194.125 25.6669ZM201.874 37.1982C200.906 37.1982 200.073 36.9915 199.374 36.5781C198.68 36.1605 198.143 35.5746 197.764 34.8203C197.389 34.0618 197.201 33.1733 197.201 32.1548C197.201 31.1491 197.389 30.2628 197.764 29.4957C198.143 28.7287 198.671 28.13 199.349 27.6996C200.031 27.2692 200.828 27.054 201.74 27.054C202.294 27.054 202.83 27.1456 203.35 27.3288C203.87 27.5121 204.337 27.7997 204.75 28.1918C205.164 28.5838 205.49 29.093 205.728 29.7195C205.967 30.3416 206.086 31.098 206.086 31.9886V32.6662H198.281V31.2344H204.213C204.213 30.7315 204.111 30.2862 203.906 29.8984C203.702 29.5064 203.414 29.1974 203.044 28.9716C202.677 28.7457 202.247 28.6328 201.752 28.6328C201.215 28.6328 200.747 28.7649 200.346 29.0291C199.95 29.2891 199.643 29.63 199.426 30.0518C199.213 30.4695 199.106 30.9233 199.106 31.4134V32.532C199.106 33.1882 199.221 33.7464 199.451 34.2067C199.686 34.6669 200.012 35.0185 200.429 35.2614C200.847 35.5 201.335 35.6193 201.893 35.6193C202.255 35.6193 202.585 35.5682 202.884 35.4659C203.182 35.3594 203.44 35.2017 203.657 34.9929C203.874 34.7841 204.041 34.5263 204.156 34.2195L205.965 34.5455C205.82 35.0781 205.56 35.5447 205.185 35.9453C204.814 36.3416 204.347 36.6506 203.785 36.8722C203.227 37.0895 202.59 37.1982 201.874 37.1982ZM210.118 31.1705V37H208.207V27.1818H210.041V28.7798H210.163C210.388 28.2599 210.742 27.8423 211.224 27.527C211.71 27.2116 212.321 27.054 213.058 27.054C213.727 27.054 214.313 27.1946 214.816 27.4759C215.319 27.7528 215.709 28.1662 215.986 28.7159C216.263 29.2656 216.401 29.9453 216.401 30.755V37H214.49V30.9851C214.49 30.2734 214.305 29.7173 213.934 29.3168C213.563 28.9119 213.054 28.7095 212.406 28.7095C211.963 28.7095 211.569 28.8054 211.224 28.9972C210.883 29.1889 210.612 29.4702 210.412 29.8409C210.216 30.2074 210.118 30.6506 210.118 31.1705ZM222.64 37.1918C221.847 37.1918 221.14 36.9893 220.518 36.5845C219.9 36.1754 219.414 35.5937 219.06 34.8395C218.711 34.081 218.536 33.1712 218.536 32.1101C218.536 31.049 218.713 30.1413 219.067 29.3871C219.425 28.6328 219.915 28.0554 220.537 27.6548C221.159 27.2543 221.864 27.054 222.653 27.054C223.262 27.054 223.752 27.1562 224.123 27.3608C224.498 27.5611 224.788 27.7955 224.992 28.0639C225.201 28.3324 225.363 28.5689 225.478 28.7734H225.593V23.9091H227.504V37H225.638V35.4723H225.478C225.363 35.6811 225.197 35.9197 224.979 36.1882C224.766 36.4567 224.472 36.6911 224.097 36.8913C223.722 37.0916 223.237 37.1918 222.64 37.1918ZM223.062 35.5618C223.612 35.5618 224.076 35.4169 224.455 35.1271C224.839 34.8331 225.129 34.4261 225.325 33.9062C225.525 33.3864 225.625 32.7812 225.625 32.0909C225.625 31.4091 225.527 30.8125 225.331 30.3011C225.135 29.7898 224.847 29.3913 224.468 29.1058C224.089 28.8203 223.62 28.6776 223.062 28.6776C222.487 28.6776 222.007 28.8267 221.624 29.125C221.24 29.4233 220.95 29.8303 220.754 30.3459C220.563 30.8615 220.467 31.4432 220.467 32.0909C220.467 32.7472 220.565 33.3374 220.761 33.8615C220.957 34.3857 221.246 34.8011 221.63 35.108C222.018 35.4105 222.495 35.5618 223.062 35.5618ZM239.131 37.1982C238.211 37.1982 237.408 36.9872 236.722 36.5653C236.036 36.1435 235.503 35.5533 235.124 34.7947C234.744 34.0362 234.555 33.1499 234.555 32.1357C234.555 31.1172 234.744 30.2266 235.124 29.4638C235.503 28.701 236.036 28.1087 236.722 27.6868C237.408 27.2649 238.211 27.054 239.131 27.054C240.052 27.054 240.855 27.2649 241.541 27.6868C242.227 28.1087 242.76 28.701 243.139 29.4638C243.518 30.2266 243.708 31.1172 243.708 32.1357C243.708 33.1499 243.518 34.0362 243.139 34.7947C242.76 35.5533 242.227 36.1435 241.541 36.5653C240.855 36.9872 240.052 37.1982 239.131 37.1982ZM239.138 35.5938C239.734 35.5938 240.229 35.4361 240.621 35.1207C241.013 34.8054 241.303 34.3857 241.49 33.8615C241.682 33.3374 241.778 32.7599 241.778 32.1293C241.778 31.5028 241.682 30.9276 241.49 30.4034C241.303 29.875 241.013 29.451 240.621 29.1314C240.229 28.8118 239.734 28.652 239.138 28.652C238.537 28.652 238.038 28.8118 237.642 29.1314C237.25 29.451 236.958 29.875 236.766 30.4034C236.579 30.9276 236.485 31.5028 236.485 32.1293C236.485 32.7599 236.579 33.3374 236.766 33.8615C236.958 34.3857 237.25 34.8054 237.642 35.1207C238.038 35.4361 238.537 35.5938 239.138 35.5938ZM245.841 37V27.1818H247.689V28.7415H247.791C247.97 28.2131 248.285 27.7976 248.737 27.495C249.193 27.1882 249.709 27.0348 250.284 27.0348C250.403 27.0348 250.544 27.0391 250.706 27.0476C250.872 27.0561 251.002 27.0668 251.096 27.0795V28.9077C251.019 28.8864 250.883 28.8629 250.687 28.8374C250.491 28.8075 250.295 28.7926 250.099 28.7926C249.647 28.7926 249.244 28.8885 248.89 29.0803C248.541 29.2678 248.264 29.5298 248.059 29.8665C247.855 30.1989 247.753 30.5781 247.753 31.0043V37H245.841ZM261.649 37.1982C260.699 37.1982 259.881 36.983 259.194 36.5526C258.513 36.1179 257.988 35.5192 257.622 34.7564C257.256 33.9936 257.072 33.12 257.072 32.1357C257.072 31.1385 257.26 30.2585 257.635 29.4957C258.01 28.7287 258.538 28.13 259.22 27.6996C259.902 27.2692 260.705 27.054 261.63 27.054C262.376 27.054 263.04 27.1925 263.624 27.4695C264.208 27.7422 264.679 28.1257 265.037 28.62C265.399 29.1143 265.614 29.6918 265.682 30.3523H263.822C263.72 29.892 263.486 29.4957 263.119 29.1634C262.757 28.831 262.271 28.6648 261.662 28.6648C261.129 28.6648 260.662 28.8054 260.262 29.0866C259.866 29.3636 259.557 29.7599 259.335 30.2756C259.113 30.7869 259.003 31.392 259.003 32.0909C259.003 32.8068 259.111 33.4247 259.329 33.9446C259.546 34.4645 259.853 34.8672 260.249 35.1527C260.65 35.4382 261.121 35.581 261.662 35.581C262.024 35.581 262.352 35.5149 262.646 35.3828C262.944 35.2464 263.194 35.0526 263.394 34.8011C263.599 34.5497 263.741 34.2472 263.822 33.8935H265.682C265.614 34.5284 265.407 35.0952 265.062 35.5938C264.717 36.0923 264.255 36.4844 263.675 36.7699C263.1 37.0554 262.425 37.1982 261.649 37.1982ZM269.637 23.9091V37H267.726V23.9091H269.637ZM278.428 32.9283V27.1818H280.346V37H278.466V35.2997H278.364C278.138 35.8239 277.776 36.2607 277.278 36.6101C276.783 36.9553 276.167 37.1278 275.43 37.1278C274.8 37.1278 274.241 36.9893 273.756 36.7124C273.274 36.4311 272.895 36.0156 272.618 35.4659C272.345 34.9162 272.209 34.2365 272.209 33.4268V27.1818H274.12V33.1967C274.12 33.8658 274.305 34.3984 274.676 34.7947C275.047 35.1911 275.528 35.3892 276.121 35.3892C276.479 35.3892 276.834 35.2997 277.188 35.1207C277.546 34.9418 277.842 34.6712 278.077 34.3089C278.315 33.9467 278.432 33.4865 278.428 32.9283ZM283.067 37V23.9091H284.978V28.7734H285.093C285.204 28.5689 285.364 28.3324 285.573 28.0639C285.782 27.7955 286.071 27.5611 286.442 27.3608C286.813 27.1562 287.303 27.054 287.912 27.054C288.705 27.054 289.412 27.2543 290.034 27.6548C290.657 28.0554 291.145 28.6328 291.498 29.3871C291.856 30.1413 292.035 31.049 292.035 32.1101C292.035 33.1712 291.858 34.081 291.505 34.8395C291.151 35.5937 290.665 36.1754 290.047 36.5845C289.429 36.9893 288.724 37.1918 287.931 37.1918C287.335 37.1918 286.847 37.0916 286.468 36.8913C286.093 36.6911 285.799 36.4567 285.586 36.1882C285.373 35.9197 285.208 35.6811 285.093 35.4723H284.934V37H283.067ZM284.94 32.0909C284.94 32.7812 285.04 33.3864 285.24 33.9062C285.441 34.4261 285.73 34.8331 286.11 35.1271C286.489 35.4169 286.953 35.5618 287.503 35.5618C288.074 35.5618 288.551 35.4105 288.935 35.108C289.319 34.8011 289.608 34.3857 289.804 33.8615C290.005 33.3374 290.105 32.7472 290.105 32.0909C290.105 31.4432 290.007 30.8615 289.811 30.3459C289.619 29.8303 289.329 29.4233 288.941 29.125C288.558 28.8267 288.078 28.6776 287.503 28.6776C286.949 28.6776 286.48 28.8203 286.097 29.1058C285.718 29.3913 285.43 29.7898 285.234 30.3011C285.038 30.8125 284.94 31.4091 284.94 32.0909Z" fill="#00B8FF"/>
</svg>
