<svg width="32" height="32" viewBox="0 0 32 32" fill="none" xmlns="http://www.w3.org/2000/svg">
<path d="M10.6667 9.33333C10.6667 9.33333 13.5945 5.71181 15.2059 4.31852C15.465 4.09453 15.7559 3.98869 16.045 4.00096C16.3043 4.01196 16.5621 4.11792 16.7945 4.31882C18.4055 5.71237 21.3334 9.33333 21.3334 9.33333M16.045 5.33333V20" stroke="#86A7D2" stroke-width="2" stroke-linecap="round" stroke-linejoin="round"/>
<path d="M10.6666 14.6665C8.79975 14.6665 7.86632 14.6665 7.15328 15.0298C6.52608 15.3494 6.01615 15.8593 5.69656 16.4865C5.33325 17.1996 5.33325 18.133 5.33325 19.9998V21.3332C5.33325 24.4758 5.33325 26.0472 6.30956 27.0236C7.28588 27.9998 8.85723 27.9998 11.9999 27.9998H19.9999C23.1426 27.9998 24.7139 27.9998 25.6903 27.0236C26.6666 26.0472 26.6666 24.4758 26.6666 21.3332V19.9998C26.6666 18.133 26.6666 17.1996 26.3033 16.4865C25.9837 15.8593 25.4738 15.3494 24.8466 15.0298C24.1335 14.6665 23.2001 14.6665 21.3333 14.6665" stroke="#86A7D2" stroke-width="2" stroke-linecap="round" stroke-linejoin="round"/>
</svg>
