<svg width="32" height="32" viewBox="0 0 32 32" fill="none" xmlns="http://www.w3.org/2000/svg">
<path d="M18.1706 24.8905C22.3536 24.6125 25.6856 21.2332 25.9598 16.9909C26.0134 16.1607 26.0134 15.3009 25.9598 14.4707C25.6856 10.2284 22.3536 6.84913 18.1706 6.57107C16.7435 6.47621 15.2536 6.47641 13.8294 6.57107C9.64639 6.84913 6.31441 10.2284 6.04024 14.4707C5.98659 15.3009 5.98659 16.1607 6.04024 16.9909C6.1401 18.536 6.82343 19.9666 7.62791 21.1746C8.09501 22.0203 7.78674 23.0758 7.30021 23.9978C6.94941 24.6626 6.77401 24.995 6.91484 25.2351C7.05568 25.4752 7.37026 25.4829 7.99943 25.4982C9.24367 25.5285 10.0827 25.1757 10.7487 24.6846C11.1264 24.4061 11.3153 24.2668 11.4454 24.2508C11.5756 24.2348 11.8318 24.3403 12.344 24.5513C12.8044 24.7409 13.339 24.8579 13.8294 24.8905C15.2536 24.9852 16.7435 24.9854 18.1706 24.8905Z" stroke="#B7B7B7" stroke-width="2.5" stroke-linejoin="round"/>
<path d="M11.5 19L13.3419 13.4743C13.4363 13.1911 13.7014 13 14 13C14.2986 13 14.5637 13.1911 14.6581 13.4743L16.5 19M19.5 13V19M12.5 17H15.5" stroke="#B7B7B7" stroke-width="1.5" stroke-linejoin="round"/>
<path d="M27.748 2.72559C27.9037 2.63483 28.0963 2.63485 28.252 2.72559L30.252 3.89258C30.4055 3.98217 30.4999 4.14646 30.5 4.32422V6.67578C30.4999 6.85353 30.4055 7.01784 30.252 7.10742L28.252 8.27441C28.0963 8.36517 27.9037 8.36515 27.748 8.27441L25.748 7.10742C25.5945 7.01783 25.5001 6.85354 25.5 6.67578V4.32422C25.5001 4.14647 25.5945 3.98217 25.748 3.89258L27.748 2.72559Z" stroke="#B7B7B7"/>
<path d="M26 3.5L24.8453 1.5" stroke="#B7B7B7" stroke-linecap="round"/>
<path d="M30 3.5L31.1547 1.5" stroke="#B7B7B7" stroke-linecap="round"/>
</svg>
