<svg width="32" height="32" viewBox="0 0 32 32" fill="none" xmlns="http://www.w3.org/2000/svg">
<path d="M14.001 3.30762C15.238 2.59394 16.762 2.59395 17.999 3.30762L25.999 7.92285C27.2372 8.6372 28 9.95822 28 11.3877V20.6123C27.9999 22.0417 27.2372 23.3628 25.999 24.0771L17.999 28.6924C16.762 29.4061 15.238 29.406 14.001 28.6924L6.00098 24.0771C4.76279 23.3628 4.00004 22.0418 4 20.6123V11.3877C4.00005 9.95825 4.76283 8.6372 6.00098 7.92285L14.001 3.30762Z" stroke="#C87E56" stroke-width="2"/>
<path d="M15.2715 6.97656C15.7245 6.72489 16.2755 6.72492 16.7285 6.97656L23.7285 10.8652C24.2047 11.1298 24.5 11.632 24.5 12.1768V19.8232C24.5 20.368 24.2047 20.8702 23.7285 21.1348L16.7285 25.0234C16.2755 25.2751 15.7245 25.2751 15.2715 25.0234L8.27148 21.1348C7.7953 20.8702 7.50001 20.368 7.5 19.8232V12.1768C7.50002 11.632 7.7953 11.1298 8.27148 10.8652L15.2715 6.97656Z" stroke="#C87E56"/>
<path d="M16.1083 20.0945C15.5775 20.0945 15.1063 20.0011 14.6947 19.8145C14.2854 19.6255 13.9627 19.3658 13.7265 19.0352C13.4926 18.7045 13.3734 18.3245 13.3689 17.8949H15.1906C15.1974 18.1333 15.2896 18.3233 15.4673 18.465C15.6472 18.6067 15.8609 18.6776 16.1083 18.6776C16.2994 18.6776 16.4681 18.6371 16.6143 18.5561C16.7605 18.4729 16.8752 18.3559 16.9584 18.2053C17.0416 18.0546 17.0821 17.8791 17.0798 17.679C17.0821 17.4766 17.0416 17.3011 16.9584 17.1527C16.8752 17.002 16.7605 16.8862 16.6143 16.8052C16.4681 16.722 16.2994 16.6804 16.1083 16.6804C15.9103 16.6804 15.727 16.7288 15.5584 16.8255C15.3919 16.9199 15.2694 17.0515 15.1906 17.2202L13.5443 16.8963L13.8142 13.0909H18.4563V14.5888H15.3526L15.2176 16.1136H15.2581C15.3661 15.9045 15.5527 15.7313 15.8181 15.5941C16.0835 15.4547 16.3916 15.3849 16.7425 15.3849C17.1541 15.3849 17.5207 15.4805 17.8423 15.6717C18.1661 15.8629 18.4214 16.1271 18.6081 16.4645C18.797 16.7996 18.8903 17.1864 18.8881 17.625C18.8903 18.1063 18.7756 18.5336 18.544 18.907C18.3146 19.2781 17.9918 19.5693 17.5758 19.7807C17.1597 19.9899 16.6705 20.0945 16.1083 20.0945Z" fill="#C87E56"/>
</svg>
