<svg width="32" height="32" viewBox="0 0 32 32" fill="none" xmlns="http://www.w3.org/2000/svg">
<path d="M20.6667 4.33334V9.00001M11.3334 4.33334V9.00001" stroke="#B7B7B7" stroke-width="2.5" stroke-linecap="round" stroke-linejoin="round"/>
<path d="M17.1667 6.66666H14.8333C10.4336 6.66666 8.23367 6.66666 6.86683 8.03349C5.5 9.40033 5.5 11.6002 5.5 16V18.3333C5.5 22.7331 5.5 24.933 6.86683 26.2998C8.23367 27.6667 10.4336 27.6667 14.8333 27.6667H17.1667C21.5664 27.6667 23.7664 27.6667 25.1331 26.2998C26.5 24.933 26.5 22.7331 26.5 18.3333V16C26.5 11.6002 26.5 9.40033 25.1331 8.03349C23.7664 6.66666 21.5664 6.66666 17.1667 6.66666Z" stroke="#B7B7B7" stroke-width="2.5" stroke-linecap="round" stroke-linejoin="round"/>
<path d="M5.5 13.6667H26.5" stroke="#B7B7B7" stroke-width="2.5" stroke-linecap="round" stroke-linejoin="round"/>
<path d="M10 18H22" stroke="#B7B7B7" stroke-width="2.5" stroke-linecap="round" stroke-linejoin="round"/>
</svg>
