<svg width="32" height="32" viewBox="0 0 32 32" fill="none" xmlns="http://www.w3.org/2000/svg">
<path fill-rule="evenodd" clip-rule="evenodd" d="M18.0072 3.92855C18.277 4.59755 18.3051 5.22876 18.083 5.79219C17.8365 6.41781 17.3129 6.88137 16.6648 7.19165C15.7856 7.61251 15.0234 7.52066 14.4009 7.36155C14.2478 7.32243 14.1005 7.2787 13.9649 7.2379C13.8265 7.19624 13.7023 7.15864 13.5816 7.12662C13.337 7.06174 13.1517 7.03334 12.9936 7.04767C12.6881 7.07539 12.2727 7.21386 11.8491 7.4C11.4353 7.58187 11.0569 7.78981 10.8409 7.92206C10.7866 7.95531 10.7282 7.97621 10.6695 7.98623C10.6643 7.98712 10.6591 7.98749 10.654 7.9882C10.6444 7.98951 10.6349 7.99094 10.6254 7.99166C10.5867 7.99459 10.5484 7.99258 10.5113 7.98609C10.5075 7.98543 10.5036 7.98504 10.4998 7.98429C10.4921 7.98273 10.4846 7.98038 10.477 7.97843C10.4705 7.97676 10.4638 7.97553 10.4574 7.97358C10.4505 7.97148 10.4439 7.96892 10.4371 7.9665C10.4311 7.96432 10.425 7.96228 10.419 7.95984C10.4119 7.9569 10.4049 7.95355 10.398 7.95023C10.3926 7.94771 10.3873 7.94525 10.3821 7.9425C10.3624 7.93211 10.3438 7.91998 10.326 7.90659C10.3209 7.90266 10.3155 7.89886 10.3105 7.89468C10.3085 7.89299 10.3065 7.89125 10.3045 7.88952C10.2963 7.88236 10.2882 7.87499 10.2805 7.86712C10.2642 7.85045 10.2499 7.83191 10.2365 7.81226C10.2342 7.80885 10.2313 7.80585 10.2291 7.80235L10.2282 7.80057C10.225 7.79546 10.2224 7.79 10.2194 7.7847C10.2153 7.77738 10.211 7.77024 10.2074 7.76276L10.2065 7.76172L9.98823 7.30584L9.98784 7.3042C9.98434 7.29679 9.98153 7.28905 9.97846 7.28133C9.97617 7.27559 9.97347 7.27005 9.97146 7.26425L9.97075 7.26277C9.96938 7.25874 9.96882 7.25446 9.96759 7.25042C9.96065 7.22773 9.95514 7.20495 9.9524 7.18181C9.95111 7.17098 9.95059 7.16013 9.95019 7.14931C9.95009 7.14657 9.94983 7.14385 9.94979 7.1411C9.94968 7.13468 9.95019 7.12826 9.95038 7.12185C9.95109 7.09953 9.95312 7.07733 9.95741 7.05537C9.95852 7.04969 9.96014 7.0441 9.96149 7.03847C9.9633 7.03087 9.96485 7.02323 9.96708 7.01572C9.96891 7.00957 9.97114 7.00352 9.97324 6.99745C9.97527 6.9916 9.9771 6.9857 9.97937 6.97992L9.98168 6.97408C9.9838 6.96892 9.98662 6.96401 9.98895 6.95892C9.9922 6.95178 9.99505 6.94447 9.99869 6.93748C10.0005 6.93406 10.0026 6.93079 10.0045 6.92741C10.0227 6.89444 10.0451 6.86333 10.0717 6.83503C10.0782 6.82806 10.0853 6.82156 10.0923 6.81495C10.0961 6.81138 10.0997 6.80755 10.1036 6.80408C10.1482 6.76465 10.2013 6.73258 10.2612 6.71112C10.4997 6.62581 10.8989 6.46148 11.3001 6.25316C11.7108 6.03995 12.0791 5.80325 12.2923 5.58267C12.4026 5.46854 12.4967 5.30638 12.5995 5.07515C12.6503 4.96105 12.6989 4.84075 12.7532 4.70679C12.8065 4.57556 12.8648 4.43343 12.9303 4.28968C13.1968 3.70498 13.6032 3.05368 14.4824 2.63282C15.1305 2.32254 15.82 2.20542 16.4619 2.40572C17.0399 2.58608 17.5139 3.00369 17.8658 3.63324C17.9164 3.72612 17.9678 3.8359 18.0072 3.92855Z" fill="#00B8FF"/>
<path d="M9.78931 29.5C10.042 28.3423 10.6992 26.3047 11.3058 24.6376C11.9123 22.9705 12.9462 20.4262 13.4517 19.5L15.7263 20.1946C15.9791 21.2365 16.2342 23.4515 16.7421 24.8473C17.1932 26.0872 18.7736 28.1042 19.7893 29.5" stroke="#00B8FF" stroke-width="2.5" stroke-linecap="round"/>
<path d="M14.8525 13.1131L13.9399 18.0138C13.8524 18.4836 14.1095 18.9496 14.5535 19.1262L14.7251 19.1944C15.1712 19.3717 15.6803 19.2071 15.9381 18.8022L18.3002 15.0918C18.5774 14.6564 18.4776 14.0815 18.0699 13.7649L16.4489 12.5063C15.8575 12.047 14.9896 12.3769 14.8525 13.1131Z" fill="#00B8FF" stroke="#00B8FF" stroke-width="2.5" stroke-linecap="round"/>
<circle cx="2.5" cy="2.5" r="2.5" transform="matrix(-1 0 0 1 22.8451 7)" fill="#00B8FF"/>
<path d="M15.5 12.5C14 11.8333 10.9 9.7 10.5 6.5" stroke="#00B8FF" stroke-width="2.5" stroke-linecap="round"/>
<path d="M18.5 15C19.3333 16 21.9 18.1 25.5 18.5" stroke="#00B8FF" stroke-width="2.5" stroke-linecap="round"/>
</svg>
