<svg width="32" height="32" viewBox="0 0 32 32" fill="none" xmlns="http://www.w3.org/2000/svg">
<path d="M14.001 3.30762C15.238 2.59394 16.762 2.59395 17.999 3.30762L25.999 7.92285C27.2372 8.6372 28 9.95822 28 11.3877V20.6123C27.9999 22.0417 27.2372 23.3628 25.999 24.0771L17.999 28.6924C16.762 29.4061 15.238 29.406 14.001 28.6924L6.00098 24.0771C4.76279 23.3628 4.00004 22.0418 4 20.6123V11.3877C4.00005 9.95825 4.76283 8.6372 6.00098 7.92285L14.001 3.30762Z" stroke="#FEC320" stroke-width="2"/>
<path d="M15.2715 6.97656C15.7245 6.72489 16.2755 6.72492 16.7285 6.97656L23.7285 10.8652C24.2047 11.1298 24.5 11.632 24.5 12.1768V19.8232C24.5 20.368 24.2047 20.8702 23.7285 21.1348L16.7285 25.0234C16.2755 25.2751 15.7245 25.2751 15.2715 25.0234L8.27148 21.1348C7.7953 20.8702 7.50001 20.368 7.5 19.8232V12.1768C7.50002 11.632 7.7953 11.1298 8.27148 10.8652L15.2715 6.97656Z" stroke="#FEC320"/>
<path d="M12 16.9L14.24 19L20 13" stroke="#FEC320" stroke-width="2.5" stroke-linecap="round" stroke-linejoin="round"/>
</svg>
