<svg width="32" height="32" viewBox="0 0 32 32" fill="none" xmlns="http://www.w3.org/2000/svg">
<path d="M19.2325 27.5984C20 26 20.5972 23.7915 20 22C19.4028 20.2085 16.8876 18.0984 15.6269 16.8519L14.3876 17.5984C14 22 13.5 24.5 9 27.5984" stroke="#C87E56" stroke-width="2.5" stroke-linecap="round"/>
<path d="M12.0901 12.8771L13.8115 16.9689C14.0406 17.5135 14.6893 17.7418 15.209 17.4607L15.3222 17.3995C15.6239 17.2363 15.8209 16.9299 15.8442 16.5877L16.1841 11.583C16.2352 10.8303 15.4661 10.2942 14.7776 10.6026L12.603 11.5767C12.1071 11.7988 11.8793 12.3762 12.0901 12.8771Z" fill="#C87E56" stroke="#C87E56" stroke-width="2.5" stroke-linecap="round"/>
<circle cx="2.5" cy="2.5" r="2.5" transform="matrix(-0.968624 0.248531 0.248531 0.968624 13.7296 4)" fill="#C87E56"/>
<path fill-rule="evenodd" clip-rule="evenodd" d="M6.05895 4.40359C5.20633 4.32846 4.48666 4.48339 3.93676 4.8681C3.32618 5.29526 3.00136 5.9517 2.8954 6.6879C2.75167 7.6865 3.1402 8.41989 3.55201 8.99454C3.65325 9.13582 3.75751 9.26998 3.85413 9.39339C3.95275 9.51936 4.04148 9.63227 4.12264 9.74335C4.2871 9.96846 4.38839 10.145 4.43146 10.3068C4.51468 10.6194 4.5146 11.0737 4.46405 11.5501C4.41465 12.0154 4.32267 12.453 4.25495 12.7067C4.23793 12.7705 4.23628 12.8348 4.24701 12.8962C4.24795 12.9016 4.24948 12.9069 4.25062 12.9123C4.25272 12.9222 4.25466 12.9321 4.25742 12.9418C4.26862 12.9812 4.28521 13.0188 4.3064 13.054C4.30857 13.0576 4.31045 13.0613 4.31272 13.0649C4.31737 13.0721 4.3228 13.0789 4.32784 13.0859C4.33216 13.0919 4.33603 13.0982 4.34063 13.104C4.34555 13.1103 4.35092 13.1162 4.35617 13.1222C4.36088 13.1276 4.36546 13.1331 4.37042 13.1383C4.37641 13.1446 4.38277 13.1506 4.38911 13.1565C4.39394 13.1611 4.3987 13.1657 4.40373 13.1701C4.42278 13.1868 4.44337 13.2018 4.46506 13.2156C4.47142 13.2196 4.47768 13.2238 4.48425 13.2276C4.48691 13.2292 4.4896 13.2306 4.49229 13.2321C4.50343 13.2383 4.51474 13.2442 4.52647 13.2496C4.55129 13.261 4.57748 13.2699 4.60454 13.2775C4.60924 13.2788 4.61372 13.2809 4.61848 13.2821L4.6208 13.2824C4.62774 13.2841 4.63485 13.2851 4.64191 13.2866C4.65169 13.2886 4.66133 13.2908 4.67109 13.2923L4.67258 13.2929L5.26646 13.3783L5.26845 13.3782C5.27809 13.3796 5.28784 13.3801 5.29765 13.381C5.30497 13.3816 5.3122 13.3827 5.31946 13.383L5.3214 13.3833C5.32643 13.3835 5.33145 13.3828 5.33645 13.3828C5.36455 13.3832 5.3922 13.3821 5.41922 13.3781C5.43187 13.3763 5.44426 13.3736 5.45657 13.3709C5.45969 13.3702 5.46284 13.3697 5.46593 13.3689C5.47319 13.3672 5.48022 13.3648 5.48734 13.3627C5.51215 13.3556 5.53634 13.3471 5.5594 13.3365C5.56537 13.3337 5.57104 13.3305 5.57687 13.3275C5.58473 13.3235 5.59272 13.3197 5.60033 13.3153C5.60655 13.3117 5.61251 13.3077 5.61855 13.3039C5.62436 13.3002 5.63031 13.2966 5.63595 13.2927L5.64165 13.2887C5.64665 13.2851 5.65111 13.2809 5.65595 13.2771C5.66277 13.2717 5.6699 13.2668 5.6764 13.2611C5.67958 13.2584 5.68245 13.2553 5.68554 13.2524C5.71575 13.2247 5.74232 13.1933 5.76416 13.1586C5.76955 13.1501 5.7742 13.1412 5.77901 13.1323C5.78161 13.1274 5.78458 13.1228 5.787 13.1179C5.8146 13.0619 5.83077 12.9998 5.83244 12.9338C5.83902 12.6713 5.87417 12.2255 5.95803 11.7651C6.04386 11.2938 6.1719 10.858 6.33992 10.5815C6.42686 10.4384 6.57382 10.2976 6.7951 10.128C6.90429 10.0443 7.02126 9.961 7.1514 9.86796C7.2789 9.77681 7.41676 9.6775 7.55374 9.57051C8.11089 9.13532 8.69048 8.54126 8.8342 7.54266C8.94016 6.80646 8.81366 6.08507 8.34833 5.50305C7.9293 4.97896 7.28267 4.62736 6.44366 4.45896C6.32036 4.4354 6.17779 4.41602 6.05895 4.40359Z" fill="#C87E56"/>
<path d="M5.46797 13.4287C7.96166 18.3086 11.6181 14.6314 12.1045 12.1168" stroke="#C87E56" stroke-width="2.5" stroke-linecap="round"/>
<path d="M16 11C18.5 9.5 20 8 21.5 6.5" stroke="#C87E56" stroke-width="2.5" stroke-linecap="round"/>
</svg>
