<svg width="32" height="32" viewBox="0 0 32 32" fill="none" xmlns="http://www.w3.org/2000/svg">
<path d="M16 7.27542C16 6.57102 16.5733 5.99162 17.272 6.08122C18.9297 6.2938 20.5149 6.91955 21.8779 7.90983C23.5863 9.15111 24.858 10.9014 25.5106 12.9098C26.1631 14.9183 26.1631 17.0817 25.5106 19.0902C24.858 21.0986 23.5863 22.8489 21.8779 24.0902C20.1694 25.3315 18.1118 26 16 26C13.8882 26 11.8306 25.3314 10.1221 24.0902C8.41367 22.8489 7.14201 21.0986 6.48943 19.0902C5.96881 17.4879 5.86354 15.7869 6.17361 14.1447C6.3043 13.4525 7.03251 13.0863 7.70243 13.304C8.37235 13.5216 8.72713 14.2416 8.6268 14.9388C8.46521 16.0616 8.56142 17.2124 8.91542 18.3019C9.40154 19.798 10.3488 21.1019 11.6215 22.0265C12.8942 22.9512 14.4269 23.4492 16 23.4492C17.5731 23.4492 19.1058 22.9512 20.3785 22.0265C21.6512 21.1019 22.5985 19.798 23.0846 18.3019C23.5707 16.8058 23.5707 15.1942 23.0846 13.6981C22.5985 12.202 21.6512 10.8981 20.3785 9.9735C19.4517 9.30014 18.387 8.85304 17.2692 8.65975C16.5751 8.53973 16 7.97981 16 7.27542Z" fill="#AD60FF"/>
<path d="M13.2097 19.0815C12.7283 19.0815 12.2983 19.0068 11.9197 18.8573C11.5431 18.7078 11.2461 18.505 11.0287 18.2487C10.8132 17.9925 10.7055 17.7032 10.7055 17.381C10.7055 17.1344 10.7666 16.9092 10.8889 16.7054C11.0131 16.5016 11.1801 16.3327 11.3898 16.1987C11.5994 16.0628 11.8333 15.9755 12.0915 15.9366V15.8901C11.7518 15.8318 11.4723 15.6814 11.2529 15.4387C11.0355 15.1941 10.9268 14.9058 10.9268 14.5739C10.9268 14.2613 11.0258 13.9837 11.2238 13.7411C11.4218 13.4964 11.6926 13.3043 12.0362 13.1645C12.3798 13.0247 12.771 12.9548 13.2097 12.9548C13.6484 12.9548 14.0396 13.0257 14.3832 13.1674C14.7268 13.3072 14.9976 13.4994 15.1957 13.744C15.3937 13.9866 15.4927 14.2633 15.4927 14.5739C15.4927 14.9078 15.382 15.196 15.1607 15.4387C14.9394 15.6814 14.6618 15.8318 14.3279 15.8901V15.9366C14.5841 15.9755 14.8171 16.0628 15.0268 16.1987C15.2364 16.3327 15.4034 16.5016 15.5276 16.7054C15.6519 16.9092 15.714 17.1344 15.714 17.381C15.714 17.7032 15.6053 17.9925 15.3878 18.2487C15.1724 18.505 14.8753 18.7078 14.4968 18.8573C14.1202 19.0068 13.6912 19.0815 13.2097 19.0815ZM13.2097 17.9634C13.3631 17.9634 13.499 17.9323 13.6174 17.8702C13.7358 17.808 13.829 17.7226 13.8969 17.6139C13.9668 17.5033 14.0018 17.379 14.0018 17.2412C14.0018 17.1034 13.9668 16.9811 13.8969 16.8743C13.829 16.7675 13.7358 16.684 13.6174 16.6239C13.499 16.5617 13.3631 16.5307 13.2097 16.5307C13.0583 16.5307 12.9224 16.5617 12.802 16.6239C12.6836 16.684 12.5895 16.7675 12.5196 16.8743C12.4516 16.9811 12.4177 17.1034 12.4177 17.2412C12.4177 17.379 12.4516 17.5023 12.5196 17.611C12.5895 17.7197 12.6836 17.8061 12.802 17.8702C12.9224 17.9323 13.0583 17.9634 13.2097 17.9634ZM13.2097 15.4125C13.3456 15.4125 13.466 15.3844 13.5708 15.3281C13.6756 15.2718 13.7581 15.1941 13.8183 15.0951C13.8785 14.9961 13.9086 14.8845 13.9086 14.7602C13.9086 14.636 13.8785 14.5263 13.8183 14.4312C13.7581 14.3341 13.6756 14.2584 13.5708 14.204C13.466 14.1478 13.3456 14.1196 13.2097 14.1196C13.0758 14.1196 12.9554 14.1478 12.8486 14.204C12.7438 14.2584 12.6613 14.3341 12.6011 14.4312C12.5409 14.5263 12.5109 14.636 12.5109 14.7602C12.5109 14.8845 12.5409 14.9961 12.6011 15.0951C12.6613 15.1922 12.7438 15.2698 12.8486 15.3281C12.9554 15.3844 13.0758 15.4125 13.2097 15.4125ZM18.6243 19.1631C18.0827 19.1611 17.6148 19.0359 17.2208 18.7874C16.8267 18.5389 16.5229 18.1808 16.3093 17.7129C16.0958 17.2451 15.99 16.684 15.9919 16.0298C15.9939 15.3737 16.1006 14.8165 16.3122 14.3584C16.5258 13.9002 16.8286 13.5518 17.2208 13.313C17.6148 13.0742 18.0827 12.9548 18.6243 12.9548C19.1659 12.9548 19.6338 13.0752 20.0279 13.3159C20.4219 13.5547 20.7257 13.9031 20.9393 14.3613C21.1528 14.8194 21.2586 15.3756 21.2567 16.0298C21.2567 16.6879 21.1499 17.2509 20.9364 17.7188C20.7228 18.1866 20.419 18.5448 20.0249 18.7933C19.6328 19.0398 19.1659 19.1631 18.6243 19.1631ZM18.6243 17.8469C18.9039 17.8469 19.1329 17.7013 19.3115 17.4101C19.4921 17.117 19.5814 16.6569 19.5794 16.0298C19.5794 15.6202 19.5387 15.2853 19.4571 15.0252C19.3756 14.7651 19.263 14.5729 19.1193 14.4487C18.9757 14.3225 18.8107 14.2594 18.6243 14.2594C18.3448 14.2594 18.1167 14.4011 17.94 14.6845C17.7633 14.9679 17.6731 15.4164 17.6692 16.0298C17.6673 16.4472 17.707 16.7908 17.7886 17.0607C17.8701 17.3286 17.9827 17.5266 18.1264 17.6547C18.272 17.7828 18.4379 17.8469 18.6243 17.8469Z" fill="#AD60FF"/>
<path d="M10.347 10.7321V6.42244H11.6515V10.7321H10.347ZM8.84444 9.22955V7.925H13.1541V9.22955H8.84444Z" fill="#AD60FF"/>
</svg>
