<svg width="32" height="32" viewBox="0 0 32 32" fill="none" xmlns="http://www.w3.org/2000/svg">
<path d="M17.8226 3C18.5691 4.49296 18.9424 7.10563 18.5691 8.97183C18.2705 10.4648 16.2053 12.5798 15.21 13.4507C14.2147 13.8239 11.5001 15.5 11.1043 16.8099C10.7871 17.86 11.8826 19.2512 13.5 19.5" stroke="#00B8FF" stroke-width="2.5" stroke-linecap="round"/>
<path d="M22.845 29.4999C22.5962 28.2558 21.9492 26.0661 21.3521 24.2745C20.7549 22.483 19.7371 19.7487 19.2394 18.7534L17 19.4999C16.7512 20.6196 16.5 22.9999 16 24.4999C15.5558 25.8323 14 27.9999 13 29.4999" stroke="#00B8FF" stroke-width="2.5" stroke-linecap="round"/>
<path d="M17.8027 12.0701L18.8414 17.4574C18.9332 17.9334 18.6704 18.4066 18.218 18.5803L17.8758 18.7117C17.4374 18.88 16.9409 18.7206 16.6824 18.3285L14.0179 14.2857C13.7269 13.8443 13.8298 13.2526 14.2528 12.9354L16.2208 11.4594C16.8118 11.0161 17.6629 11.3447 17.8027 12.0701Z" fill="#00B8FF" stroke="#00B8FF" stroke-width="2.5" stroke-linecap="round"/>
<circle cx="12.5" cy="8.5" r="2.5" fill="#00B8FF"/>
</svg>
