<svg width="32" height="32" viewBox="0 0 32 32" fill="none" xmlns="http://www.w3.org/2000/svg">
<path d="M11.8097 17.719C11.3273 22.2036 11.3273 24.6157 14.2218 28.9575" stroke="#AD60FF" stroke-width="2.5" stroke-linecap="round"/>
<path d="M10.8447 17.8619C10.3625 20.7565 8.91518 26.5455 9.88009 29.44" stroke="#AD60FF" stroke-width="2.5" stroke-linecap="round"/>
<path d="M13.9045 13.022L12.3163 17.7738C12.1392 18.3038 11.5363 18.5571 11.0338 18.3127C10.6764 18.1388 10.4698 17.7562 10.5207 17.362L11.1719 12.313C11.2524 11.6887 11.8827 11.2932 12.4799 11.4922L13.2723 11.7563C13.7966 11.9311 14.0797 12.4979 13.9045 13.022Z" fill="#AD60FF" stroke="#AD60FF" stroke-width="2.5" stroke-linecap="round"/>
<circle cx="14.0317" cy="7.29002" r="2.4121" transform="rotate(14.3906 14.0317 7.29002)" fill="#AD60FF"/>
<path fill-rule="evenodd" clip-rule="evenodd" d="M21.6072 3.71362C22.1418 4.1954 22.4825 4.69469 22.6081 5.18916C22.7476 5.73819 22.6046 6.21232 22.2939 6.58844C21.8723 7.09862 21.275 7.17564 20.7444 7.17131C20.6139 7.17024 20.4853 7.16434 20.3666 7.15848C20.2455 7.1525 20.1367 7.14694 20.0332 7.14516C19.8235 7.14157 19.6752 7.15545 19.5683 7.19811C19.3616 7.2806 19.1318 7.47335 18.9202 7.70585C18.7135 7.93302 18.5457 8.17404 18.4568 8.32246C18.4344 8.35978 18.4029 8.38801 18.3655 8.40763C18.3622 8.40936 18.3587 8.41068 18.3553 8.41227C18.3491 8.4152 18.3429 8.41822 18.3364 8.42067C18.3099 8.43066 18.2813 8.4366 18.2511 8.43875C18.248 8.43897 18.245 8.43943 18.2419 8.43957C18.2355 8.43985 18.229 8.43945 18.2225 8.43939C18.2169 8.43934 18.2115 8.43968 18.2059 8.43938C18.1998 8.43906 18.1937 8.43832 18.1876 8.43772C18.1821 8.43717 18.1767 8.43674 18.1712 8.43596C18.1645 8.43503 18.1578 8.43372 18.151 8.43244C18.1459 8.43147 18.1408 8.43056 18.1357 8.42939C18.1161 8.42497 18.0966 8.41894 18.0769 8.41173C18.0712 8.40962 18.0654 8.40763 18.0597 8.40527C18.0574 8.40432 18.055 8.40332 18.0527 8.40233C18.0431 8.39823 18.0335 8.39395 18.024 8.38917C18.0037 8.37906 17.984 8.36705 17.9644 8.35396C17.961 8.3517 17.9573 8.34988 17.9539 8.34752L17.9524 8.34626C17.9475 8.3428 17.9429 8.33895 17.938 8.3353C17.9313 8.33027 17.9246 8.3254 17.9182 8.32014L17.917 8.31948L17.5279 7.99796L17.5268 7.99673C17.5205 7.99149 17.5145 7.98585 17.5084 7.98029C17.5038 7.97615 17.499 7.97225 17.4946 7.96801L17.4934 7.96696C17.4903 7.96401 17.4878 7.9607 17.4848 7.95771C17.4683 7.94093 17.4527 7.92381 17.439 7.90584C17.4326 7.89743 17.4267 7.88885 17.4209 7.88028C17.4195 7.87811 17.4179 7.87598 17.4165 7.8738C17.4131 7.86868 17.4102 7.86344 17.4071 7.85828C17.3963 7.84029 17.3865 7.82214 17.3785 7.80372C17.3764 7.79896 17.3747 7.79417 17.3728 7.7894C17.3703 7.78296 17.3675 7.77655 17.3653 7.7701C17.3635 7.76482 17.362 7.75955 17.3605 7.75427C17.359 7.74919 17.3573 7.74411 17.356 7.73904L17.3547 7.73391C17.3536 7.72937 17.3532 7.72489 17.3523 7.72036C17.351 7.714 17.3493 7.7076 17.3484 7.70128C17.348 7.6982 17.3479 7.69517 17.3475 7.69209C17.3439 7.66212 17.3443 7.63281 17.3492 7.60494C17.3504 7.59807 17.3522 7.59147 17.3539 7.58481C17.3548 7.5812 17.3554 7.57744 17.3565 7.57389C17.3687 7.53353 17.3908 7.49741 17.4232 7.46842C17.5522 7.3531 17.7572 7.14285 17.9414 6.89703C18.1298 6.64542 18.2758 6.38339 18.3178 6.16489C18.3396 6.05183 18.3252 5.90356 18.2822 5.69831C18.2609 5.59704 18.2349 5.49123 18.2062 5.37336C18.1781 5.25788 18.148 5.13271 18.1224 5.0048C18.0181 4.48455 17.9811 3.88339 18.4027 3.37322C18.7135 2.9971 19.1521 2.76731 19.7176 2.80077C20.2268 2.8309 20.7813 3.07131 21.3552 3.50534C21.4389 3.56963 21.5317 3.6473 21.6072 3.71362Z" fill="#AD60FF"/>
<path d="M18.0812 8.21364C17.1163 11.108 16.6341 12.5555 13.7394 13.5202" stroke="#AD60FF" stroke-width="2.5" stroke-linecap="round"/>
<path d="M10.8447 12.0729C8.85051 12.0729 8.43263 8.21352 8.91505 4.35417" stroke="#AD60FF" stroke-width="2.5" stroke-linecap="round"/>
</svg>
