<svg width="32" height="32" viewBox="0 0 32 32" fill="none" xmlns="http://www.w3.org/2000/svg">
<path d="M24.4006 13.7382C25.4669 14.8044 26 15.3375 26 16C26 16.6624 25.4669 17.1956 24.4006 18.2618C23.6838 18.9786 23.4637 19.4414 23.4637 20.4479C23.4637 21.2444 23.6182 22.3776 22.9905 23C22.3678 23.6175 21.2393 23.4637 20.4479 23.4637C19.4765 23.4637 19.0087 23.6537 18.3154 24.347C17.7251 24.9374 16.9337 26 16 26C15.0663 26 14.2749 24.9374 13.6846 24.347C12.9913 23.6537 12.5235 23.4637 11.5521 23.4637C10.7607 23.4637 9.63218 23.6175 9.00949 23C8.38181 22.3776 8.53628 21.2444 8.53628 20.4479C8.53628 19.4414 8.31616 18.9786 7.59938 18.2618C6.53314 17.1956 6.00002 16.6624 6 16C6.00001 15.3375 6.53312 14.8044 7.59935 13.7382C8.2392 13.0983 8.53628 12.4643 8.53628 11.5521C8.53628 10.7607 8.38249 9.63214 9 9.00944C9.62243 8.38178 10.7556 8.53626 11.5521 8.53626C12.4643 8.53626 13.0983 8.2392 13.7381 7.59937C14.8044 6.53312 15.3375 6 16 6C16.6625 6 17.1956 6.53312 18.2618 7.59937M22.9905 23H23" stroke="#B7B7B7" stroke-width="2" stroke-linecap="round" stroke-linejoin="round"/>
<path d="M12.5 13.5L16 17L25.0002 7" stroke="#B7B7B7" stroke-width="2.5" stroke-linecap="round" stroke-linejoin="round"/>
</svg>
