<svg width="32" height="32" viewBox="0 0 32 32" fill="none" xmlns="http://www.w3.org/2000/svg">
<path d="M13.003 21.6534L12.1788 25.2249C12.0741 25.6786 11.6701 26 11.2044 26H9.79546C9.3298 26 8.92578 25.6786 8.82107 25.2249L7.99689 21.6534C7.85229 21.0268 8.3282 20.4286 8.97128 20.4286H12.0286C12.6717 20.4286 13.1476 21.0268 13.003 21.6534Z" fill="#F9C12A" stroke="#F9C12A" stroke-width="2" stroke-linecap="round"/>
<circle cx="10.4414" cy="15.6228" r="2.62281" fill="#F9C12A"/>
<path d="M24.7173 18.2249L23.102 25.2249C22.9972 25.6786 22.5932 26 22.1276 26H18.8724C18.4068 26 18.0028 25.6786 17.898 25.2249L16.2827 18.2249C16.1381 17.5982 16.614 17 17.2571 17H23.7429C24.386 17 24.8619 17.5982 24.7173 18.2249Z" fill="#F9C12A" stroke="#F9C12A" stroke-width="2" stroke-linecap="round"/>
<circle cx="20.4054" cy="9.23684" r="4.23684" fill="#F9C12A"/>
</svg>
