<svg width="32" height="32" viewBox="0 0 32 32" fill="none" xmlns="http://www.w3.org/2000/svg">
<rect x="14" y="20" width="4" height="9" rx="1" fill="#B7B7B7"/>
<rect x="7" y="24" width="4" height="5" rx="1" fill="#B7B7B7"/>
<rect x="21" y="16" width="4" height="13" rx="1" fill="#B7B7B7"/>
<path d="M17.6018 17.2941L17.2941 18.2941C17.165 18.7137 16.7774 19 16.3383 19H15.6617C15.2226 19 14.835 18.7137 14.7059 18.2941L14.3982 17.2941C14.2003 16.651 14.6812 16 15.354 16H16.646C17.3188 16 17.7997 16.651 17.6018 17.2941Z" fill="#B7B7B7" stroke="#B7B7B7" stroke-width="0.2" stroke-linecap="round"/>
<circle cx="16.0388" cy="14.0388" r="1.03885" fill="#B7B7B7"/>
<path d="M15.5516 3.90849C15.735 3.53687 16.265 3.53687 16.4484 3.90849L17.3531 5.74174C17.426 5.88931 17.5667 5.99159 17.7296 6.01526L19.7527 6.30923C20.1628 6.36882 20.3266 6.87281 20.0298 7.16208L18.5659 8.58906C18.448 8.70393 18.3943 8.86943 18.4221 9.03162L18.7677 11.0466C18.8377 11.455 18.409 11.7665 18.0422 11.5736L16.2327 10.6223C16.087 10.5457 15.913 10.5457 15.7673 10.6223L13.9578 11.5736C13.591 11.7665 13.1623 11.455 13.2323 11.0466L13.5779 9.03162C13.6057 8.86943 13.552 8.70393 13.4341 8.58906L11.9702 7.16208C11.6734 6.87281 11.8372 6.36882 12.2473 6.30923L14.2704 6.01526C14.4333 5.99159 14.574 5.88931 14.6469 5.74174L15.5516 3.90849Z" fill="#B7B7B7"/>
</svg>
