<svg width="32" height="32" viewBox="0 0 32 32" fill="none" xmlns="http://www.w3.org/2000/svg">
<path d="M27.5625 14.5C28.3564 14.5 29.0093 15.1461 28.9103 15.9338C28.6883 17.7002 28.0582 19.3979 27.0619 20.8891C25.7983 22.7802 24.0022 24.2542 21.9009 25.1246C19.7995 25.995 17.4872 26.2228 15.2565 25.779C13.0257 25.3353 10.9766 24.24 9.36827 22.6317C7.75997 21.0234 6.6647 18.9743 6.22097 16.7435C5.77724 14.5128 6.00498 12.2005 6.87539 10.0991C7.74579 7.99779 9.21978 6.20174 11.1109 4.9381C12.6021 3.94175 14.2998 3.31169 16.0662 3.08972C16.8539 2.99074 17.5 3.64359 17.5 4.4375V4.4375C17.5 5.23141 16.852 5.8628 16.0691 5.99451C14.8724 6.19584 13.7262 6.64841 12.7082 7.32857C11.2898 8.2763 10.1843 9.62334 9.53154 11.1994C8.87873 12.7754 8.70793 14.5096 9.04073 16.1827C9.37352 17.8557 10.195 19.3926 11.4012 20.5988C12.6074 21.805 14.1443 22.6265 15.8173 22.9593C17.4904 23.2921 19.2246 23.1213 20.8006 22.4685C22.3767 21.8157 23.7237 20.7102 24.6714 19.2918C25.3516 18.2738 25.8042 17.1276 26.0055 15.9309C26.1372 15.148 26.7686 14.5 27.5625 14.5V14.5Z" fill="#00B8FF"/>
<path fill-rule="evenodd" clip-rule="evenodd" d="M20.4322 10.8998C21.152 11.3731 21.6176 11.9558 21.8004 12.6245C22.0033 13.3669 21.8323 14.1219 21.4373 14.8061C20.9015 15.7341 20.1191 16.1049 19.4216 16.3279C19.2501 16.3827 19.0809 16.4297 18.9247 16.4724C18.7652 16.5161 18.622 16.555 18.486 16.5971C18.2103 16.6825 18.0158 16.7668 17.8768 16.8754C17.6081 17.0853 17.313 17.4665 17.0432 17.8978C16.7797 18.3193 16.5677 18.7442 16.4561 18.9996C16.428 19.0639 16.3876 19.1188 16.3392 19.1636C16.335 19.1675 16.3303 19.171 16.3259 19.1748C16.3179 19.1818 16.3099 19.1888 16.3014 19.1953C16.267 19.2213 16.2295 19.2424 16.19 19.2585C16.1859 19.2602 16.182 19.2622 16.1779 19.2637C16.1696 19.2669 16.1609 19.2691 16.1524 19.2719C16.1451 19.2742 16.1379 19.277 16.1305 19.279C16.1226 19.2812 16.1145 19.2827 16.1065 19.2845C16.0993 19.2861 16.0921 19.2878 16.0848 19.289C16.076 19.2905 16.0671 19.2915 16.0582 19.2926C16.0515 19.2934 16.0447 19.2942 16.0379 19.2948C16.0121 19.2967 15.9861 19.2964 15.9601 19.2943C15.9525 19.2937 15.9448 19.2933 15.9372 19.2923C15.9341 19.292 15.931 19.2915 15.9279 19.2911C15.9152 19.2892 15.9024 19.2871 15.8897 19.2842C15.8627 19.2782 15.8363 19.2692 15.8101 19.2585C15.8055 19.2567 15.8007 19.2556 15.7961 19.2536L15.7941 19.2524C15.7875 19.2495 15.7813 19.2459 15.7748 19.2426C15.7658 19.2382 15.7568 19.234 15.7481 19.229L15.7466 19.2286L15.2237 18.9267L15.2222 18.9254C15.2137 18.9204 15.2057 18.9148 15.1974 18.9093C15.1913 18.9052 15.1849 18.9016 15.179 18.8973L15.1773 18.8963C15.1732 18.8933 15.1697 18.8896 15.1657 18.8865C15.1433 18.8691 15.1223 18.8507 15.1036 18.8304C15.0949 18.8209 15.0868 18.8109 15.0789 18.8009C15.0769 18.7983 15.0748 18.7959 15.0728 18.7933C15.0683 18.7873 15.0643 18.7809 15.06 18.7747C15.0451 18.753 15.0316 18.7307 15.0204 18.7073C15.0175 18.7012 15.0151 18.695 15.0125 18.6888C15.0089 18.6805 15.005 18.6723 15.0019 18.6638C14.9993 18.6569 14.9972 18.6498 14.995 18.6428C14.9928 18.636 14.9905 18.6293 14.9886 18.6224L14.9867 18.6155C14.9851 18.6093 14.9843 18.603 14.983 18.5967C14.9811 18.588 14.9787 18.5793 14.9773 18.5705C14.9766 18.5662 14.9763 18.5618 14.9757 18.5575C14.97 18.5152 14.9695 18.4722 14.9748 18.4293C14.9761 18.4188 14.9783 18.4083 14.9803 18.3979C14.9813 18.3922 14.982 18.3864 14.9833 18.3808C14.9979 18.3165 15.0256 18.2541 15.0672 18.1977C15.2326 17.9734 15.4946 17.5774 15.7278 17.1384C15.9665 16.6891 16.149 16.2429 16.1965 15.9053C16.221 15.7306 16.1969 15.52 16.133 15.2386C16.1014 15.0997 16.0635 14.9562 16.0215 14.7963C15.9804 14.6396 15.9365 14.4696 15.8982 14.2937C15.7426 13.5781 15.6725 12.7152 16.2084 11.7871C16.6034 11.1029 17.1717 10.5774 17.9161 10.3819C18.5865 10.2059 19.3238 10.3177 20.0935 10.7042C20.2058 10.762 20.3306 10.8355 20.4322 10.8998Z" fill="#00B8FF"/>
<circle cx="13.7848" cy="15.4816" r="1.25788" transform="rotate(30 13.7848 15.4816)" fill="#00B8FF"/>
</svg>
