<svg width="32" height="32" viewBox="0 0 32 32" fill="none" xmlns="http://www.w3.org/2000/svg">
<path d="M11 10C11 10 13.7447 6.60482 15.2555 5.29861C15.4984 5.08862 15.7711 4.9894 16.0421 5.0009C16.2852 5.01121 16.5269 5.11055 16.7448 5.2989C18.2551 6.60535 21 10 21 10M16.0421 6.25V20" stroke="#00B8FF" stroke-width="2.5" stroke-linecap="round" stroke-linejoin="round"/>
<path d="M11 15C9.24984 15 8.37475 15 7.70627 15.327C7.11827 15.6146 6.64021 16.0735 6.3406 16.638C6 17.2798 6 18.1199 6 19.8V21C6 23.8284 6 25.2426 6.91529 26.1214C7.83059 27 9.30373 27 12.25 27H19.75C22.6963 27 24.1694 27 25.0847 26.1214C26 25.2426 26 23.8284 26 21V19.8C26 18.1199 26 17.2798 25.6594 16.638C25.3598 16.0735 24.8818 15.6146 24.2938 15.327C23.6253 15 22.7501 15 21 15" stroke="#00B8FF" stroke-width="2.5" stroke-linecap="round" stroke-linejoin="round"/>
</svg>
