<svg width="32" height="32" viewBox="0 0 32 32" fill="none" xmlns="http://www.w3.org/2000/svg">
<path d="M7.99995 27.5984C8.24877 26.3543 8.24767 23.89 8.84485 22.0984C9.44203 20.3069 10.3448 18.0984 11.6055 16.8519L12.8448 17.5984C13.0937 18.7181 13.3447 22.0985 14.3448 23.5984C15.124 24.767 16.3448 26.0984 17.845 27.5984" stroke="#AD60FF" stroke-width="2.5" stroke-linecap="round"/>
<path d="M10.575 11.9745L10.9154 16.4006C10.9607 16.9897 11.5041 17.4112 12.0859 17.3088L12.2127 17.2864C12.5505 17.2269 12.8342 16.9985 12.9644 16.6811L14.8681 12.0402C15.1544 11.3422 14.5941 10.5906 13.8434 10.6657L11.4725 10.9028C10.9318 10.9568 10.5333 11.4327 10.575 11.9745Z" fill="#AD60FF" stroke="#AD60FF" stroke-width="2.5" stroke-linecap="round"/>
<circle cx="13.3032" cy="6.04289" r="2.5" transform="rotate(14.3906 13.3032 6.04289)" fill="#AD60FF"/>
<path fill-rule="evenodd" clip-rule="evenodd" d="M25.196 20.0406C25.1401 20.8947 24.8772 21.5823 24.4132 22.0671C23.8979 22.6054 23.1996 22.8263 22.4558 22.8187C21.447 22.8084 20.7814 22.3125 20.2763 21.8179C20.1521 21.6963 20.0355 21.5728 19.9282 21.4585C19.8188 21.3418 19.7207 21.2369 19.6233 21.1397C19.4259 20.9428 19.2669 20.8158 19.1136 20.7486C18.8173 20.6186 18.3683 20.5494 17.8898 20.5267C17.4224 20.5045 16.9759 20.5287 16.7148 20.5569C16.6491 20.564 16.5854 20.5558 16.5263 20.5359C16.5211 20.5341 16.5161 20.5318 16.511 20.5298C16.5015 20.5262 16.4921 20.5228 16.4829 20.5186C16.4456 20.5015 16.411 20.4794 16.3795 20.4531C16.3763 20.4504 16.3728 20.448 16.3697 20.4452C16.3632 20.4395 16.3574 20.4331 16.3512 20.427C16.3459 20.4219 16.3403 20.4171 16.3352 20.4116C16.3298 20.4058 16.3248 20.3996 16.3196 20.3935C16.315 20.388 16.3103 20.3827 16.3059 20.377C16.3006 20.3701 16.2957 20.3629 16.2907 20.3557C16.2869 20.3502 16.2831 20.3448 16.2795 20.3392C16.266 20.3178 16.2543 20.2952 16.2439 20.2716C16.2409 20.2647 16.2377 20.2579 16.235 20.2508C16.2339 20.248 16.2328 20.2451 16.2318 20.2422C16.2274 20.2303 16.2232 20.2182 16.2197 20.2058C16.2122 20.1795 16.2074 20.1522 16.204 20.1243C16.2034 20.1195 16.2021 20.1148 16.2016 20.1099L16.2016 20.1075C16.201 20.1004 16.2011 20.0932 16.2008 20.086C16.2003 20.0761 16.1995 20.0662 16.1996 20.0563L16.1992 20.0548L16.2054 19.4548L16.2058 19.4528C16.2059 19.4431 16.2068 19.4334 16.2075 19.4236C16.208 19.4162 16.208 19.4089 16.2088 19.4017L16.2089 19.3997C16.2094 19.3947 16.2109 19.3899 16.2116 19.3849C16.2155 19.3571 16.2208 19.33 16.2289 19.3039C16.2326 19.2916 16.2371 19.2798 16.2417 19.268C16.2429 19.2651 16.2439 19.262 16.2451 19.2591C16.2479 19.2522 16.2513 19.2456 16.2545 19.2389C16.2653 19.2154 16.2774 19.1928 16.2914 19.1717C16.2951 19.1662 16.2991 19.1611 16.3029 19.1558C16.3081 19.1486 16.313 19.1413 16.3186 19.1344C16.3231 19.1288 16.3279 19.1236 16.3326 19.1182C16.3372 19.113 16.3416 19.1077 16.3464 19.1027L16.3512 19.0977C16.3555 19.0933 16.3604 19.0895 16.3649 19.0853C16.3712 19.0794 16.3771 19.0731 16.3837 19.0675C16.3869 19.0648 16.3904 19.0624 16.3937 19.0598C16.4257 19.0342 16.4608 19.0127 16.4984 18.9964C16.5077 18.9924 16.5172 18.9892 16.5267 18.9858C16.5319 18.9839 16.5369 18.9817 16.5422 18.9801C16.6017 18.9613 16.6656 18.9548 16.731 18.9632C16.9915 18.9968 17.4374 19.03 17.9052 19.0174C18.384 19.0045 18.8344 18.9444 19.1333 18.8205C19.2879 18.7564 19.4495 18.6327 19.6508 18.4399C19.7502 18.3447 19.8504 18.2418 19.9622 18.1274C20.0717 18.0153 20.1909 17.8942 20.3175 17.7751C20.8326 17.2909 21.5081 16.8087 22.517 16.819C23.2607 16.8266 23.9544 17.0616 24.4586 17.6103C24.9126 18.1044 25.1615 18.7971 25.1999 19.652C25.2044 19.7774 25.2018 19.9213 25.196 20.0406Z" fill="#AD60FF"/>
<path d="M20 15.8519C18.5281 15.4108 15.9322 14.1017 14.9674 11.7291" stroke="#AD60FF" stroke-width="2.5" stroke-linecap="round"/>
<path d="M11 11.8519C11.8773 13.7977 14.2004 17.8359 17.1012 19.4061" stroke="#AD60FF" stroke-width="2.5" stroke-linecap="round"/>
<path d="M25.2607 11.0795C24.8023 11.0795 24.3951 11.0009 24.0391 10.8438C23.6849 10.6847 23.4065 10.4659 23.2038 10.1875C23.0012 9.90909 22.8989 9.58902 22.897 9.22727H24.4879C24.4898 9.33902 24.5239 9.43939 24.5902 9.52841C24.6584 9.61553 24.7512 9.68371 24.8686 9.73295C24.986 9.7822 25.1205 9.80682 25.272 9.80682C25.4179 9.80682 25.5466 9.78125 25.6584 9.73011C25.7701 9.67708 25.8572 9.60417 25.9197 9.51136C25.9822 9.41856 26.0125 9.3125 26.0107 9.19318C26.0125 9.07576 25.9766 8.97159 25.9027 8.88068C25.8307 8.78977 25.7294 8.71875 25.5987 8.66761C25.468 8.61648 25.3175 8.59091 25.147 8.59091H24.5561V7.5H25.147C25.3042 7.5 25.4425 7.47443 25.5618 7.4233C25.683 7.37216 25.7768 7.30114 25.843 7.21023C25.9112 7.11932 25.9444 7.01515 25.9425 6.89773C25.9444 6.78409 25.9169 6.68371 25.8601 6.59659C25.8033 6.50947 25.7237 6.44129 25.6214 6.39205C25.5211 6.3428 25.4046 6.31818 25.272 6.31818C25.1281 6.31818 24.9993 6.34375 24.8857 6.39489C24.7739 6.44602 24.6858 6.51705 24.6214 6.60795C24.5571 6.69886 24.5239 6.80303 24.522 6.92045H23.0107C23.0125 6.56439 23.1101 6.25 23.3033 5.97727C23.4983 5.70455 23.7654 5.49053 24.1044 5.33523C24.4434 5.17992 24.8326 5.10227 25.272 5.10227C25.7019 5.10227 26.0817 5.17519 26.4112 5.32102C26.7427 5.46686 27.0012 5.66761 27.1868 5.9233C27.3743 6.17708 27.4671 6.4678 27.4652 6.79545C27.469 7.12121 27.3572 7.38826 27.13 7.59659C26.9046 7.80492 26.6186 7.92803 26.272 7.96591V8.01136C26.7417 8.0625 27.0949 8.20644 27.3317 8.44318C27.5684 8.67803 27.6849 8.97348 27.6811 9.32955C27.683 9.67045 27.5807 9.97254 27.3743 10.2358C27.1697 10.4991 26.8847 10.7055 26.5192 10.8551C26.1555 11.0047 25.736 11.0795 25.2607 11.0795Z" fill="#AD60FF"/>
<path d="M19.4791 6.36364L20.0757 7.42188H20.1041L20.7078 6.36364H21.8087L20.722 8.18182L21.8513 10H20.722L20.1041 8.92045H20.0757L19.4578 10H18.3357L19.4507 8.18182L18.3712 6.36364H19.4791Z" fill="#AD60FF"/>
</svg>
