<svg width="32" height="32" viewBox="0 0 32 32" fill="none" xmlns="http://www.w3.org/2000/svg">
<path d="M7 27.5983C7.27921 26.2023 7.27796 23.4371 7.94806 21.4268C8.61815 19.4165 9.63119 16.9385 11.0458 15.5398L12.4364 16.3774C12.7156 17.6338 12.9973 21.4269 14.1195 23.11C14.9939 24.4212 16.3637 25.9152 18.047 27.5983" stroke="#00B8FF" stroke-width="2.5" stroke-linecap="round"/>
<path d="M9.88023 9.94801L10.2817 15.1677C10.3271 15.7568 10.8704 16.1783 11.4523 16.0759L11.7933 16.0158C12.1311 15.9563 12.4149 15.7278 12.545 15.4105L14.7838 9.95271C15.0701 9.25469 14.5098 8.50309 13.7591 8.57816L10.7778 8.87628C10.2371 8.93034 9.83856 9.40625 9.88023 9.94801Z" fill="#00B8FF" stroke="#00B8FF" stroke-width="2.5" stroke-linecap="round"/>
<circle cx="12.9506" cy="3.41122" r="2.80522" transform="rotate(14.3906 12.9506 3.41122)" fill="#00B8FF"/>
<path fill-rule="evenodd" clip-rule="evenodd" d="M26.2955 19.1179C26.2329 20.0763 25.9379 20.8479 25.4171 21.3919C24.8389 21.9958 24.0554 22.2437 23.2208 22.2352C22.0888 22.2236 21.342 21.6672 20.7752 21.1122C20.6359 20.9757 20.505 20.8372 20.3846 20.7089C20.2618 20.578 20.1518 20.4602 20.0425 20.3512C19.821 20.1303 19.6426 19.9878 19.4706 19.9123C19.1381 19.7665 18.6343 19.6888 18.0974 19.6634C17.5728 19.6385 17.0719 19.6656 16.7789 19.6973C16.7052 19.7052 16.6337 19.6961 16.5674 19.6736C16.5616 19.6717 16.5559 19.6691 16.5502 19.6669C16.5396 19.6629 16.529 19.659 16.5187 19.6543C16.4768 19.6351 16.438 19.6103 16.4026 19.5808C16.399 19.5778 16.3952 19.575 16.3916 19.5719C16.3844 19.5655 16.3778 19.5583 16.3709 19.5515C16.3649 19.5457 16.3586 19.5404 16.353 19.5343C16.3469 19.5277 16.3413 19.5208 16.3355 19.5139C16.3303 19.5078 16.325 19.5017 16.3201 19.4953C16.3141 19.4876 16.3086 19.4796 16.303 19.4715C16.2988 19.4654 16.2945 19.4593 16.2905 19.453C16.2753 19.429 16.2622 19.4036 16.2505 19.3772C16.2471 19.3694 16.2436 19.3618 16.2405 19.3538C16.2393 19.3506 16.2381 19.3474 16.2369 19.3441C16.232 19.3307 16.2273 19.3172 16.2233 19.3032C16.2149 19.2738 16.2095 19.2432 16.2058 19.2119C16.2051 19.2065 16.2036 19.2011 16.2031 19.1956L16.2031 19.193C16.2024 19.185 16.2025 19.177 16.2021 19.1689C16.2015 19.1577 16.2007 19.1466 16.2008 19.1356L16.2004 19.1338L16.2073 18.4606L16.2077 18.4584C16.2079 18.4475 16.2089 18.4366 16.2097 18.4255C16.2102 18.4173 16.2103 18.4091 16.2112 18.401L16.2112 18.3988C16.2118 18.3932 16.2134 18.3878 16.2142 18.3822C16.2187 18.351 16.2246 18.3205 16.2337 18.2912C16.2379 18.2775 16.2429 18.2642 16.248 18.251C16.2494 18.2477 16.2505 18.2443 16.2518 18.241C16.255 18.2333 16.2589 18.2259 16.2624 18.2183C16.2746 18.192 16.2881 18.1667 16.3038 18.1429C16.3079 18.1368 16.3125 18.131 16.3168 18.1251C16.3226 18.117 16.3281 18.1088 16.3343 18.1011C16.3393 18.0948 16.3448 18.0889 16.3501 18.0829C16.3552 18.0771 16.3601 18.0711 16.3655 18.0655L16.3709 18.0599C16.3757 18.0549 16.3812 18.0507 16.3862 18.046C16.3933 18.0393 16.4 18.0323 16.4074 18.026C16.411 18.023 16.4149 18.0203 16.4186 18.0174C16.4545 17.9886 16.4939 17.9646 16.5361 17.9463C16.5465 17.9418 16.5572 17.9381 16.5679 17.9343C16.5737 17.9323 16.5793 17.9298 16.5852 17.9279C16.6519 17.9069 16.7237 17.8996 16.7971 17.909C17.0894 17.9467 17.5897 17.984 18.1147 17.9698C18.6519 17.9553 19.1572 17.8879 19.4926 17.7489C19.6661 17.677 19.8474 17.5381 20.0734 17.3218C20.1849 17.215 20.2973 17.0995 20.4227 16.9711C20.5457 16.8453 20.6794 16.7095 20.8215 16.5759C21.3995 16.0325 22.1574 15.4915 23.2894 15.503C24.124 15.5115 24.9023 15.7753 25.4681 16.3909C25.9776 16.9453 26.2568 17.7226 26.3 18.6818C26.305 18.8226 26.3021 18.984 26.2955 19.1179Z" fill="#00B8FF"/>
<path d="M20.4651 14.4179C18.8135 13.9229 15.9007 12.454 14.8181 9.79175" stroke="#00B8FF" stroke-width="2.5" stroke-linecap="round"/>
<path d="M10.3662 9.92944C11.3506 12.1127 13.9574 16.644 17.2123 18.4059" stroke="#00B8FF" stroke-width="2.5" stroke-linecap="round"/>
</svg>
