<svg width="32" height="32" viewBox="0 0 32 32" fill="none" xmlns="http://www.w3.org/2000/svg">
<path d="M16 8C16 6.89543 16.9042 5.97989 17.9867 6.19934C18.6152 6.32674 19.2315 6.51461 19.8268 6.7612C21.0401 7.26375 22.1425 8.00035 23.0711 8.92893C23.9997 9.85752 24.7362 10.9599 25.2388 12.1732C25.4854 12.7685 25.6733 13.3848 25.8007 14.0133C26.0201 15.0958 25.1046 16 24 16L18 16C16.8954 16 16 15.1046 16 14V8Z" fill="#00B8FF"/>
<path d="M24.4273 18.2581C25.1077 18.4404 25.519 19.1441 25.2516 19.7958C24.7504 21.0173 24.0106 22.1315 23.0711 23.0711C21.8298 24.3123 20.2837 25.2049 18.5882 25.6593C16.8926 26.1136 15.1074 26.1136 13.4118 25.6593C11.7163 25.2049 10.1702 24.3123 8.92893 23.0711C7.6877 21.8298 6.79506 20.2837 6.34074 18.5882C5.88642 16.8926 5.88642 15.1074 6.34074 13.4118C6.79506 11.7163 7.6877 10.1702 8.92893 8.92893C9.86848 7.98939 10.9827 7.24958 12.2042 6.74841C12.8559 6.48104 13.5596 6.89231 13.7419 7.5727C13.9242 8.25309 13.5136 8.94279 12.8742 9.23836C12.081 9.60509 11.3553 10.11 10.7326 10.7326C9.80803 11.6573 9.14309 12.809 8.80466 14.072C8.46623 15.3351 8.46623 16.6649 8.80466 17.928C9.14309 19.191 9.80803 20.3427 10.7326 21.2674C11.6573 22.192 12.809 22.8569 14.072 23.1953C15.3351 23.5338 16.6649 23.5338 17.928 23.1953C19.191 22.8569 20.3427 22.192 21.2674 21.2674C21.89 20.6447 22.3949 19.919 22.7616 19.1258C23.0572 18.4864 23.7469 18.0758 24.4273 18.2581Z" fill="#00B8FF"/>
</svg>
