<svg width="32" height="32" viewBox="0 0 32 32" fill="none" xmlns="http://www.w3.org/2000/svg">
<path fill-rule="evenodd" clip-rule="evenodd" d="M18.5497 12.8694C19.1756 13.281 19.5806 13.7877 19.7395 14.3691C19.9159 15.0147 19.7672 15.6712 19.4237 16.2661C18.9578 17.0732 18.2775 17.3956 17.671 17.5895C17.5219 17.6372 17.3747 17.678 17.2389 17.7152C17.1002 17.7531 16.9757 17.7869 16.8574 17.8235C16.6176 17.8978 16.4485 17.9712 16.3277 18.0656C16.094 18.2481 15.8374 18.5795 15.6028 18.9546C15.3736 19.3211 15.1893 19.6906 15.0923 19.9127C15.0679 19.9686 15.0327 20.0163 14.9906 20.0553C14.9869 20.0587 14.9829 20.0618 14.9791 20.065C14.972 20.0711 14.9651 20.0773 14.9578 20.0828C14.9278 20.1055 14.8952 20.1238 14.8609 20.1379C14.8573 20.1393 14.8539 20.141 14.8504 20.1424C14.8431 20.1451 14.8355 20.1471 14.8281 20.1494C14.8218 20.1515 14.8156 20.1539 14.8091 20.1557C14.8022 20.1575 14.7952 20.1589 14.7882 20.1604C14.782 20.1618 14.7757 20.1633 14.7694 20.1644C14.7617 20.1657 14.754 20.1666 14.7463 20.1675C14.7404 20.1681 14.7345 20.1689 14.7286 20.1694C14.7062 20.1711 14.6836 20.1708 14.6609 20.169C14.6543 20.1685 14.6477 20.1681 14.641 20.1673C14.6383 20.1669 14.6357 20.1665 14.633 20.1661C14.6219 20.1645 14.6108 20.1627 14.5997 20.1602C14.5763 20.155 14.5533 20.1471 14.5305 20.1378C14.5266 20.1362 14.5223 20.1353 14.5184 20.1336L14.5166 20.1325C14.5109 20.13 14.5055 20.1268 14.4998 20.124C14.492 20.1201 14.4841 20.1165 14.4766 20.1122L14.4753 20.1118L14.0206 19.8493L14.0193 19.8482C14.0119 19.8439 14.0049 19.8389 13.9978 19.8342C13.9924 19.8306 13.9868 19.8275 13.9817 19.8237L13.9802 19.8229C13.9767 19.8202 13.9736 19.817 13.9701 19.8143C13.9507 19.7992 13.9324 19.7833 13.9162 19.7656C13.9086 19.7573 13.9016 19.7486 13.8947 19.7399C13.893 19.7377 13.8911 19.7356 13.8894 19.7333C13.8855 19.7281 13.882 19.7225 13.8783 19.7171C13.8653 19.6983 13.8536 19.6789 13.8438 19.6585C13.8413 19.6532 13.8392 19.6478 13.8369 19.6424C13.8338 19.6352 13.8305 19.6281 13.8277 19.6207C13.8255 19.6147 13.8237 19.6085 13.8217 19.6024C13.8199 19.5965 13.8178 19.5907 13.8162 19.5847L13.8145 19.5787C13.8131 19.5733 13.8125 19.5678 13.8113 19.5624C13.8096 19.5548 13.8076 19.5473 13.8063 19.5396C13.8057 19.5358 13.8055 19.532 13.805 19.5282C13.8 19.4915 13.7995 19.4541 13.8042 19.4168C13.8053 19.4076 13.8072 19.3986 13.8089 19.3894C13.8099 19.3845 13.8105 19.3795 13.8116 19.3746C13.8243 19.3187 13.8484 19.2645 13.8845 19.2154C14.0284 19.0203 14.2562 18.676 14.459 18.2943C14.6665 17.9036 14.8252 17.5156 14.8665 17.222C14.8878 17.0701 14.8668 16.887 14.8113 16.6422C14.7838 16.5215 14.7509 16.3967 14.7144 16.2577C14.6786 16.1214 14.6404 15.9736 14.6072 15.8206C14.4718 15.1984 14.4109 14.448 14.8768 13.641C15.2203 13.046 15.7146 12.589 16.3619 12.419C16.9447 12.266 17.5859 12.3632 18.2552 12.6993C18.3529 12.7496 18.4614 12.8134 18.5497 12.8694Z" fill="#AD60FF"/>
<circle cx="12.7694" cy="16.8535" r="1.09381" transform="rotate(30 12.7694 16.8535)" fill="#AD60FF"/>
<path d="M26 16C26 21.5228 21.5228 26 16 26C10.4772 26 6 21.5228 6 16C6 10.4772 10.4772 6 16 6C21.5228 6 26 10.4772 26 16ZM8.5 16C8.5 20.1421 11.8579 23.5 16 23.5C20.1421 23.5 23.5 20.1421 23.5 16C23.5 11.8579 20.1421 8.5 16 8.5C11.8579 8.5 8.5 11.8579 8.5 16Z" fill="#AD60FF"/>
</svg>
