<svg width="70" height="26" viewBox="0 0 70 26" fill="none" xmlns="http://www.w3.org/2000/svg">
<path d="M20.1889 0.269097L12.0993 4.10114C11.7247 4.27826 11.3903 4.53713 11.1261 4.86073L0.668776 17.5048C-0.0435391 18.3665 -0.200703 19.569 0.264141 20.5908L1.96968 24.3275C2.43452 25.3494 3.44113 26 4.54472 26H48.5085C48.9232 26 49.3312 25.908 49.7057 25.7309L57.7953 21.8988C58.1699 21.7217 58.5043 21.4628 58.7685 21.1392L69.2258 8.49521C69.9382 7.63343 70.0953 6.43102 69.6305 5.40914L67.9249 1.67247C67.4601 0.650597 66.4535 0 65.3499 0H21.3861C20.9714 0 20.5634 0.0919719 20.1889 0.269097Z" fill="url(#paint0_linear_3025_6466)"/>
<path d="M24.8066 12.4854H25.4697C26.0531 12.4854 26.4473 12.3714 26.6523 12.1436C26.8574 11.9111 26.96 11.4873 26.96 10.8721C26.96 10.5212 26.9463 10.25 26.9189 10.0586C26.8916 9.86719 26.8278 9.69401 26.7275 9.53906C26.6273 9.37956 26.4769 9.27018 26.2764 9.21094C26.0804 9.15169 25.8138 9.12207 25.4766 9.12207H24.8066V12.4854ZM22.7422 19V7.66602H26.0029C27.9352 7.66602 28.9014 8.73926 28.9014 10.8857C28.9014 11.9385 28.637 12.7109 28.1084 13.2031C27.5798 13.6908 26.8346 13.9346 25.873 13.9346H24.8066V19H22.7422ZM33.4664 12.5059H33.9654C34.5761 12.5059 35.009 12.376 35.2643 12.1162C35.524 11.8564 35.6539 11.4121 35.6539 10.7832C35.6539 10.1771 35.5423 9.74414 35.3189 9.48438C35.0956 9.22005 34.6855 9.08789 34.0885 9.08789H33.4664V12.5059ZM31.402 19V7.66602H33.9996C34.5966 7.66602 35.1093 7.71615 35.5377 7.81641C35.9661 7.91211 36.3375 8.07617 36.652 8.30859C36.971 8.53646 37.2079 8.84863 37.3629 9.24512C37.5224 9.63704 37.6021 10.1178 37.6021 10.6875C37.6021 11.3984 37.4951 11.9795 37.2809 12.4307C37.0712 12.8818 36.7226 13.21 36.235 13.415L37.8072 19H35.7359L34.3824 13.8252H33.4664V19H31.402ZM43.6506 19.1367C42.4839 19.1367 41.6477 18.82 41.1418 18.1865C40.6359 17.5531 40.383 16.6257 40.383 15.4043V11.2207C40.383 10.6191 40.44 10.0973 40.5539 9.65527C40.6678 9.21322 40.8501 8.8304 41.1008 8.50684C41.356 8.18327 41.6955 7.94173 42.1193 7.78223C42.5432 7.61816 43.0536 7.53613 43.6506 7.53613C44.8127 7.53613 45.6467 7.84831 46.1525 8.47266C46.663 9.09701 46.9182 10.013 46.9182 11.2207V15.4043C46.9182 15.9967 46.8589 16.5186 46.7404 16.9697C46.6265 17.4163 46.4419 17.806 46.1867 18.1387C45.9361 18.4668 45.5988 18.7152 45.175 18.8838C44.7512 19.0524 44.243 19.1367 43.6506 19.1367ZM43.1311 17.5166C43.2769 17.5758 43.4501 17.6055 43.6506 17.6055C43.8511 17.6055 44.022 17.5758 44.1633 17.5166C44.3046 17.4574 44.4162 17.3799 44.4982 17.2842C44.5848 17.1885 44.6509 17.0632 44.6965 16.9082C44.7466 16.7533 44.7785 16.5983 44.7922 16.4434C44.8104 16.2884 44.8195 16.1038 44.8195 15.8896V10.7422C44.8195 10.4688 44.8059 10.2409 44.7785 10.0586C44.7512 9.8763 44.6965 9.7054 44.6145 9.5459C44.537 9.38184 44.4185 9.26107 44.259 9.18359C44.0995 9.10156 43.8967 9.06055 43.6506 9.06055C43.4045 9.06055 43.1994 9.10156 43.0354 9.18359C42.8758 9.26107 42.7574 9.38184 42.6799 9.5459C42.6024 9.7054 42.55 9.8763 42.5227 10.0586C42.4953 10.2409 42.4816 10.4688 42.4816 10.7422V15.8896C42.4816 16.1038 42.4885 16.2884 42.5021 16.4434C42.5204 16.5983 42.5523 16.7533 42.5979 16.9082C42.648 17.0632 42.7141 17.1885 42.7961 17.2842C42.8781 17.3799 42.9898 17.4574 43.1311 17.5166Z" fill="white"/>
<defs>
<linearGradient id="paint0_linear_3025_6466" x1="0" y1="0" x2="53.0163" y2="45.6163" gradientUnits="userSpaceOnUse">
<stop stop-color="#00BBFF"/>
<stop offset="1" stop-color="#0022FF"/>
</linearGradient>
</defs>
</svg>
