<svg width="30" height="31" viewBox="0 0 30 31" fill="none" xmlns="http://www.w3.org/2000/svg">
<rect x="16.5781" y="10.5" width="9" height="9" rx="3" stroke="#86A7D2" stroke-opacity="0.5" stroke-width="2"/>
<rect x="4.42188" y="10.5" width="9" height="9" rx="3" stroke="#86A7D2" stroke-opacity="0.5" stroke-width="2"/>
<path d="M19.4211 29.5C22.1655 29.5 23.5378 29.5 24.6366 29.1C26.4785 28.4297 27.9297 26.9785 28.6 25.1366C29 24.0378 29 22.6655 29 19.9211M10.5789 29.5C7.83449 29.5 6.46225 29.5 5.36345 29.1C3.52141 28.4297 2.07038 26.9785 1.39993 25.1366C1 24.0378 1 22.6655 1 19.9211M10.5789 1.5C7.83449 1.5 6.46225 1.5 5.36345 1.89993C3.52141 2.57037 2.07038 4.02142 1.39993 5.86345C1 6.96226 1 8.33448 1 11.079M19.4211 1.5C22.1655 1.5 23.5378 1.5 24.6366 1.89993C26.4785 2.57037 27.9297 4.02142 28.6 5.86345C29 6.96226 29 8.33448 29 11.079" stroke="#86A7D2" stroke-opacity="0.5" stroke-width="2" stroke-linecap="round" stroke-linejoin="round"/>
</svg>
