<svg width="200" height="80" viewBox="0 0 200 80" fill="none" xmlns="http://www.w3.org/2000/svg">
<g clip-path="url(#clip0_931_15497)">
<path d="M80.5215 38.1204H77.9492L76.1343 27.5597H79.0781L79.8784 34.1619L82.9509 27.5597H84.8515L85.9662 34.1619L88.7529 27.5597H91.7253L86.7379 38.1204H84.1799L83.2653 31.9755L80.5215 38.1204ZM95.8741 38.2919C94.2638 38.2919 93.0111 37.7584 92.1157 36.6914C91.2199 35.6244 90.8867 34.3048 91.1153 32.7329C91.3534 31.1895 92.0679 29.9081 93.2589 28.8887C94.4496 27.8788 95.8312 27.3739 97.4032 27.3739C99.0037 27.3739 100.256 27.9122 101.162 28.9887C102.057 30.0558 102.391 31.361 102.162 32.9044C101.933 34.4382 101.223 35.7196 100.033 36.7485C98.8417 37.7775 97.4555 38.2919 95.8741 38.2919ZM94.345 34.8765C94.7737 35.3909 95.3739 35.6482 96.1456 35.6482C96.9173 35.6482 97.627 35.3814 98.2749 34.8479C98.9131 34.3048 99.2896 33.6189 99.4039 32.79C99.5276 31.9898 99.3704 31.3276 98.9323 30.8036C98.5036 30.2797 97.9034 30.0177 97.1317 30.0177C96.3216 30.0177 95.6071 30.294 94.9881 30.8465C94.3593 31.3896 93.9877 32.0755 93.8734 32.9044C93.7591 33.7046 93.9163 34.362 94.345 34.8765ZM112.219 31.0895C112.038 32.6519 111.252 33.7094 109.861 34.262L111.548 38.1204H108.489L107.146 34.6192H106.103L105.588 38.1204H102.916L104.488 27.5597H108.747C110.023 27.5597 110.952 27.9027 111.533 28.5886C112.115 29.2746 112.343 30.1082 112.219 31.0895ZM108.518 30.0034H106.803L106.46 32.2899H107.861C108.804 32.2899 109.342 31.8945 109.475 31.1037C109.523 30.7703 109.461 30.5035 109.29 30.3035C109.128 30.1034 108.871 30.0034 108.518 30.0034ZM120.753 38.1204H112.936L114.508 27.5597H117.195L115.995 35.5767H121.125L120.753 38.1204ZM126.41 38.1204H121.98L123.552 27.5597H127.567C129.282 27.5597 130.554 28.0456 131.383 29.0173C132.221 29.97 132.531 31.28 132.312 32.9472C132.093 34.5668 131.469 35.8339 130.44 36.7485C129.411 37.6631 128.067 38.1204 126.41 38.1204ZM125.838 30.1177L125.024 35.5624H126.524C127.41 35.5624 128.11 35.2909 128.625 34.7479C129.139 34.2048 129.454 33.5331 129.568 32.7329C129.682 31.9612 129.568 31.3324 129.225 30.8465C128.882 30.3606 128.339 30.1177 127.596 30.1177H125.838Z" fill="white"/>
<path d="M58.8884 41.8497H62.9469C64.3188 41.8497 65.2906 42.207 65.8622 42.9215C66.4433 43.636 66.6625 44.5173 66.5196 45.5653C66.3766 46.6799 65.9241 47.5469 65.1619 48.1662C64.3998 48.7854 63.3327 49.0951 61.9609 49.0951H60.4889L59.9887 52.4105H57.3164L58.8884 41.8497ZM63.7758 45.451C63.8234 45.108 63.752 44.8317 63.5614 44.6221C63.3804 44.403 63.1041 44.2934 62.7325 44.2934H61.2034L60.8462 46.6942H61.9609C63.0755 46.6942 63.6805 46.2798 63.7758 45.451ZM75.2108 52.4105H72.4812L72.1669 50.4812H68.8087L67.8798 52.4105H65.1217L70.5379 41.8497H73.0243L75.2108 52.4105ZM71.8525 48.1662L71.3239 45.0365L69.8376 48.1662H71.8525ZM80.754 52.4105H76.3239L77.8959 41.8497H81.9115C83.6264 41.8497 84.8983 42.3356 85.7271 43.3074C86.5658 44.2601 86.8753 45.5701 86.656 47.2373C86.4371 48.8569 85.8129 50.124 84.784 51.0386C83.755 51.9532 82.4117 52.4105 80.754 52.4105ZM80.1824 44.4077L79.3678 49.8525H80.8683C81.7543 49.8525 82.4546 49.5809 82.969 49.0379C83.4835 48.4948 83.7979 47.8232 83.9122 47.0229C84.0265 46.2512 83.9122 45.6224 83.5693 45.1366C83.2263 44.6507 82.6832 44.4077 81.9401 44.4077H80.1824ZM95.0916 52.4105H87.4747L89.0467 41.8497H96.6779L96.3063 44.322H91.3618L91.1331 45.8797H95.7061L95.3488 48.3376H90.7758L90.5186 49.9382H95.4489L95.0916 52.4105ZM104.711 52.4105H96.8945L98.4664 41.8497H101.153L99.9527 49.8667H105.083L104.711 52.4105ZM118.367 45.3795C118.186 46.9419 117.4 47.9995 116.009 48.552L117.696 52.4105H114.637L113.294 48.9093H112.251L111.736 52.4105H109.064L110.636 41.8497H114.895C116.171 41.8497 117.1 42.1927 117.681 42.8786C118.262 43.5646 118.491 44.3982 118.367 45.3795ZM114.666 44.2934H112.951L112.608 46.5799H114.009C114.952 46.5799 115.49 46.1845 115.623 45.3938C115.671 45.0603 115.609 44.7936 115.438 44.5935C115.276 44.3934 115.018 44.2934 114.666 44.2934ZM128.159 52.4105H125.429L125.115 50.4812H121.756L120.827 52.4105H118.069L123.486 41.8497H125.972L128.159 52.4105ZM124.8 48.1662L124.272 45.0365L122.785 48.1662H124.8ZM130.395 52.4105L131.582 44.422H128.652L129.038 41.8497H137.584L137.198 44.422H134.282L133.082 52.4105H130.395ZM137.255 52.4105L138.826 41.8497H141.513L139.941 52.4105H137.255ZM149.544 47.5802L150.401 41.8497H153.031L151.459 52.4105H149.444L145.486 46.7514L144.642 52.4105H142.027L143.599 41.8497H145.514L149.544 47.5802ZM158.657 52.5677C157.037 52.5677 155.76 52.0389 154.827 50.9814C153.903 49.9144 153.56 48.5615 153.798 46.9229C154.026 45.3414 154.727 44.0695 155.898 43.1073C157.089 42.145 158.495 41.6639 160.114 41.6639C161.791 41.6639 163.13 42.1879 164.13 43.2359L162.272 45.1366C161.672 44.5078 160.896 44.1934 159.943 44.1934C159.057 44.1934 158.29 44.4697 157.642 45.0222C156.994 45.5843 156.613 46.2941 156.499 47.1515C156.394 47.9423 156.556 48.6187 156.985 49.1808C157.432 49.7429 158.09 50.0239 158.957 50.0239C159.948 50.0239 160.791 49.7191 161.486 49.1093L161.629 48.2519H159.228L159.571 45.9654L164.387 45.9797L163.715 50.5813C162.191 51.9055 160.505 52.5677 158.657 52.5677Z" fill="white"/>
<path d="M43.5968 47.8916C43.5968 43.1126 46.1715 38.9502 49.9165 36.6378C49.6825 36.6378 49.4484 36.6378 49.2143 36.6378C49.1363 36.6378 49.1363 36.6378 49.0583 36.6378C48.9022 36.6378 48.8242 36.6378 48.6682 36.6378C48.5902 36.6378 48.5121 36.6378 48.4341 36.6378H48.3561C42.6605 36.792 37.5111 40.4918 35.6386 45.8104L35.2485 46.8125C38.2914 55.1372 46.3275 61.0724 55.7681 61.0724C56.0021 61.0724 56.1582 61.0724 56.3923 61.0724C49.2923 60.8412 43.5968 55.0601 43.5968 47.8916Z" fill="white"/>
<path d="M48.3559 35.8675C48.5119 35.8675 48.5899 35.8675 48.746 35.8675C48.902 35.8675 48.98 35.8675 49.1361 35.8675C48.3559 35.8675 49.9163 35.8675 49.1361 35.8675C53.0371 35.8675 59.2824 38.0337 62.6331 37.457C65.9838 36.8803 69.7406 34.8442 70.0452 29.1161C70.3498 23.388 64.8669 20.5742 64.8669 20.5742C64.8669 20.5742 61.7192 18.6648 55.5256 18.5643C44.7587 18.5643 36.1066 25.7699 34.3121 35.8675C34.078 37.1007 34 38.3341 34 39.5673C34 41.6485 34.3121 43.6526 34.8582 45.5026C36.8088 40.0298 42.1142 36.0216 48.3559 35.8675Z" fill="white"/>
</g>
<defs>
<clipPath id="clip0_931_15497">
<rect width="132" height="42.8718" fill="white" transform="translate(34 18.5641)"/>
</clipPath>
</defs>
</svg>
