<svg width="42" height="42" viewBox="0 0 42 42" fill="none" xmlns="http://www.w3.org/2000/svg">
<rect width="42" height="42" rx="10" fill="#006EFF"/>
<path d="M25.1748 8.33329C23.8614 7.90069 22.458 7.66663 20.9998 7.66663C13.636 7.66663 7.6665 13.6362 7.6665 21C7.6665 28.3637 13.636 34.3333 20.9998 34.3333C28.3636 34.3333 34.3332 28.3637 34.3332 21C34.3332 19.6064 34.1193 18.2627 33.7228 17" stroke="white" stroke-width="1.5" stroke-linecap="round"/>
<path d="M27.6668 21C27.6668 24.6819 24.682 27.6667 21.0002 27.6667C17.3183 27.6667 14.3335 24.6819 14.3335 21C14.3335 17.3181 17.3183 14.3334 21.0002 14.3334" stroke="white" stroke-width="1.5" stroke-linecap="round"/>
<path d="M31 11L21 21M31 11V7.66663M31 11H34.3333" stroke="white" stroke-width="1.5" stroke-linecap="round"/>
</svg>
