<svg width="40" height="40" viewBox="0 0 40 40" fill="none" xmlns="http://www.w3.org/2000/svg">
<path d="M4.1665 20.0001C4.1665 12.9505 4.1665 9.42575 6.16312 7.08801C6.44664 6.75605 6.7558 6.44688 7.08777 6.16336C9.4255 4.16675 12.9503 4.16675 19.9998 4.16675C27.0493 4.16675 30.5742 4.16675 32.9118 6.16336C33.2438 6.44688 33.553 6.75605 33.8365 7.08801C35.8332 9.42575 35.8332 12.9505 35.8332 20.0001C35.8332 27.0496 35.8332 30.5744 33.8365 32.9121C33.553 33.2441 33.2438 33.5532 32.9118 33.8367C30.5742 35.8334 27.0493 35.8334 19.9998 35.8334C12.9503 35.8334 9.4255 35.8334 7.08777 33.8367C6.7558 33.5532 6.44664 33.2441 6.16312 32.9121C4.1665 30.5744 4.1665 27.0496 4.1665 20.0001Z" stroke="#006FFF" stroke-width="1.5"/>
<path d="M13.5485 19.3295L20.2135 10.3465C20.7348 9.64397 21.7118 10.0812 21.7118 11.0171V17.97C21.7118 18.5305 22.095 18.985 22.5677 18.985H25.8093C26.5458 18.985 26.9383 20.0148 26.4518 20.6705L19.7868 29.6535C19.2655 30.356 18.2885 29.9188 18.2885 28.983V22.03C18.2885 21.4695 17.9053 21.015 17.4327 21.015H14.191C13.4546 21.015 13.062 19.9852 13.5485 19.3295Z" stroke="#006FFF" stroke-width="1.5"/>
</svg>
