<svg width="42" height="42" viewBox="0 0 42 42" fill="none" xmlns="http://www.w3.org/2000/svg">
<rect width="42" height="42" rx="10" fill="#0022FF"/>
<path d="M27.5 10.75C27.5 11.9926 26.4926 13 25.25 13C24.0074 13 23 11.9926 23 10.75C23 9.50736 24.0074 8.5 25.25 8.5C26.4926 8.5 27.5 9.50736 27.5 10.75Z" stroke="white" stroke-width="1.5"/>
<path d="M25.0403 25L26.4558 24.181C28.0679 23.2485 28.8739 22.7821 28.9828 22.1176C28.9999 22.0138 29.0042 21.9087 28.9959 21.8041C28.9433 21.1344 28.1786 20.6184 26.6493 19.5861L19.5888 14.8204C16.8158 12.9487 16.1778 9.53671 18.1265 7" stroke="white" stroke-width="1.5"/>
<path d="M19.5889 14.8204C15.8388 18.5704 14 28.9486 14 34.0005M19.5889 14.8204C16.8158 12.9487 16.1778 9.53671 18.1265 7M19.5889 14.8204L23.5588 17.5M23.5588 17.5L26.6494 19.5861C28.1786 20.6184 28.9433 21.1344 28.996 21.8041C29.0042 21.9087 28.9999 22.0138 28.9828 22.1176C28.8739 22.7821 28.0679 23.2485 26.4559 24.181L25.0403 25M23.5588 17.5C22.3546 19.0587 21.5246 20.5311 20.9039 21.8413C20.2454 23.2314 19.9162 23.9265 19.9768 24.7198M26.0003 34.0005C24.5402 32.2971 23.0386 29.95 21.5753 27.7867C20.5499 26.2711 20.0374 25.5133 19.9768 24.7198M19.9768 24.7198L15.5 23.5" stroke="white" stroke-width="1.5" stroke-linecap="round"/>
</svg>
