<svg width="40" height="40" viewBox="0 0 40 40" fill="none" xmlns="http://www.w3.org/2000/svg">
<path d="M23.9591 24.7996C20.3246 25.5296 18.7498 25.6252 15.741 27.0921L13.4582 29.4502C13.2142 29.6942 12.8188 29.6942 12.5748 29.4502L11.2498 28.1252C11.0059 27.8812 11.0059 27.4857 11.2498 27.2419L13.5327 24.8836C14.9998 21.8752 15.2819 20.471 16.0092 16.8492M28.1445 22.3807C24.9735 25.552 20.2278 25.9475 17.5447 23.2641C14.8615 20.5807 15.257 15.8347 18.428 12.6635C21.599 9.49232 26.3446 9.09682 29.0279 11.7801C31.711 14.4635 31.3155 19.2095 28.1445 22.3807Z" stroke="#006FFF" stroke-width="1.5" stroke-linecap="round" stroke-linejoin="round"/>
<path d="M25.1916 15.6052L25.1827 15.6141M21.4327 19.3754L21.4238 19.3843M25.1827 19.3754L25.1738 19.3843M21.4416 15.6156L21.4327 15.6244" stroke="#006FFF" stroke-width="1.5" stroke-linecap="round" stroke-linejoin="round"/>
<path d="M25.4168 35.8139C28.5207 35.8139 30.0727 35.8139 31.3153 35.3615C33.3985 34.6034 35.0397 32.9622 35.7978 30.879C36.2502 29.6364 36.2502 28.0844 36.2502 24.9805M15.4168 35.8139C12.313 35.8139 10.761 35.8139 9.51835 35.3615C7.4351 34.6034 5.79405 32.9622 5.0358 30.879C4.5835 29.6364 4.5835 28.0844 4.5835 24.9805M15.4168 4.14722C12.313 4.14722 10.761 4.14722 9.51835 4.59952C7.4351 5.35775 5.79405 6.99882 5.0358 9.08207C4.5835 10.3248 4.5835 11.8767 4.5835 14.9805M25.4168 4.14722C28.5207 4.14722 30.0727 4.14722 31.3153 4.59952C33.3985 5.35775 35.0397 6.99882 35.7978 9.08207C36.2502 10.3248 36.2502 11.8767 36.2502 14.9805" stroke="#006FFF" stroke-width="1.5" stroke-linecap="round" stroke-linejoin="round"/>
</svg>
