<svg width="100" height="100" viewBox="0 0 100 100" fill="none" xmlns="http://www.w3.org/2000/svg">
<path d="M90.0001 48.1219V31.0169C90.0001 25.4847 85.5229 21 80.0001 21H20.0001C14.4772 21 10.0001 25.4847 10.0001 31.0169V56.0592C10.0001 61.5914 14.4772 66.0761 20.0001 66.0761H57.5733" stroke="#86A7D2" stroke-width="1.93548" stroke-linecap="round"/>
<path d="M62.7395 75.4162H36.789M10.4061 68.5127C11.7626 72.5295 15.5094 75.4162 19.919 75.4162H27.1476" stroke="#86A7D2" stroke-width="1.93548" stroke-linecap="round"/>
<path d="M61.5514 42.282C62.3201 42.7737 62.3201 43.8966 61.5514 44.3882L45.3246 54.7657C44.4925 55.2978 43.4011 54.7002 43.4011 53.7126L43.4011 32.9576C43.4011 31.97 44.4925 31.3724 45.3246 31.9045L61.5514 42.282Z" stroke="#86A7D2" stroke-width="1.93548"/>
<circle cx="32.132" cy="75.2133" r="4.67005" stroke="#86A7D2" stroke-width="1.93548"/>
<circle cx="77.4112" cy="62.8274" r="12.5888" stroke="#86A7D2" stroke-width="1.93548"/>
<path d="M77.4113 59.5525L77.4113 67.6743" stroke="#86A7D2" stroke-width="1.93548" stroke-linecap="round"/>
<path d="M72.9442 62.0153L76.9693 57.9903C77.2134 57.7462 77.6091 57.7462 77.8532 57.9903L81.8782 62.0153" stroke="#86A7D2" stroke-width="1.93548" stroke-linecap="round"/>
</svg>
