<svg width="32" height="32" viewBox="0 0 32 32" fill="none" xmlns="http://www.w3.org/2000/svg">
<path d="M20.6667 20.0001L23.3333 22.6668M22 15.3335C22 12.0198 19.3137 9.3335 16 9.3335C12.6863 9.3335 10 12.0198 10 15.3335C10 18.6472 12.6863 21.3335 16 21.3335C19.3137 21.3335 22 18.6472 22 15.3335Z" stroke="#00B8FF" stroke-width="2" stroke-linecap="round" stroke-linejoin="round"/>
<path d="M20 28.6668C22.4831 28.6668 23.7247 28.6668 24.7188 28.305C26.3854 27.6984 27.6983 26.3855 28.3048 24.7189C28.6667 23.7248 28.6667 22.4832 28.6667 20.0002M12 28.6668C9.51696 28.6668 8.27541 28.6668 7.28125 28.305C5.61465 27.6984 4.30181 26.3855 3.69521 24.7189C3.33337 23.7248 3.33337 22.4832 3.33337 20.0002M12 3.3335C9.51696 3.3335 8.27541 3.3335 7.28125 3.69534C5.61465 4.30192 4.30181 5.61478 3.69521 7.28138C3.33337 8.27554 3.33337 9.51707 3.33337 12.0002M20 3.3335C22.4831 3.3335 23.7247 3.3335 24.7188 3.69534C26.3854 4.30192 27.6983 5.61478 28.3048 7.28138C28.6667 8.27554 28.6667 9.51707 28.6667 12.0002" stroke="#00B8FF" stroke-width="2" stroke-linecap="round" stroke-linejoin="round"/>
</svg>
