<svg width="18" height="18" viewBox="0 0 18 18" fill="none" xmlns="http://www.w3.org/2000/svg">
<path d="M9.52304 2.625H8.47724C7.94129 2.625 7.67331 2.625 7.43299 2.709C7.28623 2.76029 7.14833 2.83409 7.02425 2.92775C6.82104 3.08112 6.6724 3.30408 6.37512 3.75C6.22287 3.97839 5.99844 4.31503 5.90899 4.40903C5.68734 4.64195 5.39671 4.7975 5.07995 4.85272C4.95212 4.875 4.81487 4.875 4.54039 4.875C3.80533 4.875 3.43781 4.875 3.13729 4.96007C2.38554 5.17287 1.79799 5.76041 1.58519 6.51217C1.50012 6.81268 1.50012 7.18021 1.50012 7.91528V10.875C1.50012 12.9963 1.50012 14.0569 2.15913 14.716C2.81814 15.375 3.87881 15.375 6.00012 15.375H12.0001C14.1214 15.375 15.1821 15.375 15.8411 14.716C16.5001 14.0569 16.5001 12.9963 16.5001 10.875V7.91528C16.5001 7.18021 16.5001 6.81268 16.4151 6.51217C16.2022 5.76041 15.6147 5.17287 14.863 4.96007C14.5624 4.875 14.1949 4.875 13.4599 4.875C13.1854 4.875 13.0481 4.875 12.9203 4.85272C12.6035 4.7975 12.3129 4.64195 12.0913 4.40903C12.0018 4.31502 11.7774 3.97838 11.6251 3.75C11.3278 3.30408 11.1792 3.08112 10.976 2.92775C10.8519 2.83409 10.714 2.76029 10.5673 2.709C10.327 2.625 10.059 2.625 9.52304 2.625Z" stroke="white" stroke-linecap="round" stroke-linejoin="round"/>
<path d="M12.0001 9.75C12.0001 11.4068 10.657 12.75 9.00014 12.75C7.34327 12.75 6.00012 11.4068 6.00012 9.75C6.00012 8.09317 7.34327 6.75 9.00014 6.75C10.657 6.75 12.0001 8.09317 12.0001 9.75Z" stroke="white" stroke-linecap="round" stroke-linejoin="round"/>
<path d="M14.2501 7.125V7.1325" stroke="white" stroke-linecap="round" stroke-linejoin="round"/>
</svg>
