<svg width="32" height="32" viewBox="0 0 32 32" fill="none" xmlns="http://www.w3.org/2000/svg">
<rect width="32" height="32" rx="16" fill="#00B8FF"/>
<path d="M21.625 11.125L21.1602 18.6438C21.0414 20.5648 20.9821 21.5253 20.5006 22.2159C20.2625 22.5573 19.956 22.8455 19.6005 23.062C18.8816 23.5 17.9192 23.5 15.9945 23.5C14.0673 23.5 13.1037 23.5 12.3843 23.0612C12.0286 22.8443 11.722 22.5556 11.484 22.2136C11.0027 21.5219 10.9446 20.5601 10.8285 18.6364L10.375 11.125" stroke="#030A17" stroke-width="1.5" stroke-linecap="round"/>
<path d="M9.25 11.125H22.75M19.0418 11.125L18.5298 10.0688C18.1897 9.3672 18.0196 9.01639 17.7263 8.79761C17.6612 8.74908 17.5923 8.7059 17.5203 8.66852C17.1954 8.5 16.8056 8.5 16.0259 8.5C15.2266 8.5 14.827 8.5 14.4968 8.67559C14.4236 8.71451 14.3537 8.75943 14.288 8.80988C13.9912 9.03753 13.8255 9.40116 13.494 10.1284L13.0397 11.125" stroke="#030A17" stroke-width="1.5" stroke-linecap="round"/>
<path d="M14.125 19.375V14.875" stroke="#030A17" stroke-width="1.5" stroke-linecap="round"/>
<path d="M17.875 19.375V14.875" stroke="#030A17" stroke-width="1.5" stroke-linecap="round"/>
</svg>
