<svg width="24" height="24" viewBox="0 0 24 24" fill="none" xmlns="http://www.w3.org/2000/svg">
<path d="M18.9131 12.3604C18.3343 13.5084 16.2267 16.9993 12.0001 16.9993C7.77338 16.9993 5.66575 13.5084 5.08691 12.3604" stroke="#00B8FF" stroke-width="1.5" stroke-linecap="round" stroke-linejoin="round"/>
<path d="M21.5 7.49985C21.4085 5.65371 21.1348 4.50267 20.316 3.68386C19.4972 2.86506 18.3462 2.59135 16.5 2.49985M2.5 7.49902C2.59149 5.65288 2.8652 4.50184 3.68401 3.68303C4.50282 2.86423 5.65385 2.59052 7.5 2.49902M21.5 16.4993C21.4085 18.3454 21.1348 19.4965 20.316 20.3153C19.4972 21.1341 18.3462 21.4078 16.5 21.4993M2.5 16.5001C2.59149 18.3463 2.8652 19.4973 3.68401 20.3161C4.50282 21.1349 5.65385 21.4086 7.5 21.5001" stroke="#00B8FF" stroke-width="1.5" stroke-linecap="round" stroke-linejoin="round"/>
</svg>
