<svg width="12" height="12" viewBox="0 0 12 12" fill="none" xmlns="http://www.w3.org/2000/svg">
<path d="M6.80885 10.6835C6.59205 10.8865 6.3022 11 6.00055 11C5.6989 11 5.4091 10.8865 5.19225 10.6835C3.20651 8.813 0.54538 6.72345 1.84314 3.68983C2.54482 2.04958 4.22917 1 6.00055 1C7.77195 1 9.4563 2.04958 10.158 3.68983C11.4541 6.71965 8.7995 8.81945 6.80885 10.6835Z" stroke="white"/>
<path d="M7.75 5.5C7.75 6.4665 6.9665 7.25 6 7.25C5.0335 7.25 4.25 6.4665 4.25 5.5C4.25 4.5335 5.0335 3.75 6 3.75C6.9665 3.75 7.75 4.5335 7.75 5.5Z" stroke="white"/>
</svg>
