<svg width="24" height="24" viewBox="0 0 24 24" fill="none" xmlns="http://www.w3.org/2000/svg">
<path d="M12 16.999C16.2266 16.999 18.3342 13.5081 18.913 12.3601C19.0289 12.1303 19.0289 11.8677 18.913 11.6379C18.3342 10.4899 16.2266 6.99902 12 6.99902C7.77337 6.99902 5.66574 10.4899 5.0869 11.6379C4.97103 11.8677 4.97103 12.1303 5.0869 12.3601C5.66574 13.5081 7.77337 16.999 12 16.999Z" stroke="#00B8FF" stroke-width="1.5" stroke-linecap="round" stroke-linejoin="round"/>
<path d="M12 13.999C13.1046 13.999 14 13.1036 14 11.999C14 10.8945 13.1046 9.99902 12 9.99902C10.8954 9.99902 10 10.8945 10 11.999C10 13.1036 10.8954 13.999 12 13.999Z" stroke="#00B8FF" stroke-width="1.5" stroke-linecap="round" stroke-linejoin="round"/>
<path d="M21.5 7.49985C21.4085 5.65371 21.1348 4.50267 20.316 3.68386C19.4972 2.86506 18.3462 2.59135 16.5 2.49985M2.5 7.49902C2.59149 5.65288 2.8652 4.50184 3.68401 3.68303C4.50282 2.86423 5.65385 2.59052 7.5 2.49902M21.5 16.4993C21.4085 18.3454 21.1348 19.4965 20.316 20.3153C19.4972 21.1341 18.3462 21.4078 16.5 21.4993M2.5 16.5001C2.59149 18.3463 2.8652 19.4973 3.68401 20.3161C4.50282 21.1349 5.65385 21.4086 7.5 21.5001" stroke="#00B8FF" stroke-width="1.5" stroke-linecap="round" stroke-linejoin="round"/>
</svg>
