<svg width="32" height="32" viewBox="0 0 32 32" fill="none" xmlns="http://www.w3.org/2000/svg">
<path d="M10.6667 9.33333C10.6667 9.33333 13.5944 5.71181 15.2059 4.31852C15.4649 4.09453 15.7559 3.98869 16.0449 4.00096C16.3043 4.01196 16.562 4.11792 16.7944 4.31882C18.4055 5.71237 21.3333 9.33333 21.3333 9.33333M16.0449 5.33333V20" stroke="#86A7D2" stroke-width="2" stroke-linecap="round" stroke-linejoin="round"/>
<path d="M10.6667 14.6665C8.79984 14.6665 7.86641 14.6665 7.15337 15.0298C6.52617 15.3494 6.01624 15.8593 5.69665 16.4865C5.33334 17.1996 5.33334 18.133 5.33334 19.9998V21.3332C5.33334 24.4758 5.33334 26.0472 6.30965 27.0236C7.28597 27.9998 8.85732 27.9998 12 27.9998H20C23.1427 27.9998 24.714 27.9998 25.6904 27.0236C26.6667 26.0472 26.6667 24.4758 26.6667 21.3332V19.9998C26.6667 18.133 26.6667 17.1996 26.3033 16.4865C25.9837 15.8593 25.4739 15.3494 24.8467 15.0298C24.1336 14.6665 23.2001 14.6665 21.3333 14.6665" stroke="#86A7D2" stroke-width="2" stroke-linecap="round" stroke-linejoin="round"/>
</svg>
