<svg width="70" height="70" viewBox="0 0 70 70" fill="none" xmlns="http://www.w3.org/2000/svg">
<rect x="1" y="1" width="68" height="68" rx="19" fill="#001435"/>
<rect x="1" y="1" width="68" height="68" rx="19" stroke="url(#paint0_linear_2384_28143)" stroke-width="2"/>
<path d="M37.1706 36.3905C41.3536 36.1125 44.6856 32.7332 44.9598 28.4909C45.0134 27.6607 45.0134 26.8009 44.9598 25.9707C44.6856 21.7284 41.3536 18.3491 37.1706 18.0711C35.7435 17.9762 34.2536 17.9764 32.8294 18.0711C28.6464 18.3491 25.3144 21.7284 25.0402 25.9707C24.9866 26.8009 24.9866 27.6607 25.0402 28.4909C25.1401 30.036 25.8234 31.4666 26.6279 32.6746C27.095 33.5203 26.7867 34.5758 26.3002 35.4978C25.9494 36.1626 25.774 36.495 25.9148 36.7351C26.0557 36.9752 26.3703 36.9829 26.9994 36.9982C28.2437 37.0285 29.0827 36.6757 29.7487 36.1846C30.1264 35.9061 30.3153 35.7668 30.4454 35.7508C30.5756 35.7348 30.8318 35.8403 31.344 36.0513C31.8044 36.2409 32.339 36.3579 32.8294 36.3905C34.2536 36.4852 35.7435 36.4854 37.1706 36.3905Z" stroke="#336AB3" stroke-width="1.5" stroke-linejoin="round"/>
<path d="M30.5 30.5L32.3419 24.9743C32.4363 24.6911 32.7014 24.5 33 24.5C33.2986 24.5 33.5637 24.6911 33.6581 24.9743L35.5 30.5M38.5 24.5V30.5M31.5 28.5H34.5" stroke="#336AB3" stroke-width="1.5" stroke-linejoin="round"/>
<path d="M16.8965 52.5H16.0656L18.469 45.9545H19.2872L21.6906 52.5H20.8596L18.9036 46.9901H18.8525L16.8965 52.5ZM17.2033 49.9432H20.5528V50.6463H17.2033V49.9432ZM23.5027 45.9545V52.5H22.7101V45.9545H23.5027ZM32.8902 48H32.0976C32.0507 47.772 31.9687 47.5717 31.8515 47.3991C31.7365 47.2266 31.5958 47.0817 31.4296 46.9645C31.2656 46.8452 31.0834 46.7557 30.8831 46.696C30.6828 46.6364 30.474 46.6065 30.2567 46.6065C29.8604 46.6065 29.5014 46.7067 29.1796 46.907C28.86 47.1072 28.6054 47.4023 28.4158 47.7923C28.2283 48.1822 28.1345 48.6605 28.1345 49.2273C28.1345 49.794 28.2283 50.2724 28.4158 50.6623C28.6054 51.0522 28.86 51.3473 29.1796 51.5476C29.5014 51.7479 29.8604 51.848 30.2567 51.848C30.474 51.848 30.6828 51.8182 30.8831 51.7585C31.0834 51.6989 31.2656 51.6104 31.4296 51.4933C31.5958 51.3739 31.7365 51.228 31.8515 51.0554C31.9687 50.8807 32.0507 50.6804 32.0976 50.4545H32.8902C32.8306 50.7891 32.7219 51.0884 32.5642 51.3526C32.4066 51.6168 32.2105 51.8416 31.9762 52.027C31.7418 52.2102 31.4786 52.3498 31.1867 52.4457C30.897 52.5415 30.587 52.5895 30.2567 52.5895C29.6985 52.5895 29.202 52.4531 28.7674 52.1804C28.3327 51.9077 27.9907 51.5199 27.7414 51.017C27.4921 50.5142 27.3675 49.9176 27.3675 49.2273C27.3675 48.5369 27.4921 47.9403 27.7414 47.4375C27.9907 46.9347 28.3327 46.5469 28.7674 46.2741C29.202 46.0014 29.6985 45.8651 30.2567 45.8651C30.587 45.8651 30.897 45.913 31.1867 46.0089C31.4786 46.1048 31.7418 46.2454 31.9762 46.4308C32.2105 46.614 32.4066 46.8377 32.5642 47.1019C32.7219 47.364 32.8306 47.6634 32.8902 48ZM36.0631 52.6023C35.6199 52.6023 35.231 52.4968 34.8965 52.2859C34.5641 52.0749 34.3042 51.7798 34.1167 51.4006C33.9313 51.0213 33.8386 50.5781 33.8386 50.071C33.8386 49.5597 33.9313 49.1133 34.1167 48.7319C34.3042 48.3505 34.5641 48.0543 34.8965 47.8434C35.231 47.6325 35.6199 47.527 36.0631 47.527C36.5063 47.527 36.894 47.6325 37.2264 47.8434C37.5609 48.0543 37.8209 48.3505 38.0063 48.7319C38.1938 49.1133 38.2875 49.5597 38.2875 50.071C38.2875 50.5781 38.1938 51.0213 38.0063 51.4006C37.8209 51.7798 37.5609 52.0749 37.2264 52.2859C36.894 52.4968 36.5063 52.6023 36.0631 52.6023ZM36.0631 51.9247C36.3997 51.9247 36.6767 51.8384 36.894 51.6658C37.1114 51.4933 37.2722 51.2663 37.3766 50.9851C37.481 50.7038 37.5332 50.3991 37.5332 50.071C37.5332 49.7429 37.481 49.4371 37.3766 49.1538C37.2722 48.8704 37.1114 48.6413 36.894 48.4666C36.6767 48.2919 36.3997 48.2045 36.0631 48.2045C35.7264 48.2045 35.4494 48.2919 35.2321 48.4666C35.0148 48.6413 34.8539 48.8704 34.7495 49.1538C34.6451 49.4371 34.5929 49.7429 34.5929 50.071C34.5929 50.3991 34.6451 50.7038 34.7495 50.9851C34.8539 51.2663 35.0148 51.4933 35.2321 51.6658C35.4494 51.8384 35.7264 51.9247 36.0631 51.9247ZM40.8835 52.6151C40.5724 52.6151 40.2901 52.5565 40.0365 52.4393C39.783 52.32 39.5816 52.1484 39.4325 51.9247C39.2833 51.6989 39.2088 51.4261 39.2088 51.1065C39.2088 50.8253 39.2642 50.5973 39.375 50.4226C39.4858 50.2457 39.6338 50.1072 39.8192 50.0071C40.0046 49.907 40.2091 49.8324 40.4328 49.7834C40.6587 49.7322 40.8856 49.6918 41.1136 49.6619C41.4119 49.6236 41.6537 49.5948 41.8391 49.5756C42.0266 49.5543 42.163 49.5192 42.2482 49.4702C42.3355 49.4212 42.3792 49.3359 42.3792 49.2145V49.1889C42.3792 48.8736 42.2929 48.6286 42.1203 48.4538C41.9499 48.2791 41.691 48.1918 41.3437 48.1918C40.9836 48.1918 40.7013 48.2706 40.4968 48.4283C40.2922 48.5859 40.1484 48.7543 40.0653 48.9332L39.3494 48.6776C39.4772 48.3793 39.6477 48.147 39.8608 47.9808C40.0759 47.8125 40.3103 47.6953 40.5639 47.6293C40.8196 47.5611 41.071 47.527 41.3181 47.527C41.4758 47.527 41.6569 47.5462 41.8615 47.5845C42.0681 47.6207 42.2674 47.6964 42.4591 47.8114C42.653 47.9265 42.8139 48.1001 42.9417 48.3324C43.0696 48.5646 43.1335 48.8757 43.1335 49.2656V52.5H42.3792V51.8352H42.3409C42.2897 51.9418 42.2045 52.0558 42.0852 52.1772C41.9659 52.2987 41.8071 52.402 41.609 52.4872C41.4108 52.5724 41.169 52.6151 40.8835 52.6151ZM40.9985 51.9375C41.2968 51.9375 41.5483 51.8789 41.7528 51.7617C41.9595 51.6445 42.115 51.4933 42.2194 51.3079C42.3259 51.1225 42.3792 50.9276 42.3792 50.723V50.0327C42.3473 50.071 42.2769 50.1062 42.1683 50.1381C42.0617 50.168 41.9382 50.1946 41.7975 50.218C41.659 50.2393 41.5237 50.2585 41.3916 50.2756C41.2617 50.2905 41.1562 50.3033 41.0752 50.3139C40.8792 50.3395 40.696 50.381 40.5255 50.4386C40.3572 50.494 40.2208 50.5781 40.1164 50.6911C40.0142 50.8018 39.963 50.9531 39.963 51.1449C39.963 51.407 40.06 51.6051 40.2539 51.7393C40.4499 51.8714 40.6981 51.9375 40.9985 51.9375ZM46.5045 52.6023C46.0443 52.6023 45.6479 52.4936 45.3156 52.2763C44.9832 52.0589 44.7275 51.7596 44.5485 51.3782C44.3695 50.9968 44.2801 50.5611 44.2801 50.071C44.2801 49.5724 44.3717 49.1325 44.5549 48.7511C44.7403 48.3675 44.9981 48.0682 45.3283 47.853C45.6607 47.6357 46.0485 47.527 46.4917 47.527C46.8369 47.527 47.1479 47.5909 47.4249 47.7188C47.7019 47.8466 47.9288 48.0256 48.1057 48.2557C48.2825 48.4858 48.3923 48.7543 48.4349 49.0611H47.6806C47.6231 48.8374 47.4953 48.6392 47.2971 48.4666C47.1011 48.2919 46.8369 48.2045 46.5045 48.2045C46.2104 48.2045 45.9526 48.2812 45.731 48.4347C45.5116 48.5859 45.3401 48.8001 45.2165 49.0771C45.095 49.3519 45.0343 49.6747 45.0343 50.0455C45.0343 50.4247 45.094 50.755 45.2133 51.0362C45.3347 51.3175 45.5052 51.5359 45.7247 51.6914C45.9462 51.8469 46.2062 51.9247 46.5045 51.9247C46.7005 51.9247 46.8784 51.8906 47.0382 51.8224C47.198 51.7543 47.3333 51.6562 47.4441 51.5284C47.5549 51.4006 47.6337 51.2472 47.6806 51.0682H48.4349C48.3923 51.358 48.2868 51.619 48.1185 51.8512C47.9523 52.0813 47.7318 52.2646 47.4569 52.4009C47.1842 52.5352 46.8667 52.6023 46.5045 52.6023ZM50.2918 49.5469V52.5H49.5375V45.9545H50.2918V48.358H50.3557C50.4707 48.1044 50.6433 47.9031 50.8734 47.7539C51.1057 47.6026 51.4146 47.527 51.8003 47.527C52.1348 47.527 52.4278 47.5941 52.6792 47.7283C52.9306 47.8604 53.1256 48.0639 53.2641 48.3388C53.4047 48.6115 53.475 48.9588 53.475 49.3807V52.5H52.7207V49.4318C52.7207 49.0419 52.6195 48.7404 52.4171 48.5273C52.2168 48.3121 51.9388 48.2045 51.583 48.2045C51.3358 48.2045 51.1142 48.2567 50.9182 48.3612C50.7243 48.4656 50.5709 48.6179 50.458 48.8182C50.3472 49.0185 50.2918 49.2614 50.2918 49.5469Z" fill="#336AB3"/>
<defs>
<linearGradient id="paint0_linear_2384_28143" x1="0" y1="0" x2="73.244" y2="3.57713" gradientUnits="userSpaceOnUse">
<stop stop-color="#006EFF"/>
<stop offset="0.33" stop-color="#006EFF" stop-opacity="0"/>
<stop offset="0.66" stop-color="#006EFF"/>
<stop offset="1" stop-color="#006EFF" stop-opacity="0"/>
</linearGradient>
</defs>
</svg>
