<svg width="200" height="80" viewBox="0 0 200 80" fill="none" xmlns="http://www.w3.org/2000/svg">
<path d="M46.581 45.8017L58.2721 27.8321C57.8206 26.3598 56.4164 25.4629 54.8823 25.6299C53.738 25.534 52.5936 25.9454 51.9596 26.9784L44.2737 39.5077L36.6343 27.0186C35.9632 25.9207 34.7755 25.5959 33.594 25.5928C32.5548 25.5897 31.6579 25.7938 30.9403 26.4867C30.2228 27.1795 30.0094 28.0547 30.0094 29.1125L30.0032 51.2978C30.0032 53.1628 31.5001 54.601 33.4425 54.369C34.9642 54.1865 36.1859 52.8102 36.1859 51.2112L36.192 37.2777L41.7592 45.8172C42.3098 46.6615 43.2283 47.1224 44.1562 47.1193C45.0841 47.1162 46.0058 46.6863 46.5841 45.7986L46.581 45.8017ZM71.1571 42.3779L75.0387 33.1518L80.1203 45.2357L83.2936 52.6648C84.0421 54.4154 86.3091 54.9319 87.769 53.8216C88.8824 52.971 89.1855 51.5947 88.6288 50.3452L78.5955 27.7671C77.9367 26.2856 76.4583 25.5897 74.9242 25.5959C73.3902 25.6021 71.9953 26.2609 71.3581 27.6991L61.2289 50.5122C60.7805 51.5205 61.1609 52.6648 61.8011 53.4133C62.4939 54.2236 63.5331 54.5267 64.6218 54.3443C65.5775 54.1463 66.4126 53.5216 66.8178 52.5844L68.8684 47.8523L79.4367 47.8399L77.1511 42.3872L71.1664 42.3779H71.1571ZM100.255 39.5355V31.426L106.24 31.4229C107.854 31.4229 109.128 30.195 109.19 28.6176C109.249 27.1547 108.074 25.6361 106.469 25.633H87.7597C86.1514 25.633 84.9699 27.13 85.0225 28.6022C85.0782 30.1579 86.3153 31.3734 87.9051 31.4198H93.9578L93.9547 39.5386L100.252 39.5324L100.255 39.5355ZM122.923 31.2713C124.93 31.3146 126.696 31.9889 128.246 33.1518C129.575 34.1477 131.376 34.1137 132.517 32.8487C133.658 31.5837 133.485 29.5208 132.081 28.4444C129.022 26.1 125.313 25.4258 121.512 25.6701C118.116 25.8897 114.924 27.2661 112.487 29.6383C109.827 32.2518 108.346 35.7746 108.247 39.5355H114.662C114.764 37.5375 115.392 35.7189 116.61 34.1848C118.147 32.2796 120.405 31.2157 122.926 31.2683L122.923 31.2713ZM147.536 42.7892V37.0427L142.547 37.0334V28.5001C142.405 26.8362 141.096 25.6299 139.451 25.6083C137.985 25.5897 136.337 26.7526 136.337 28.4228L136.343 51.6318C136.343 53.2896 138.019 54.4185 139.448 54.3968C141.09 54.3721 142.368 53.203 142.55 51.5545L142.544 42.7954H147.536V42.7892ZM154.028 42.8078L154.056 51.5328C154.062 53.1999 155.562 54.3876 157.136 54.3968C158.71 54.4061 160.245 53.2215 160.245 51.5483V28.4259C160.241 26.7495 158.608 25.599 157.149 25.6083C155.5 25.6176 154.195 26.799 154.031 28.4506V37.0365L149.339 37.0427L149.348 42.7954L154.031 42.8047L154.028 42.8078ZM166.681 32.4714C168.348 32.4652 169.684 31.2435 169.99 29.6723C169.978 29.2579 170.03 28.8342 169.972 28.4383C169.712 26.7217 168.159 25.5495 166.47 25.6176C164.782 25.6856 163.359 26.9877 163.22 28.7166C163.118 29.9692 163.208 31.194 163.18 32.4899L166.687 32.4745L166.681 32.4714ZM56.4412 54.168C57.5948 53.6948 58.4051 52.5689 58.4051 51.2885L58.3928 30.5136L52.2225 39.9407V51.4617C52.2998 52.4793 52.8225 53.3298 53.5586 53.8401C54.4122 54.4309 55.4391 54.5793 56.4412 54.168ZM169.412 51.5792V34.2622H163.177V51.4617C163.272 53.1319 164.618 54.3535 166.211 54.3938C167.804 54.434 169.226 53.2927 169.412 51.5792ZM100.258 51.5174V41.3449H93.9609V51.471C94.097 53.169 95.4764 54.403 97.1157 54.3999C98.7549 54.3968 100.094 53.237 100.261 51.5205L100.258 51.5174ZM132.48 46.578C131.261 45.5357 129.712 45.7244 128.552 46.6956C124.911 49.7482 119.038 49.4699 116.279 45.3532C115.416 44.147 114.986 42.7831 114.72 41.3387L108.293 41.3449C108.562 44.8708 110.075 48.0781 112.568 50.4998C116.273 53.9979 121.033 54.9783 125.975 54.0876C128.403 53.6515 130.513 52.5411 132.371 50.9699C133.748 49.807 133.896 47.7874 132.477 46.5749L132.48 46.578Z" fill="white"/>
<path d="M46.581 45.8016C46.0057 46.6861 45.0654 47.1191 44.153 47.1222C43.2406 47.1253 42.3066 46.6645 41.7561 45.8201L36.1889 37.2807L36.1827 51.2141C36.1827 52.81 34.961 54.1895 33.4393 54.3719C31.497 54.6039 30 53.1688 30 51.3007L30.0062 29.1154C30.0062 28.0577 30.1979 27.204 30.9371 26.4896C31.6763 25.7751 32.5516 25.5926 33.5908 25.5957C34.7692 25.5988 35.96 25.9236 36.6311 27.0216L44.2706 39.5106L51.9564 26.9814C52.5904 25.9483 53.7348 25.537 54.8792 25.6329C56.4132 25.4658 57.8174 26.3628 58.269 27.835L46.5779 45.8046L46.581 45.8016Z" fill="white"/>
<path d="M71.157 42.3777L77.1418 42.387L79.4274 47.8398L68.859 47.8521L66.8084 52.5842C66.4033 53.5245 65.5651 54.1492 64.6125 54.3441C63.5269 54.5266 62.4877 54.2235 61.7918 53.4131C61.1516 52.6647 60.7711 51.5203 61.2196 50.512L71.3488 27.6989C71.989 26.2576 73.4489 25.6019 74.9149 25.5957C76.3809 25.5896 77.9274 26.2855 78.5862 27.7669L88.6195 50.345C89.1762 51.5945 88.8731 52.974 87.7596 53.8214C86.2998 54.9317 84.0327 54.4183 83.2842 52.6647L80.1109 45.2356L75.0293 33.1517L71.1478 42.3777H71.157Z" fill="white"/>
<path d="M154.028 42.8078L149.345 42.7985L149.336 37.0458L154.025 37.0396V28.4537C154.192 26.8021 155.494 25.6207 157.145 25.6114C158.605 25.6021 160.238 26.7527 160.238 28.429V51.5514C160.241 53.2277 158.636 54.4092 157.136 54.3999C155.636 54.3907 154.062 53.1999 154.056 51.5359L154.028 42.8109V42.8078Z" fill="white"/>
<path d="M147.536 42.7888H142.544L142.55 51.5509C142.368 53.2025 141.09 54.3716 139.448 54.3933C138.019 54.4149 136.343 53.286 136.343 51.6282L136.336 28.4192C136.336 26.7491 137.985 25.5862 139.451 25.6047C141.096 25.6264 142.405 26.8326 142.547 28.4966V37.0298L147.533 37.0391V42.7857L147.536 42.7888Z" fill="white"/>
<path d="M100.255 39.5353L93.9579 39.5415V31.4227H87.9082C86.3184 31.3732 85.0813 30.1608 85.0256 28.6051C84.973 27.1298 86.1545 25.6328 87.7628 25.6328H106.472C108.077 25.6328 109.252 27.1545 109.193 28.6174C109.132 30.1917 107.857 31.4196 106.243 31.4227H100.261L100.258 39.5384L100.255 39.5353Z" fill="white"/>
<path d="M122.923 31.2712C120.402 31.2186 118.147 32.2826 116.607 34.1878C115.392 35.7188 114.761 37.5405 114.659 39.5385H108.244C108.346 35.7775 109.824 32.2547 112.484 29.6413C114.921 27.269 118.113 25.8896 121.509 25.6731C125.314 25.4287 129.022 26.103 132.078 28.4474C133.482 29.5237 133.686 31.5527 132.514 32.8517C131.342 34.1507 129.572 34.1507 128.242 33.1548C126.693 31.9918 124.927 31.3176 122.92 31.2743L122.923 31.2712Z" fill="white"/>
<path d="M132.48 46.578C133.899 47.7905 133.751 49.8101 132.374 50.973C130.516 52.5442 128.406 53.6515 125.978 54.0907C121.036 54.9783 116.273 54.001 112.571 50.5029C110.078 48.0812 108.569 44.8739 108.296 41.348L114.723 41.3418C114.989 42.7862 115.416 44.1501 116.282 45.3564C119.044 49.473 124.914 49.7483 128.555 46.6987C129.715 45.7275 131.264 45.5388 132.483 46.5811L132.48 46.578Z" fill="white"/>
<path d="M169.412 51.5798C169.226 53.2932 167.828 54.4345 166.211 54.3943C164.593 54.3541 163.272 53.1324 163.177 51.4622V34.2627H169.412V51.5798Z" fill="white"/>
<path d="M56.441 54.1681C55.4358 54.5794 54.4121 54.4309 53.5585 53.8402C52.8224 53.3299 52.2997 52.4793 52.2192 51.4618V39.9408L58.3926 30.5137L58.405 51.2886C58.405 52.569 57.5947 53.6948 56.441 54.1681Z" fill="white"/>
<path d="M100.258 51.5174C100.091 53.2339 98.7146 54.3938 97.1125 54.3969C95.5104 54.4 94.0939 53.169 93.9578 51.4679V41.3418H100.255V51.5143L100.258 51.5174Z" fill="white"/>
<path d="M166.681 32.4708L163.173 32.4863C163.201 31.1904 163.112 29.9687 163.214 28.713C163.356 26.9841 164.828 25.6789 166.464 25.6139C168.1 25.549 169.709 26.7181 169.965 28.4346C170.024 28.8305 169.972 29.2542 169.984 29.6687C169.678 31.2399 168.345 32.4616 166.675 32.4677L166.681 32.4708Z" fill="white"/>
</svg>
