<svg width="200" height="80" viewBox="0 0 200 80" fill="none" xmlns="http://www.w3.org/2000/svg">
<path d="M149.995 45.9824L138.199 45.9176L101.186 45.9272L84.1155 45.896C84.0628 47.7604 84.1875 49.3561 84.3555 51.3909L81.2961 49.8528L70.6469 44.1035L70.5605 53.7545L80.6554 59.247L88.8522 63.7557C91.3166 65.1115 93.6681 66.3425 96.0629 67.8542C100.718 70.7912 105.702 72.9172 111.233 73.6107C121.04 74.8416 129.889 73.2219 138.079 67.6022C144.963 62.8799 150.187 54.6591 149.995 45.9848V45.9824ZM137.054 47.6764C137.93 47.6764 138.638 48.3867 138.638 49.2601C138.638 50.1336 137.928 50.8438 137.054 50.8438C136.181 50.8438 135.471 50.1336 135.471 49.2601C135.471 48.3867 136.181 47.6764 137.054 47.6764ZM130.343 47.6764C131.219 47.6764 131.926 48.3867 131.926 49.2601C131.926 50.1336 131.216 50.8438 130.343 50.8438C129.469 50.8438 128.759 50.1336 128.759 49.2601C128.759 48.3867 129.469 47.6764 130.343 47.6764ZM123.634 47.6764C124.509 47.6764 125.217 48.3867 125.217 49.2601C125.217 50.1336 124.507 50.8438 123.634 50.8438C122.76 50.8438 122.05 50.1336 122.05 49.2601C122.05 48.3867 122.76 47.6764 123.634 47.6764ZM116.922 47.6764C117.798 47.6764 118.506 48.3867 118.506 49.2601C118.506 50.1336 117.795 50.8438 116.922 50.8438C116.049 50.8438 115.338 50.1336 115.338 49.2601C115.338 48.3867 116.049 47.6764 116.922 47.6764ZM110.213 47.6764C111.089 47.6764 111.797 48.3867 111.797 49.2601C111.797 50.1336 111.086 50.8438 110.213 50.8438C109.34 50.8438 108.629 50.1336 108.629 49.2601C108.629 48.3867 109.34 47.6764 110.213 47.6764ZM103.501 47.6764C104.377 47.6764 105.085 48.3867 105.085 49.2601C105.085 50.1336 104.375 50.8438 103.501 50.8438C102.628 50.8438 101.918 50.1336 101.918 49.2601C101.918 48.3867 102.626 47.6764 103.501 47.6764ZM96.7923 50.8438C95.9165 50.8438 95.2086 50.1336 95.2086 49.2601C95.2086 48.3867 95.9189 47.6764 96.7923 47.6764C97.6657 47.6764 98.376 48.3867 98.376 49.2601C98.376 50.1336 97.6657 50.8438 96.7923 50.8438ZM99.6526 54.6159C98.7767 54.6159 98.0689 53.9056 98.0689 53.0322C98.0689 52.1588 98.7767 51.4485 99.6526 51.4485C100.528 51.4485 101.236 52.1588 101.236 53.0322C101.236 53.9056 100.526 54.6159 99.6526 54.6159ZM103.501 58.2488C102.626 58.2488 101.918 57.5385 101.918 56.6651C101.918 55.7917 102.626 55.0814 103.501 55.0814C104.377 55.0814 105.085 55.7917 105.085 56.6651C105.085 57.5385 104.375 58.2488 103.501 58.2488ZM106.364 62.0281C105.488 62.0281 104.78 61.3178 104.78 60.4444C104.78 59.571 105.491 58.8607 106.364 58.8607C107.238 58.8607 107.948 59.571 107.948 60.4444C107.948 61.3178 107.238 62.0281 106.364 62.0281ZM106.364 54.6159C105.488 54.6159 104.78 53.9056 104.78 53.0322C104.78 52.1588 105.491 51.4485 106.364 51.4485C107.238 51.4485 107.948 52.1588 107.948 53.0322C107.948 53.9056 107.238 54.6159 106.364 54.6159ZM110.213 58.2488C109.337 58.2488 108.629 57.5385 108.629 56.6651C108.629 55.7917 109.34 55.0814 110.213 55.0814C111.086 55.0814 111.797 55.7917 111.797 56.6651C111.797 57.5385 111.086 58.2488 110.213 58.2488ZM113.073 62.0281C112.197 62.0281 111.489 61.3178 111.489 60.4444C111.489 59.571 112.2 58.8607 113.073 58.8607C113.947 58.8607 114.657 59.571 114.657 60.4444C114.657 61.3178 113.947 62.0281 113.073 62.0281ZM113.073 54.6159C112.197 54.6159 111.489 53.9056 111.489 53.0322C111.489 52.1588 112.2 51.4485 113.073 51.4485C113.947 51.4485 114.657 52.1588 114.657 53.0322C114.657 53.9056 113.947 54.6159 113.073 54.6159ZM116.922 58.2488C116.046 58.2488 115.338 57.5385 115.338 56.6651C115.338 55.7917 116.049 55.0814 116.922 55.0814C117.795 55.0814 118.506 55.7917 118.506 56.6651C118.506 57.5385 117.795 58.2488 116.922 58.2488ZM119.782 62.0281C118.906 62.0281 118.199 61.3178 118.199 60.4444C118.199 59.571 118.909 58.8607 119.782 58.8607C120.656 58.8607 121.366 59.571 121.366 60.4444C121.366 61.3178 120.656 62.0281 119.782 62.0281ZM119.782 54.6159C118.906 54.6159 118.199 53.9056 118.199 53.0322C118.199 52.1588 118.909 51.4485 119.782 51.4485C120.656 51.4485 121.366 52.1588 121.366 53.0322C121.366 53.9056 120.656 54.6159 119.782 54.6159ZM123.634 58.2488C122.758 58.2488 122.05 57.5385 122.05 56.6651C122.05 55.7917 122.76 55.0814 123.634 55.0814C124.507 55.0814 125.217 55.7917 125.217 56.6651C125.217 57.5385 124.507 58.2488 123.634 58.2488ZM126.494 62.0281C125.618 62.0281 124.91 61.3178 124.91 60.4444C124.91 59.571 125.62 58.8607 126.494 58.8607C127.367 58.8607 128.078 59.571 128.078 60.4444C128.078 61.3178 127.367 62.0281 126.494 62.0281ZM126.494 54.6159C125.618 54.6159 124.91 53.9056 124.91 53.0322C124.91 52.1588 125.62 51.4485 126.494 51.4485C127.367 51.4485 128.078 52.1588 128.078 53.0322C128.078 53.9056 127.367 54.6159 126.494 54.6159ZM130.343 58.2488C129.467 58.2488 128.759 57.5385 128.759 56.6651C128.759 55.7917 129.469 55.0814 130.343 55.0814C131.216 55.0814 131.926 55.7917 131.926 56.6651C131.926 57.5385 131.216 58.2488 130.343 58.2488ZM133.203 62.0281C132.327 62.0281 131.619 61.3178 131.619 60.4444C131.619 59.571 132.33 58.8607 133.203 58.8607C134.076 58.8607 134.787 59.571 134.787 60.4444C134.787 61.3178 134.076 62.0281 133.203 62.0281ZM133.203 54.6159C132.327 54.6159 131.619 53.9056 131.619 53.0322C131.619 52.1588 132.33 51.4485 133.203 51.4485C134.076 51.4485 134.787 52.1588 134.787 53.0322C134.787 53.9056 134.076 54.6159 133.203 54.6159ZM137.054 58.2488C136.178 58.2488 135.471 57.5385 135.471 56.6651C135.471 55.7917 136.181 55.0814 137.054 55.0814C137.928 55.0814 138.638 55.7917 138.638 56.6651C138.638 57.5385 137.928 58.2488 137.054 58.2488ZM139.914 54.6159C139.039 54.6159 138.331 53.9056 138.331 53.0322C138.331 52.1588 139.041 51.4485 139.914 51.4485C140.788 51.4485 141.498 52.1588 141.498 53.0322C141.498 53.9056 140.788 54.6159 139.914 54.6159ZM143.763 50.8438C142.887 50.8438 142.18 50.1336 142.18 49.2601C142.18 48.3867 142.89 47.6764 143.763 47.6764C144.637 47.6764 145.347 48.3867 145.347 49.2601C145.347 50.1336 144.637 50.8438 143.763 50.8438Z" fill="white"/>
<path d="M51.9256 44.2817L51.9016 53.9951L67.4794 53.9783C67.4866 50.523 67.4794 47.4443 67.4578 44.2266L51.9232 44.2794L51.9256 44.2817Z" fill="white"/>
<path d="M105.791 25.5265L93.1187 25.4785L93.1259 37.8553L104.25 37.8481C105.889 37.8409 107.41 37.6898 108.968 37.3106C112.615 36.1205 113.448 31.3598 111.854 28.2188C111.317 27.1582 110.304 26.5271 109.287 25.9968C108.104 25.7545 107.017 25.5961 105.791 25.5289V25.5265ZM108.821 32.9675C108.492 34.28 107.47 34.9111 106.129 35.0359L96.6148 34.9639V28.3412L106.297 28.31C107.463 28.3052 108.257 28.9986 108.72 30.0472C108.977 30.9711 108.994 32.0101 108.821 32.9675Z" fill="white"/>
<path d="M114.89 18.642L115.122 14.9036L120.138 14.8844L122.563 17.0008L124.385 18.6588L128.733 18.5485L124.145 14.9395C126.967 14.4788 129.189 13.663 129.244 10.5652C129.265 9.36301 129.112 8.27602 128.258 7.44578C127.533 6.74271 126.532 6.3084 125.347 6.3036L111.509 6.24121L111.538 18.6372L114.892 18.6444L114.89 18.642ZM115.25 9.16145L124.68 9.19984C125.378 9.30782 125.546 10.5652 125.498 11.1339C125.429 11.9353 124.973 12.2761 124.315 12.3048C121.232 12.4464 118.302 12.4968 115.161 12.4344C115.125 11.2611 115.154 10.3492 115.25 9.16145Z" fill="white"/>
<path d="M131.245 28.0719L131.29 25.502L114.604 25.4756L114.59 37.886L131.348 37.814L131.36 35.4529L118.21 35.2177L118.34 32.559L130.935 32.499L131.046 30.589L118.294 30.4954L118.359 28.0887L131.245 28.0719Z" fill="white"/>
<path d="M148.142 18.5984L148.176 16.2493L134.942 16.0069L134.988 13.3386L147.658 13.3674L147.677 11.3254L134.974 11.2534L134.998 8.89468L148.027 8.7891V6.31518L131.869 6.2168C131.643 6.33197 131.403 6.61992 131.406 6.85028L131.437 18.692L148.145 18.6008L148.142 18.5984Z" fill="white"/>
<path d="M90.9686 17.0392C92.0196 17.8046 93.2986 18.3469 94.6519 18.5053C98.2369 18.9276 105.243 19.3164 107.89 16.4393C109.74 14.4261 109.966 11.1315 108.428 8.85436C106.002 5.25985 97.4978 5.80455 93.6945 6.54121C92.4108 6.79076 91.1774 7.41224 90.2848 8.29767C88.3147 10.2533 88.2811 15.0812 90.9686 17.0392ZM92.6339 10.9324C93.0298 10.0589 94.0616 9.31507 95.2158 9.09912C97.8913 8.59761 100.591 8.6744 103.237 9.2023C104.872 9.52623 105.867 10.7116 105.98 12.2497C106.095 13.8334 105.095 15.2059 103.441 15.6643C100.807 16.3937 94.52 16.7656 92.7611 14.2221C92.1132 13.2839 92.1396 12.0266 92.6363 10.9324H92.6339Z" fill="white"/>
<path d="M63.1771 16.1728C58.1501 16.4584 55.7121 16.3096 50.7427 15.3498L50.3276 17.8813C53.7133 18.8075 59.717 18.9299 63.1627 18.5724C64.0769 18.4764 65.1183 18.1356 65.8694 17.6413C67.1147 16.8231 67.3979 15.5441 67.1387 14.2676C66.882 13.003 66.0973 12.1056 64.8136 11.7505C63.1987 11.3041 61.531 11.1818 59.8225 11.0738L54.2052 10.7235C53.9581 10.7091 53.4853 10.4403 53.4086 10.2292C53.3438 10.0492 53.3846 9.65326 53.5094 9.39411C53.6869 9.02698 54.3852 8.74384 54.8627 8.71264C58.6252 8.47029 62.1957 8.71264 65.9342 9.25974L66.5604 6.81461L61.0271 6.16433C58.1285 5.90038 55.4674 6.00116 52.7943 6.61305C51.0594 7.00897 49.958 8.31192 50.0012 10.018C50.0396 11.5513 51.297 12.9742 53.015 13.1254L63.2347 14.0372C63.6498 14.0732 63.837 14.8435 63.813 15.1482C63.789 15.453 63.5802 16.1512 63.1795 16.1728H63.1771Z" fill="white"/>
<path d="M66.155 25.5432L52.1296 25.4736L52.1584 37.7881L55.5658 37.8025L55.6762 34.5559L65.0752 34.4863C66.1814 34.4791 67.4603 34.2607 68.257 33.6273C69.8047 32.3987 70.3997 30.2343 69.8382 28.4419C69.3679 26.6614 68.005 25.5552 66.155 25.5456V25.5432ZM65.8694 31.2493C65.5982 31.6405 64.4681 31.7268 63.9594 31.7244L55.7265 31.686L55.7097 28.3387L65.6846 28.3531C66.1885 29.2385 66.5293 30.3015 65.8718 31.2517L65.8694 31.2493Z" fill="white"/>
<path d="M83.6956 25.4883L78.6493 25.5483L70.7524 37.8147L74.5989 37.9227C75.5971 37.0709 75.6307 36.0775 76.4898 35.3024C79.7579 35.2568 82.8989 35.2304 86.1455 35.3672L87.4029 37.8963L91.7052 37.7139L86.2103 29.3563L83.6956 25.4883ZM78.0039 33.1068C79.0093 31.1704 79.9979 29.5723 81.2312 27.7846C82.4022 29.5099 83.3788 31.1728 84.3939 33.0972C82.1455 33.174 80.2115 33.1884 78.0039 33.1068Z" fill="white"/>
<path d="M74.1646 18.4596C78.4381 19.0595 82.9253 18.702 87.2636 17.7925L86.6062 15.0978C83.7075 15.7913 75.7219 17.1422 73.3799 14.8051C72.3601 13.7877 72.2785 12.3096 72.8064 11.0426C73.2359 10.0108 74.3085 9.20937 75.6115 9.039C78.6421 8.64068 83.5348 9.0222 86.5414 9.87164L87.1581 6.9538C82.503 6.23874 77.8958 5.53327 73.3919 6.63226C70.63 7.30653 69.1255 9.42293 69.0056 12.1584C68.8664 15.3426 70.8052 17.9893 74.1622 18.4596H74.1646Z" fill="white"/>
<path d="M137.001 25.5264H133.421L133.508 37.8672L149.736 37.8264C149.788 36.9098 149.791 36.0412 149.721 35.1053L137.16 34.9734L136.999 25.5288L137.001 25.5264Z" fill="white"/>
</svg>
