<svg width="200" height="80" viewBox="0 0 200 80" fill="none" xmlns="http://www.w3.org/2000/svg">
<path d="M24.2306 26.9268C17.1131 26.9148 11.028 32.6236 11.018 39.8753L11 53.0739L24.8049 53.0419C27.6944 53.0359 30.4478 51.8833 32.6569 50.1324C35.7744 47.6232 37.4853 43.8533 37.4213 39.9193C37.3052 32.6757 31.3822 26.9368 24.2306 26.9268ZM32.1186 41.2219C31.8725 42.9408 31.0501 44.5216 29.7654 45.7422C28.3547 47.0329 26.5558 47.8853 24.5828 47.8913L16.2106 47.9173L16.2286 39.9133C16.2386 35.277 20.3227 31.7532 24.859 32.1234C29.4132 32.4956 32.7769 36.6316 32.1186 41.2239V41.2219Z" fill="white"/>
<path d="M117.946 31.7987L116.853 31.7867C116.539 31.7827 116.227 31.8007 115.937 31.8607C115.623 31.9267 115.522 32.1348 115.42 32.401L114.716 34.2719L113.67 36.9993C113.293 37.9818 112.923 38.9242 112.567 39.9087L112.209 40.8952L110.988 44.1289C110.92 44.307 110.84 44.479 110.672 44.5831C110.558 44.6551 110.364 44.5651 110.312 44.425L108.561 39.7927L107.504 36.9733L106.964 35.5686L106.352 33.9057L105.74 32.3249C105.644 32.0788 105.489 31.8047 105.177 31.8047H103.256C102.818 31.8027 102.654 32.1048 102.656 32.501L102.666 46.8162C102.666 47.0503 102.676 47.2404 102.748 47.4345C102.892 47.8187 103.891 47.7167 104.255 47.6746C104.493 47.6466 104.661 47.3965 104.661 47.1344L104.657 36.6451C104.657 36.419 104.661 35.5345 104.821 35.4665C105.055 35.3685 105.229 35.8467 105.305 36.0448L106.052 38.0258L107.102 40.7932L108.235 43.7747L108.839 45.4095C109.085 46.0778 109.291 46.7342 109.616 47.3705C109.718 47.5686 109.924 47.7027 110.152 47.7047L110.988 47.7087C111.33 47.7087 111.526 47.5266 111.659 47.2444C111.873 46.7842 112.007 46.318 112.191 45.8417C112.531 44.9693 112.843 44.1249 113.175 43.2464L114.07 40.8792L114.632 39.4125L115.442 37.2374C115.651 36.6811 115.817 36.1288 116.091 35.6086C116.147 35.5045 116.279 35.4425 116.371 35.4785C116.439 35.5045 116.497 35.6126 116.501 35.7387L116.539 36.7752V46.372C116.539 46.8702 116.419 47.6946 117.057 47.6986C117.371 47.6986 117.712 47.7267 118.008 47.6886C118.414 47.6346 118.528 47.3985 118.528 47.0143L118.514 32.391C118.514 32.0268 118.3 31.7987 117.946 31.7947V31.7987Z" fill="white"/>
<path d="M53.8895 33.3499C53.3732 32.7836 52.7449 32.3674 52.0165 32.1393C51.1601 31.8732 50.3337 31.7171 49.4292 31.8011L42.988 31.8071C42.3137 31.8071 42.4817 32.7976 42.4817 33.2519L42.4857 47.1168C42.4857 47.473 42.7038 47.6791 43.028 47.6831L44.925 47.7031C45.2371 47.7071 45.5573 47.7511 45.8014 47.519C45.9595 47.3689 45.9615 47.1488 45.9615 46.9287L45.9575 42.5705C45.9575 42.2284 46.2156 41.9862 46.5818 41.9842L50.3257 41.9542C50.7079 41.9522 51.0801 41.8642 51.4442 41.7861C52.0085 41.6641 52.5188 41.4099 53.013 41.1318C53.5053 40.8537 53.9015 40.4775 54.2256 40.0153C54.926 39.0088 55.1981 37.8402 55.1481 36.6156C55.0981 35.3929 54.7099 34.2564 53.8875 33.3539L53.8895 33.3499ZM51.3242 38.4045C51.028 38.8347 50.5378 39.0628 50.0115 39.1448C49.1011 39.2869 48.2406 39.2689 47.3462 39.2929C46.906 39.3029 45.9575 39.4009 45.9595 38.6866L45.9675 35.0428C45.9675 34.7046 46.2516 34.4925 46.5598 34.4905L48.3847 34.4745C49.3412 34.4665 50.7739 34.5665 51.3502 35.437C51.9445 36.3334 51.9305 37.524 51.3222 38.4064L51.3242 38.4045Z" fill="white"/>
<path d="M80.6149 31.8477L78.3718 31.8577C78.1797 31.8577 77.9796 32.0918 77.9796 32.3019V36.1618C77.9776 36.434 77.9656 36.9862 77.7675 37.0723C77.5033 37.1883 76.9891 36.596 76.5669 36.3899C76.1467 36.1838 75.6804 36.0478 75.2182 35.9577C74.6979 35.8557 74.1777 35.8977 73.6614 35.9697C72.5528 36.1258 71.5924 36.6521 70.862 37.4925C70.4378 37.9827 70.1016 38.523 69.8755 39.1353C69.3072 40.6701 69.2572 42.2689 69.6214 43.8597C69.9095 45.1203 70.5398 46.2289 71.5563 47.0673C72.0306 47.4575 72.5608 47.6336 73.1111 47.8217C73.5634 47.9758 74.2937 48.0318 74.804 48.0118C75.8085 47.9697 76.787 47.6716 77.5193 46.9732C77.6354 46.8632 77.7735 46.7711 77.9375 46.8472C78.2497 46.9932 77.9796 47.7236 78.6739 47.7216L80.5529 47.7156C80.865 47.7156 81.1151 47.5155 81.1151 47.1673V32.3599C81.1151 32.0418 80.887 31.8477 80.6129 31.8497L80.6149 31.8477ZM78.0356 42.6771C77.9836 43.5675 77.6894 44.416 77.0431 45.0363C76.1346 45.9067 74.5859 45.8787 73.6054 44.9442C72.2087 43.6136 72.2207 40.492 73.4613 39.0393C74.1757 38.2028 75.7284 38.0768 76.6669 38.6271C77.9816 39.3974 78.1797 41.3064 78.0356 42.6791V42.6771Z" fill="white"/>
<path d="M67.3742 45.9427L67.3662 39.1473C67.3642 37.2904 66.0075 36.3659 64.3367 36.0598C62.2957 35.6836 58.956 35.8176 57.6173 37.6866C57.2872 38.1468 57.075 38.643 56.985 39.1953C56.935 39.4995 57.1751 39.7276 57.4813 39.7276L59.5843 39.7156C59.8785 39.7156 60.0385 39.5075 60.1266 39.2574C60.2947 38.7751 60.6188 38.3509 61.1211 38.1828C61.7714 37.9647 62.4658 37.9387 63.1241 38.1048C63.9685 38.3189 64.4427 39.2093 64.0866 40.0037C63.9125 40.3919 63.4963 40.618 63.0941 40.6881C62.7619 40.7441 62.4698 40.8402 62.1416 40.8842L61.5433 40.9642C61.3092 40.9962 61.0931 41.0042 60.8629 41.0383L59.9985 41.1703C58.7839 41.3544 57.4152 41.8587 56.8669 43.0513C56.3087 44.2639 56.4727 45.9627 57.3912 46.9172C58.0916 47.6456 59.066 47.9697 60.0545 47.9797L60.8489 47.9877C61.7654 47.9977 63.044 47.6316 63.8024 47.0973C63.9025 47.0273 64.0666 46.9552 64.1746 47.0012C64.5788 47.1713 64.4668 47.7296 65.1731 47.7256L67.1461 47.7136C67.2822 47.7136 67.4102 47.6196 67.4783 47.5595C67.5803 47.4695 67.5723 47.3074 67.5523 47.1793L67.3762 45.9447L67.3742 45.9427ZM64.1746 43.8096C64.0886 44.472 63.8144 45.1583 63.2261 45.5325C62.4798 46.0048 61.5253 46.0588 60.6809 45.7966C59.5943 45.4585 59.5463 44.2259 59.8885 43.6896C60.2006 43.2013 60.7089 42.9372 61.2632 42.8252C61.5153 42.7731 61.7394 42.7031 61.9955 42.6771C62.5918 42.619 63.1501 42.489 63.7404 42.3849C63.8525 42.3649 64.0706 42.4029 64.1126 42.517C64.2727 42.9372 64.2306 43.3614 64.1726 43.8116L64.1746 43.8096Z" fill="white"/>
<path d="M94.3578 40.8355C94.2138 40.1331 94.0397 39.4628 93.7155 38.8305C93.5034 38.4163 93.0572 37.7359 92.715 37.4158C91.4984 36.2672 89.8776 35.7569 88.2067 35.941C87.8085 35.9851 87.4324 36.0371 87.0442 36.1571C85.2152 36.7214 83.8005 38.1541 83.2423 39.9811C83.1342 40.3392 83.0802 40.6834 83.0241 41.0476C82.784 42.5824 83.1642 44.6574 84.1867 45.886C84.679 46.4783 85.2633 46.9926 85.9556 47.3388C86.2338 47.4768 86.5239 47.5629 86.814 47.6729C87.7245 48.0191 89.4193 48.0431 90.3938 47.817C92.0967 47.4208 93.2353 46.4503 93.9436 44.8695C94.0217 44.6934 94.0777 44.4493 93.9616 44.3032C93.8416 44.1532 93.6035 44.1452 93.4194 44.1412C92.9291 44.1312 92.4709 44.1311 91.9486 44.1492C91.6505 44.1612 91.3923 44.3312 91.2443 44.5494C91.0262 44.8715 90.75 45.0816 90.4058 45.2697C89.6014 45.7099 88.663 45.736 87.7725 45.4678C86.8821 45.1997 86.3598 44.3613 86.1977 43.4688C86.1617 43.2747 86.1417 43.1066 86.2738 42.9445C86.3638 42.8325 86.5199 42.7124 86.726 42.7124L92.619 42.7184C93.2073 42.7184 94.4939 42.8985 94.4499 42.1542C94.4239 41.7199 94.4439 41.2617 94.3558 40.8315L94.3578 40.8355ZM91.1022 40.4753C91.0402 40.5874 90.9001 40.7074 90.694 40.7074L86.724 40.7174C86.5779 40.7174 86.4239 40.6414 86.3518 40.5694C85.9496 40.1712 86.63 38.6204 88.0947 38.3322C88.743 38.2042 89.4053 38.2422 89.9916 38.5443C90.5739 38.8445 90.9101 39.3948 91.1102 40.0011C91.1662 40.1712 91.1902 40.3172 91.1022 40.4753Z" fill="white"/>
<path d="M166.782 36.2494C166.182 36.3795 166.52 36.9998 166.164 37.2159C165.756 37.462 165.151 35.8212 162.68 35.9573C161.329 36.0313 160.377 36.3214 159.362 37.2159C158.466 38.0063 157.878 39.389 157.684 40.5616C157.389 42.3385 157.576 44.2774 158.604 45.8002C159.887 47.6991 162.396 48.2894 164.497 47.503C165.347 47.1849 165.836 46.3985 166.124 46.4465C166.534 46.5145 166.24 47.8872 166.186 48.1854C165.924 49.6321 164.897 50.7247 163.39 50.8807C163.056 50.9148 162.778 50.9548 162.432 50.8968C159.514 50.4065 160.335 49.0578 159.394 49.0438C159.104 49.0398 158.808 49.0278 158.502 49.0478C157.634 49.1038 158.316 50.5906 159.076 51.2389C159.693 51.7632 160.453 52.1474 161.257 52.2614L162.384 52.4195C162.656 52.4575 162.912 52.4195 163.176 52.3955L163.959 52.3255C165.017 52.2314 166.358 51.6531 167.024 50.7767C167.619 49.9963 167.949 49.0538 168.047 48.0773C168.071 47.8372 168.115 47.6451 168.117 47.399V36.7316C168.119 36.1073 167.146 36.1734 166.782 36.2514V36.2494ZM166.264 41.8702L166.238 42.3204C166.182 43.339 165.862 44.3335 165.197 45.1559C163.977 46.6686 161.365 46.4745 160.407 45.0398C159.242 43.2949 159.188 39.9873 160.705 38.4585C161.744 37.41 163.877 37.2739 165.053 38.3565C165.952 39.1849 166.328 40.7096 166.264 41.8702Z" fill="white"/>
<path d="M131.448 46.2926C131.042 46.2265 130.806 45.9064 130.806 45.4822L130.788 39.5432C130.788 39.153 130.774 38.7968 130.724 38.4286C130.578 37.3601 129.862 36.5517 128.837 36.2415C127.614 35.8733 126.368 35.8373 125.097 36.0134C124.541 36.0915 124.057 36.2675 123.556 36.5057C122.56 36.9819 121.894 37.8603 121.691 38.9529C121.649 39.175 121.577 39.5012 121.832 39.6312C122.19 39.8133 122.648 39.7653 123.038 39.7133C123.692 39.6272 123.382 38.8428 124.115 38.2085C124.519 37.8583 125.031 37.6762 125.561 37.6182C126.442 37.5242 127.779 37.4942 128.425 38.1965C128.715 38.5127 128.897 38.9429 128.913 39.3891C128.931 39.9094 128.569 40.4496 128.071 40.6037C127.578 40.7558 127.106 40.8558 126.608 40.9379L124.551 41.2781C123.859 41.3921 123.216 41.6703 122.586 41.9764C121.93 42.2946 121.525 42.8909 121.293 43.5832C121.159 43.9814 121.147 44.3436 121.147 44.7478C121.151 46.6007 122.326 47.6413 124.087 47.8794C125.487 48.0695 127.054 47.8093 128.187 46.9349C128.367 46.7968 128.569 46.5847 128.815 46.6267C129.123 46.6788 129.221 47.3071 129.495 47.5392C129.97 47.9414 130.58 48.0054 131.168 47.8874C131.456 47.8293 131.668 47.7993 131.833 47.5672C131.981 47.3571 131.989 47.123 131.967 46.8629C131.939 46.5307 131.785 46.3426 131.452 46.2886L131.448 46.2926ZM128.901 43.3551C128.951 44.3236 128.491 45.18 127.682 45.6883C127.112 46.0465 126.532 46.2145 125.86 46.2766C125.239 46.3326 124.595 46.3106 124.021 46.0204C123.418 45.7163 123.098 45.17 123.142 44.4957C123.226 43.227 124.125 42.8028 125.235 42.5467C125.557 42.4727 125.858 42.4186 126.194 42.3966C126.944 42.3486 127.662 42.1885 128.389 42.0264C128.623 41.9744 128.823 42.0845 128.871 42.3166C128.941 42.6648 128.885 43.0089 128.903 43.3551H128.901Z" fill="white"/>
<path d="M155.877 46.2926C155.47 46.2265 155.234 45.9064 155.234 45.4822L155.216 39.5432C155.216 39.153 155.202 38.7968 155.152 38.4286C155.006 37.3601 154.29 36.5517 153.265 36.2415C152.043 35.8733 150.796 35.8373 149.525 36.0134C148.969 36.0915 148.485 36.2675 147.985 36.5057C146.988 36.9819 146.322 37.8603 146.12 38.9529C146.078 39.175 146.006 39.5012 146.26 39.6312C146.618 39.8133 147.076 39.7653 147.466 39.7133C148.121 39.6272 147.811 38.8428 148.543 38.2085C148.947 37.8583 149.459 37.6762 149.99 37.6182C150.87 37.5242 152.207 37.4942 152.853 38.1965C153.143 38.5127 153.325 38.9429 153.341 39.3891C153.359 39.9094 152.997 40.4496 152.499 40.6037C152.007 40.7558 151.534 40.8558 151.036 40.9379L148.979 41.2781C148.287 41.3921 147.644 41.6703 147.014 41.9764C146.358 42.2946 145.954 42.8909 145.722 43.5832C145.587 43.9814 145.575 44.3436 145.575 44.7478C145.579 46.6007 146.754 47.6413 148.515 47.8794C149.916 48.0695 151.482 47.8093 152.615 46.9349C152.795 46.7968 152.997 46.5847 153.243 46.6267C153.551 46.6788 153.649 47.3071 153.924 47.5392C154.398 47.9414 155.008 48.0054 155.596 47.8874C155.885 47.8293 156.097 47.7993 156.261 47.5672C156.409 47.3571 156.417 47.123 156.395 46.8629C156.367 46.5307 156.213 46.3426 155.881 46.2886L155.877 46.2926ZM153.327 43.3551C153.377 44.3236 152.917 45.18 152.109 45.6883C151.538 46.0465 150.958 46.2145 150.286 46.2766C149.665 46.3326 149.021 46.3106 148.447 46.0204C147.845 45.7163 147.524 45.17 147.568 44.4957C147.652 43.227 148.549 42.8028 149.661 42.5467C149.984 42.4727 150.284 42.4186 150.62 42.3966C151.37 42.3486 152.089 42.1885 152.815 42.0264C153.049 41.9744 153.249 42.0845 153.297 42.3166C153.367 42.6648 153.311 43.0089 153.329 43.3551H153.327Z" fill="white"/>
<path d="M180.469 39.2829C180.347 38.8787 180.173 38.5545 179.955 38.1964C179.346 37.1979 178.452 36.4815 177.319 36.1333C176.355 35.8352 175.37 35.8652 174.38 36.1093C173.241 36.3895 172.291 37.0878 171.575 38.0023C171.078 38.6366 170.638 39.6291 170.504 40.4115C170.408 40.9738 170.306 41.522 170.35 42.0983C170.484 43.8032 170.842 45.39 172.109 46.6286C172.847 47.351 173.82 47.7472 174.834 47.8852C176.231 48.0753 177.732 47.9293 178.91 47.1128C179.775 46.5145 180.375 45.6121 180.645 44.6036C180.707 44.3695 180.569 44.1534 180.353 44.1113C179.769 43.9973 179.068 43.9493 178.808 44.5355C178.628 44.9418 178.408 45.352 178.064 45.6341C177.289 46.2684 176.317 46.3985 175.352 46.2864C173.738 46.1003 172.535 44.8937 172.381 43.2609C172.361 43.0428 172.359 42.8567 172.517 42.6906C172.649 42.5486 172.831 42.4985 173.061 42.4985H178.958C179.486 42.4965 179.975 42.5486 180.481 42.4925C180.783 42.4585 180.945 42.2844 180.967 41.9783C181.003 41.432 180.883 40.8937 180.779 40.3535C180.707 39.9753 180.575 39.6431 180.467 39.2829H180.469ZM178.394 40.8477H172.915C172.765 40.8477 172.635 40.7577 172.563 40.6996C172.185 40.3915 172.705 39.451 172.913 39.1028C173.315 38.4325 173.912 37.9162 174.672 37.7241C175.204 37.5881 175.719 37.532 176.247 37.6321C176.945 37.7661 177.558 38.0603 178.03 38.6006C178.444 39.0748 178.77 39.6171 178.894 40.2394C178.954 40.5456 178.742 40.8477 178.394 40.8477Z" fill="white"/>
<path d="M142.93 37.8402C142.476 36.8457 141.53 36.2094 140.465 36.0453C139.859 35.9512 139.286 35.9472 138.688 36.0093C138.018 36.0773 137.428 36.3034 136.873 36.6756C136.599 36.8597 136.363 37.0318 136.163 37.3039C136.075 37.422 135.849 37.508 135.735 37.4C135.371 37.0538 135.791 36.3594 135.176 36.2614C134.784 36.1994 133.814 36.1113 133.814 36.7376V47.2089C133.812 47.8812 134.64 47.7552 135.194 47.7412C135.465 47.7331 135.681 47.521 135.681 47.2209L135.685 42.0743C135.685 41.544 135.663 41.0638 135.743 40.5475C136.011 38.8187 136.931 37.9022 138.644 37.6421C139.465 37.518 140.433 37.7762 140.971 38.4145C141.51 39.0528 141.476 40.0373 141.478 40.8857L141.49 47.2689C141.49 47.5511 141.718 47.7331 141.966 47.7432C142.262 47.7552 142.548 47.7632 142.832 47.7391C143.176 47.7091 143.347 47.473 143.347 47.1288L143.343 40.0133C143.343 39.2569 143.248 38.5265 142.934 37.8442L142.93 37.8402Z" fill="white"/>
<path d="M99.0302 31.8056C98.3178 31.8056 97.6195 31.7795 96.9231 31.8176C96.2628 31.8536 96.4209 32.614 96.4209 33.1522V47.1413C96.4229 47.4814 96.663 47.6755 96.9972 47.6795L98.9862 47.7035C99.2883 47.7075 99.5644 47.4554 99.5644 47.1593L99.5584 32.3778C99.5584 32.0397 99.3483 31.8056 99.0302 31.8056Z" fill="white"/>
<path d="M188.909 36.1355C188.761 35.6733 187.433 36.0935 187.11 36.2196C185.598 36.8059 185.294 38.0665 184.899 37.8744C184.759 37.8064 184.717 37.6003 184.713 37.4602L184.691 36.6978C184.671 36.0035 183.573 36.1455 183.232 36.2656C183.048 36.3296 182.954 36.5597 182.954 36.7738V47.107C182.954 47.4212 183.146 47.6413 183.437 47.6633C183.879 47.6953 184.765 47.7834 184.793 47.2611L184.833 46.4807L184.829 42.5207C184.829 42.1946 184.847 41.9144 184.879 41.5983C184.967 40.7298 185.075 40.2136 185.548 39.4752C185.946 38.8509 186.484 38.3626 187.218 38.1565C187.599 38.0485 187.997 37.9304 188.399 37.9024C188.755 37.8784 189.015 37.6923 188.999 37.3061C188.983 36.9219 189.033 36.5197 188.911 36.1395L188.909 36.1355Z" fill="white"/>
<path d="M24.7929 37.9464C24.8949 38.3606 25.2931 38.6147 25.7153 38.5287C26.1316 38.4426 26.4057 38.0324 26.3136 37.5922C26.2336 37.208 25.8514 36.9058 25.3952 36.9939C24.929 37.0839 24.6908 37.5402 24.7909 37.9444L24.7929 37.9464Z" fill="white"/>
<path d="M23.7704 42.8164C23.6743 42.4102 23.2681 42.1301 22.8159 42.2461C22.3497 42.3662 22.1416 42.8304 22.2676 43.2446C22.3877 43.6368 22.8039 43.865 23.2061 43.7629C23.6283 43.6549 23.8684 43.2326 23.7704 42.8144V42.8164Z" fill="white"/>
<path d="M25.4473 42.2981C24.985 42.4222 24.7849 42.8924 24.905 43.2866C25.0291 43.6948 25.4513 43.9109 25.8435 43.8129C26.2777 43.7028 26.5118 43.2706 26.4078 42.8544C26.3057 42.4502 25.8955 42.178 25.4473 42.2981Z" fill="white"/>
<path d="M23.0741 38.4782C23.4843 38.3941 23.7625 37.9939 23.6764 37.5537C23.6004 37.1615 23.2282 36.8573 22.766 36.9434C22.2957 37.0294 22.0536 37.4756 22.1537 37.9019C22.2477 38.3001 22.6459 38.5662 23.0721 38.4782H23.0741Z" fill="white"/>
<path d="M24.5387 42.4562C24.9689 42.3242 25.179 41.8719 25.0549 41.4757C24.9269 41.0655 24.5007 40.8214 24.0584 40.9655C23.6042 41.1156 23.4321 41.5958 23.5742 41.984C23.7223 42.3842 24.1545 42.5743 24.5367 42.4562H24.5387Z" fill="white"/>
<path d="M24.2067 43.5856C23.7344 43.6776 23.4983 44.1279 23.5984 44.5421C23.6964 44.9523 24.0926 45.2024 24.5188 45.1204C24.931 45.0403 25.2072 44.6281 25.1251 44.1999C25.0471 43.8017 24.6649 43.4975 24.2087 43.5856H24.2067Z" fill="white"/>
<path d="M22.4177 41.4357C22.2956 41.0215 21.8694 40.7734 21.4272 40.9114C20.9729 41.0535 20.7848 41.5337 20.9389 41.94C21.083 42.3241 21.5092 42.5242 21.9014 42.4042C22.3176 42.2761 22.5357 41.8319 22.4197 41.4357H22.4177Z" fill="white"/>
<path d="M21.7434 39.7815C22.1356 39.7235 22.4557 39.3453 22.3917 38.8971C22.3377 38.5129 21.9875 38.1747 21.5253 38.2307C21.053 38.2887 20.7669 38.717 20.8489 39.1552C20.923 39.5514 21.2932 39.8455 21.7414 39.7795L21.7434 39.7815Z" fill="white"/>
<path d="M26.7398 41.0035C26.2776 41.1275 26.0795 41.5978 26.2016 41.992C26.3256 42.3982 26.7498 42.6103 27.13 42.5182C27.5742 42.4102 27.8084 41.97 27.7063 41.5638C27.6023 41.1495 27.1901 40.8814 26.7418 41.0015L26.7398 41.0035Z" fill="white"/>
<path d="M24.4008 37.1715C24.827 37.0654 25.0691 36.6332 24.9651 36.221C24.863 35.8148 24.4568 35.5406 24.0066 35.6567C23.5443 35.7748 23.3402 36.247 23.4603 36.6412C23.5844 37.0514 24.0026 37.2715 24.4008 37.1715Z" fill="white"/>
<path d="M24.3307 39.8392C24.7429 39.8031 25.079 39.439 25.037 38.9807C25.001 38.6005 24.6628 38.2464 24.2066 38.2784C23.7324 38.3124 23.4322 38.7226 23.4822 39.1588C23.5303 39.565 23.8944 39.8772 24.3307 39.8392Z" fill="white"/>
<path d="M26.1215 39.2012C26.1716 39.6234 26.5337 39.9236 26.964 39.8876C27.3902 39.8515 27.7183 39.4834 27.6743 39.0231C27.6383 38.6409 27.3001 38.2908 26.8399 38.3268C26.3617 38.3628 26.0735 38.779 26.1235 39.2012H26.1215Z" fill="white"/>
<path d="M21.065 40.0637C20.9269 39.6455 20.4807 39.4134 20.0384 39.5794C19.6022 39.7435 19.4461 40.2258 19.5982 40.606C19.7603 41.0082 20.2065 41.1922 20.6167 41.0342C21.0009 40.8881 21.191 40.4419 21.065 40.0637Z" fill="white"/>
<path d="M25.8534 41.1504C26.2576 41.0204 26.4677 40.5821 26.3536 40.1899C26.2315 39.7737 25.7993 39.5216 25.3511 39.6697C24.9069 39.8178 24.7328 40.286 24.8629 40.6642C25.0069 41.0844 25.4471 41.2825 25.8534 41.1504Z" fill="white"/>
<path d="M27.9805 39.7215C27.5383 39.8736 27.3802 40.3458 27.5002 40.704C27.6503 41.1462 28.0945 41.3283 28.4967 41.1983C28.9069 41.0662 29.111 40.616 28.989 40.2258C28.8589 39.8096 28.4267 39.5674 27.9785 39.7215H27.9805Z" fill="white"/>
<path d="M22.7179 39.6152C22.2717 39.7593 22.0936 40.2275 22.2217 40.6097C22.3618 41.0259 22.8 41.2341 23.2122 41.1C23.6084 40.9719 23.8225 40.5437 23.7124 40.1475C23.5964 39.7313 23.1662 39.4712 22.7159 39.6152H22.7179Z" fill="white"/>
</svg>
