<svg width="200" height="80" viewBox="0 0 200 80" fill="none" xmlns="http://www.w3.org/2000/svg">
<g clip-path="url(#clip0_423_1128)">
<path d="M19.4148 24L28.9785 26.5832L26.4262 36.1849C21.1476 34.7591 18.0061 29.2996 19.4148 24Z" fill="white"/>
<path d="M30.3729 26.959C35.6505 28.3845 38.793 33.8443 37.3843 39.1439L27.8206 36.5607L30.3729 26.959Z" fill="white"/>
<path d="M26.045 37.6188L23.4927 47.2205L13.929 44.6373C15.3377 39.3377 20.7664 36.1929 26.045 37.6188Z" fill="white"/>
<path d="M27.4395 37.9961L37.0032 40.5793C35.5945 45.8788 30.1658 49.0235 24.8872 47.5978L27.4395 37.9961Z" fill="white"/>
<path d="M13.5521 46.0555L23.1158 48.6387C21.7073 53.9374 16.2786 57.0821 11 55.6564L13.5521 46.0555Z" fill="white"/>
<path d="M57.2338 34.4492C60.7866 34.4492 63.2793 37.7707 63.2793 41.9586C63.2793 46.1464 60.8439 49.4679 57.1764 49.4679H56.3456C55.0848 49.4679 53.5376 48.6014 52.7067 47.4461V55.1288H49.6982V34.6803H52.7067V36.4998C53.423 35.3734 54.913 34.4492 56.3456 34.4492H57.2338ZM55.8584 37.0775C53.9674 37.0775 52.4775 39.0703 52.4775 41.9586C52.4775 44.8468 53.9674 46.8396 55.8584 46.8396H56.8326C58.609 46.8396 60.1849 44.8468 60.1849 41.9586C60.1849 39.0703 58.5804 37.0775 56.8326 37.0775H55.8584Z" fill="white"/>
<path d="M65.4658 49.235V29.0176H68.4742V49.235H65.4658Z" fill="white"/>
<path d="M75.3943 49.4679C72.5004 49.4679 70.6379 47.8506 70.6379 45.3088C70.6379 42.4784 72.8442 41.121 75.7667 40.6877L79.7494 40.0524V39.7924C79.7494 38.1461 78.7179 36.9908 77.3999 36.9908H76.2825C74.9358 36.9908 73.933 37.8284 73.7897 39.3591H70.724C70.9531 36.3555 73.4459 34.4492 76.2825 34.4492H77.3999C80.7235 34.4492 82.7578 36.7886 82.7578 39.9079V45.5399C82.7578 46.5797 83.2163 46.6663 84.391 46.6663V49.2368H82.3567C80.9814 49.2368 80.0359 48.6592 80.0359 47.0707C79.2623 48.5148 77.4572 49.4679 75.3943 49.4679ZM79.7494 42.334L76.5117 42.9117C74.8212 43.2294 73.7324 43.6626 73.7324 45.1645C73.7324 46.3197 74.6206 47.013 75.8527 47.013C78.0875 47.013 79.7494 45.4822 79.7494 43.1139V42.334Z" fill="white"/>
<path d="M86.4839 52.5577C88.2031 52.5577 88.7474 50.4493 88.7474 49.4673C88.7474 48.803 88.6042 48.2254 88.2891 47.3589L83.676 34.6797H86.7991L89.7789 43.1999C90.0368 44.0375 90.4093 45.4816 90.4093 45.4816H90.4952C90.4952 45.4816 90.925 44.0375 91.1829 43.2288L94.0768 34.6797H97.1711L91.0969 51.6046C90.2374 54.0017 88.8907 55.1283 86.8564 55.1283H85.0227V52.5577H86.4839Z" fill="white"/>
<path d="M105.342 49.4661C104.081 49.4661 102.505 48.5996 101.703 47.4443V49.235H98.6946V29.0176H101.703V36.498C102.419 35.3716 103.909 34.4474 105.342 34.4474H106.23C109.783 34.4474 112.276 37.7689 112.276 41.9567C112.276 46.1446 109.84 49.4661 106.173 49.4661H105.342ZM105.829 46.8378C107.605 46.8378 109.181 44.845 109.181 41.9567C109.181 39.0685 107.577 37.0757 105.829 37.0757H104.855C102.964 37.0757 101.474 39.0685 101.474 41.9567C101.474 44.845 102.964 46.8378 104.855 46.8378H105.829Z" fill="white"/>
<path d="M115.277 52.5577C116.996 52.5577 117.541 50.4493 117.541 49.4673C117.541 48.803 117.397 48.2254 117.082 47.3589L112.469 34.6797H115.592L118.572 43.1999C118.83 44.0375 119.203 45.4816 119.203 45.4816H119.288C119.288 45.4816 119.718 44.0375 119.976 43.2288L122.87 34.6797H125.964L119.89 51.6046C119.031 54.0017 117.684 55.1283 115.65 55.1283H113.816V52.5577H115.277Z" fill="white"/>
<path d="M135.023 34.4492C138.576 34.4492 141.069 37.7707 141.069 41.9586C141.069 46.1464 138.633 49.4679 134.966 49.4679H134.135C132.875 49.4679 131.327 48.6014 130.496 47.4461V55.1288H127.488V34.6803H130.496V36.4998C131.212 35.3734 132.702 34.4492 134.135 34.4492H135.023ZM133.648 37.0775C131.757 37.0775 130.267 39.0703 130.267 41.9586C130.267 44.8468 131.757 46.8396 133.648 46.8396H134.622C136.398 46.8396 137.974 44.8468 137.974 41.9586C137.974 39.0703 136.37 37.0775 134.622 37.0775H133.648Z" fill="white"/>
<path d="M148.728 49.4679C145.118 49.4679 142.424 46.262 142.424 41.9586C142.424 37.6262 145.118 34.4492 148.728 34.4492H149.816C153.398 34.4492 156.12 37.5974 156.12 41.9586C156.12 46.3197 153.427 49.4679 149.816 49.4679H148.728ZM149.759 46.8396C151.564 46.8396 153.026 44.7602 153.026 41.9586C153.026 39.157 151.564 37.0775 149.759 37.0775H148.786C146.98 37.0775 145.519 39.0992 145.519 41.9586C145.519 44.8179 146.98 46.8396 148.786 46.8396H149.759Z" fill="white"/>
<path d="M158.267 49.2353V34.6788H161.304V49.2353H158.267ZM158.124 32.0505V28.9023H161.447V32.0505H158.124Z" fill="white"/>
<path d="M164.298 49.2368V34.6803H167.307V36.8754C168.022 35.5179 169.541 34.4492 171.088 34.4492H172.378C174.87 34.4492 176.905 36.8175 176.905 39.9946V49.2368H173.896V40.4278C173.896 38.5794 172.95 37.1642 171.461 37.1642H170.401C168.596 37.1642 167.307 39.157 167.307 41.4387V49.2368H164.298Z" fill="white"/>
<path d="M184.579 49.2368C182.174 49.2368 180.827 48.0237 180.827 45.28V37.2507H177.904V34.6802H180.827V31.1277L183.834 29.6836V34.6802H188.076V37.2507H183.834V44.9622C183.834 46.2042 184.437 46.6662 185.382 46.6662H187.904V49.2368H184.579Z" fill="white"/>
</g>
<defs>
<clipPath id="clip0_423_1128">
<rect width="178" height="32" fill="white" transform="translate(11 24)"/>
</clipPath>
</defs>
</svg>
