<svg width="200" height="80" viewBox="0 0 200 80" fill="none" xmlns="http://www.w3.org/2000/svg">
<g clip-path="url(#clip0_423_1398)">
<path d="M22.6533 25.1895H11.1196V48.0675H17.4431V54.6375H22.6533C27.4236 54.6375 31.3109 50.9786 31.3109 46.4835V33.3452C31.3039 28.8483 27.4236 25.1895 22.6533 25.1895ZM21.6403 52.6008H19.4707V41.4974H21.6403V52.6008ZM29.2781 46.4766C29.2781 49.5352 26.8401 52.0768 23.6679 52.5296V48.0016C26.2756 47.6893 28.3257 46.3239 29.2781 44.7781V46.4766ZM29.2781 39.9083C29.2781 42.9652 26.8383 45.4998 23.6679 45.9527V41.4419C26.2756 41.1296 28.3257 39.7643 29.2781 38.2185V39.9083ZM22.6533 39.4694H17.4431V46.0377H13.1472V27.221H22.6533C26.3068 27.221 29.2781 29.9691 29.2781 33.3452C29.2781 36.7213 26.3068 39.4694 22.6533 39.4694Z" fill="white"/>
<path d="M54.0056 32.9043H47.6301V45.0104H50.082V41.6707H53.7407C56.6842 41.6707 58.3707 40.0503 58.3707 37.2259C58.3707 34.4796 56.7795 32.9043 54.0056 32.9043ZM53.7943 39.4778H50.082V35.0972H53.7407C55.1622 35.0972 55.8825 35.8363 55.8825 37.297C55.8825 38.6624 55.1016 39.4778 53.7943 39.4778Z" fill="white"/>
<path d="M63.9724 32.9043V45.0104H73.378L73.4577 42.7637H66.426V32.9043H63.9724Z" fill="white"/>
<path d="M82.5464 32.9043L77.8367 45.0104H80.3404L81.4729 42.0767H87.5799L88.6916 45.0104H91.2455L86.5462 32.9043H82.5464ZM82.2832 39.9549L84.1134 35.203H84.9463L86.7574 39.9549H82.2832Z" fill="white"/>
<path d="M104.542 32.9043L100.838 38.364H100.487L100.447 38.305L96.8521 32.9043H93.9985L99.4182 40.8241V45.0104H101.87V40.772L101.894 40.7373L107.29 32.9043H104.542Z" fill="white"/>
<path d="M123.021 32.9043H111.728L111.684 35.1492H116.141V45.0104H118.595V35.1492H123.052L123.021 32.9043Z" fill="white"/>
<path d="M134.163 32.627C130.056 32.627 127.503 35.0558 127.503 38.9628C127.503 42.8698 130.056 45.2917 134.163 45.2917C138.27 45.2917 140.821 42.8628 140.821 38.9558C140.821 35.0489 138.267 32.627 134.163 32.627ZM134.144 43.1057C131.567 43.1057 130.028 41.5564 130.028 38.9628C130.028 36.3691 131.586 34.8199 134.184 34.8199C136.781 34.8199 138.299 36.3691 138.299 38.9628C138.299 41.5564 136.745 43.0988 134.144 43.0988V43.1057Z" fill="white"/>
<path d="M158.388 36.9518V45.0104H160.825V32.9043H157.876L153.833 40.0711L149.7 32.9043H146.801V45.0104H149.203V36.9518H149.48L149.518 37.0177L153.748 44.339H153.808L158.111 36.9518H158.388Z" fill="white"/>
<path d="M170.109 32.9043H167.656V45.0104H170.109V32.9043Z" fill="white"/>
<path d="M186.216 40.9041C185.728 42.292 184.619 43.0988 182.763 43.0988C180.185 43.0988 178.647 41.5495 178.647 38.9558C178.647 36.3622 180.206 34.8129 182.803 34.8129C184.59 34.8129 185.721 35.5624 186.167 37.0405H188.856C188.307 34.4191 186.148 32.627 182.78 32.627C178.675 32.627 176.123 35.0558 176.123 38.9628C176.123 42.8698 178.675 45.2917 182.78 45.2917C185.984 45.2917 188.368 43.5568 188.881 40.9041H186.216Z" fill="white"/>
</g>
<defs>
<clipPath id="clip0_423_1398">
<rect width="178" height="29.6667" fill="white" transform="translate(11 25.166)"/>
</clipPath>
</defs>
</svg>
