<svg width="200" height="80" viewBox="0 0 200 80" fill="none" xmlns="http://www.w3.org/2000/svg">
<path d="M27.3828 44.3517L31.082 50.8787H24.6466L21.4136 45.0968H18.3047L17.1545 50.8787H11L15.3528 29.1191H24.6466C30.2106 29.1191 33.4131 31.6986 33.4131 36.0514C33.4131 40.0621 31.1757 43.0446 27.3828 44.3517ZM23.7773 33.9686H20.5443L19.2393 40.341H22.9081C25.6117 40.341 27.1977 39.036 27.1977 36.6417C27.1977 34.8074 25.8927 33.9686 23.7773 33.9686Z" fill="white"/>
<path d="M49.6717 46.652H40.4085L37.89 50.8806H31.3936L45.3516 29.1211H51.4124L56.665 50.8806H50.541L49.6696 46.652H49.6717ZM48.7393 42.1119L47.2775 35.0555L43.1121 42.1119H48.7393Z" fill="white"/>
<path d="M83.4613 29.1191L79.1085 50.8787H74.0411L66.8606 38.9423L64.4663 50.8787H58.436L62.7888 29.1191H67.8562L75.0672 41.025L77.4288 29.1191H83.4591H83.4613Z" fill="white"/>
<path d="M98.0122 39.1297L105.317 50.8787H98.4479L93.4437 43.0446L90.6159 45.5935L89.5593 50.8787H83.4985L87.8513 29.1191H93.9121L92.1409 38.0099L101.964 29.1191H109.208L98.0165 39.1297H98.0122Z" fill="white"/>
<path d="M132.113 29.1191H141.564C148.339 29.1191 152.474 32.631 152.474 38.2582C152.474 45.9682 146.88 50.8787 138.891 50.8787H127.763L132.115 29.1191H132.113ZM139.076 45.9682C143.677 45.9682 146.257 42.7984 146.257 38.633C146.257 35.742 144.422 34.0318 140.88 34.0318H137.274L134.913 45.9682H139.078H139.076Z" fill="white"/>
<path d="M157.79 29.1191H163.944L159.591 50.8787H153.437L157.79 29.1191Z" fill="white"/>
<path d="M189 29.1191L184.647 50.8787H179.58L172.399 38.9423L170.005 50.8787H163.975L168.328 29.1191H173.395L180.606 41.025L182.968 29.1191H188.998H189Z" fill="white"/>
<path d="M121.312 37.3955H110.659L109.589 42.6023H120.242L121.312 37.3955Z" fill="white"/>
<path d="M126.085 29.1191H112.358L111.247 34.5285H124.976L126.085 29.1191Z" fill="white"/>
<path d="M107.89 50.8789H124.161L125.272 45.4717H109.001L107.89 50.8789Z" fill="white"/>
</svg>
