<svg width="200" height="80" viewBox="0 0 200 80" fill="none" xmlns="http://www.w3.org/2000/svg">
<path d="M84.1361 41.8945H90.4031C94.1007 41.8945 96.1423 43.7941 95.5681 47.0335L95.5594 47.0741C94.9475 50.5193 91.9691 52.3377 88.3354 52.3377H86.3314L85.589 56.5138H81.5376L84.139 41.8945H84.1361ZM88.8168 49.1621C90.2581 49.1621 91.2702 48.411 91.4732 47.2626L91.4819 47.222C91.7052 45.9691 90.9454 45.2992 89.4838 45.2992H87.5842L86.8969 49.1621H88.8197H88.8168Z" fill="white"/>
<path d="M102.221 41.79H106.127L109.732 56.5137H105.388L104.787 53.9036H99.1467L97.6386 56.5137H93.3784L102.224 41.79H102.221ZM104.178 50.7483L103.288 46.5926L100.898 50.7483H104.178Z" fill="white"/>
<path d="M114.172 41.8945H119.813C125.036 41.8945 127.527 44.9019 126.776 49.1215L126.767 49.1621C126.016 53.3817 122.388 56.5138 117.124 56.5138H111.568L114.169 41.8945H114.172ZM117.91 52.9206C120.332 52.9206 122.179 51.5837 122.6 49.223L122.608 49.1824C123.026 46.842 121.657 45.4848 119.236 45.4848H117.586L116.263 52.9206H117.913H117.91Z" fill="white"/>
<path d="M130.566 41.8945H142.326L141.714 45.3398H133.965L133.571 47.5525H140.589L140.02 50.7484H133.002L132.59 53.0656H140.444L139.829 56.5108H127.965L130.566 41.8916V41.8945Z" fill="white"/>
<path d="M144.916 41.8945H148.967L146.998 52.9641H154.08L153.448 56.5138H142.314L144.916 41.8945Z" fill="white"/>
<path d="M111.066 22H117.98C120.216 22 121.657 22.5858 122.46 23.5863C123.168 24.4216 123.406 25.5497 123.151 26.991L123.142 27.0316C122.745 29.2676 121.289 30.7495 119.334 31.5209L121.915 36.6163H117.237L115.08 32.1879H113.305L112.516 36.6163H108.465L111.066 22ZM116.544 29.0182C117.922 29.0182 118.835 28.3511 119.024 27.2839L119.032 27.2433C119.235 26.0949 118.505 25.5091 117.147 25.5091H114.494L113.87 29.0182H116.544Z" fill="white"/>
<path d="M126.712 22H138.471L137.86 25.4453H130.111L129.716 27.658H136.734L136.166 30.8539H129.148L128.736 33.1711H136.589L135.975 36.6163H124.11L126.712 22Z" fill="white"/>
<path d="M141.267 22H146.908C152.131 22 154.622 25.0074 153.871 29.227L153.862 29.2676C153.111 33.4872 149.483 36.6192 144.22 36.6192H138.663L141.267 22ZM145.008 33.0261C147.43 33.0261 149.277 31.6891 149.698 29.3285L149.707 29.2879C150.124 26.9475 148.755 25.5903 146.334 25.5903H144.684L143.361 33.0261H145.011H145.008Z" fill="white"/>
<path d="M59.9685 51.1888C59.9685 44.7309 63.6982 39.1062 69.1233 35.9814C68.7843 35.9814 68.4452 35.9814 68.1061 35.9814C67.9931 35.9814 67.9931 35.9814 67.88 35.9814C67.654 35.9814 67.541 35.9814 67.3149 35.9814C67.2019 35.9814 67.0889 35.9814 66.9759 35.9814H66.8629C58.6122 36.1898 51.1527 41.1894 48.4401 48.3765L47.875 49.7305C52.2829 60.9798 63.9243 69.0002 77.6 69.0002C77.9391 69.0002 78.1651 69.0002 78.5042 69.0002C68.2191 68.6876 59.9685 60.8756 59.9685 51.1888Z" fill="white"/>
<path d="M67.1093 34.4413C67.3396 34.4413 67.4548 34.4413 67.6851 34.4413C67.9154 34.4413 68.0305 34.4413 68.2608 34.4413C67.1093 34.4413 69.4125 34.4413 68.2608 34.4413C74.0188 34.4413 83.2369 37.376 88.1825 36.5947C93.1281 35.8134 98.6732 33.055 99.1228 25.2949C99.5724 17.5348 91.4796 13.7228 91.4796 13.7228C91.4796 13.7228 86.8337 11.1361 77.6918 11C61.7998 11 49.0292 20.7618 46.3806 34.4413C46.0351 36.1121 45.9199 37.7829 45.9199 39.4537C45.9199 42.2731 46.3806 44.9882 47.1867 47.4944C50.0657 40.0802 57.8965 34.6502 67.1093 34.4413Z" fill="white"/>
</svg>
