<svg width="200" height="80" viewBox="0 0 200 80" fill="none" xmlns="http://www.w3.org/2000/svg">
<path d="M62.0468 18.5197C62.5186 19.0694 63.0589 19.881 63.335 20.3529C63.7927 20.3435 64.458 20.4355 64.793 21.2258C65.0313 21.7944 64.8992 22.33 64.4108 22.8325C66.0482 26.9094 66.0907 31.3544 64.6538 35.4525C64.9653 35.9409 64.9959 36.4198 64.734 36.9106C64.5665 37.2244 64.182 37.4438 63.7219 37.5948C61.3626 42.0091 57.4249 45.3168 52.5718 46.7041C55.6625 50.5239 58.6517 54.1714 61.4758 58.0666C62.1317 58.9702 62.705 59.7771 63.0684 60.8765L68.9289 60.8978C69.7405 59.2038 70.7149 57.8944 71.6823 56.4387C73.5154 53.6783 75.502 51.1632 77.6325 48.6293L81.5489 43.972C85.2082 39.6214 87.551 32.8431 86.9093 26.992C86.461 22.9057 85.0808 18.9703 82.3487 15.9056C77.8354 10.8472 75.0419 10.0427 74.2468 9.70528C67.3034 6.76793 59.3926 7.66682 53.1923 12.2486C57.7953 13.7468 61.1903 17.5193 62.0468 18.5197ZM73.5673 42.4385C72.9492 42.6414 72.239 42.2356 71.9536 41.5797C71.6917 40.9757 72.0338 40.0768 72.8312 39.8503C73.6263 39.6238 74.3082 40.1145 74.5111 40.761C74.7329 41.4617 74.3105 42.1931 73.5673 42.4385ZM72.6967 35.0514C73.4376 34.7235 74.2256 35.1623 74.4851 35.8324C74.7281 36.46 74.4002 37.2574 73.7349 37.524C73.0955 37.7812 72.2131 37.5712 71.9654 36.7997C71.7837 36.2311 71.8875 35.4101 72.6991 35.0514H72.6967ZM73.4659 32.7747C72.7935 32.921 72.0975 32.4562 71.9182 31.7956C71.7365 31.1232 72.1565 30.3163 72.9917 30.1181C73.775 29.9317 74.3766 30.5923 74.5323 31.1869C74.7281 31.9348 74.1666 32.6237 73.4682 32.7771L73.4659 32.7747ZM72.8383 25.3334C73.6122 25.1069 74.3035 25.633 74.504 26.2748C74.714 26.9448 74.2539 27.6738 73.5579 27.9381C72.9516 28.1693 72.2461 27.6786 71.9795 27.1005C71.6775 26.4494 72.0409 25.567 72.8407 25.3334H72.8383ZM73.723 23.0189C73.0624 23.2879 72.3145 23.026 71.9795 22.3017C71.6917 21.6812 71.963 20.846 72.7557 20.5204C73.4447 20.2373 74.2209 20.662 74.4969 21.3414C74.7446 21.9501 74.3813 22.75 73.723 23.0189ZM76.9199 25.8996C77.4366 25.1848 78.2836 25.1093 78.8687 25.5741C79.5529 26.1191 79.5246 27.0014 78.9631 27.6196C78.5951 28.0254 77.9179 28.3109 77.3753 27.8248C76.7241 27.2421 76.4669 26.5296 76.9199 25.902V25.8996ZM77.7764 30.1346C78.5715 29.901 79.1542 30.5829 79.3359 31.1704C79.5624 31.9041 78.9843 32.5482 78.3662 32.7369C77.6608 32.9516 76.9789 32.4043 76.776 31.8215C76.5259 31.1067 76.9907 30.3682 77.7787 30.1346H77.7764ZM78.5172 37.557C77.7858 37.8779 77.0827 37.4178 76.7996 36.7242C76.5283 36.0565 76.927 35.2803 77.6749 35.0279C78.3945 34.7848 79.0598 35.2331 79.3076 35.856C79.5812 36.5402 79.133 37.2881 78.5196 37.557H78.5172ZM76.6628 21.6057C76.8822 20.7705 77.5971 20.3246 78.2765 20.4591C79.0009 20.6006 79.5317 21.306 79.3642 22.0138C79.192 22.7405 78.4464 23.3988 77.5806 23.0166C77.0473 22.7806 76.5377 22.0823 76.6604 21.608L76.6628 21.6057ZM72.8454 15.6343C73.6145 15.37 74.2964 15.9056 74.5181 16.5662C74.7446 17.2457 74.3152 18.0195 73.5791 18.2342C72.961 18.4135 72.2414 18.0478 71.963 17.4084C71.6822 16.7596 72.0314 15.915 72.8477 15.6343H72.8454ZM63.007 39.8904C63.7125 39.6049 64.5359 39.9966 64.7813 40.6124C65.0573 41.3036 64.7954 42.0987 63.9814 42.4102C63.4128 42.6272 62.698 42.3771 62.3228 41.6764C62.0326 41.1314 62.186 40.2231 63.0047 39.8904H63.007ZM67.905 39.881C68.5845 39.5931 69.2993 39.9824 69.6037 40.5982C69.901 41.2069 69.6532 42.0445 68.8864 42.396C68.1291 42.7428 67.4308 42.2497 67.1689 41.5868C66.9235 40.9663 67.1925 40.183 67.9073 39.8786L67.905 39.881ZM67.9144 35.0609C68.6599 34.7471 69.4338 35.2213 69.6603 35.8866C69.8703 36.4977 69.514 37.2881 68.9454 37.5193C68.2022 37.8189 67.5133 37.4933 67.183 36.8186C66.8928 36.2217 67.1288 35.3912 67.9144 35.0609ZM68.7732 32.7369C68.0489 32.9634 67.3812 32.5576 67.1311 31.8994C66.881 31.2411 67.2444 30.3705 68.0513 30.1488C68.8346 29.9341 69.4999 30.4838 69.691 31.076C69.9269 31.8121 69.4173 32.5364 68.7756 32.7369H68.7732ZM67.3152 25.8383C67.6856 25.3358 68.2848 25.1305 68.8605 25.3806C69.3111 25.5764 69.7335 26.0176 69.7264 26.6358C69.7217 27.1171 69.4032 27.6833 68.7614 27.9192C68.1645 28.1386 67.603 27.7824 67.3269 27.3742C67.0273 26.926 66.9707 26.3078 67.3152 25.8383ZM68.9171 22.993C68.2164 23.2832 67.4921 22.9812 67.1759 22.33C66.8551 21.6647 67.1925 20.8011 67.9545 20.5345C68.6741 20.2821 69.4126 20.7044 69.6768 21.3933C69.9128 22.0044 69.5164 22.7452 68.9148 22.9953L68.9171 22.993ZM68.056 15.6272C68.8605 15.3983 69.4881 15.9575 69.6863 16.6087C69.8962 17.2976 69.4102 18.0525 68.7685 18.2366C68.0536 18.4418 67.3505 18.0172 67.1358 17.4203C66.8716 16.6936 67.2349 15.8607 68.0583 15.6248L68.056 15.6272ZM71.1302 49.6273C71.0145 50.4885 70.6371 50.9792 70.2572 51.5431L67.4095 55.7946C67.1429 56.1933 66.5672 56.8964 65.9727 56.8091C65.0478 56.6722 64.7293 55.6105 64.2221 55.0419C63.8328 54.6055 62.6319 52.954 62.4172 52.4986C61.9689 51.5454 61.1573 50.84 60.8671 49.6863C64.4014 50.3351 67.7375 50.3658 71.1302 49.625V49.6273ZM62.3747 16.2925C62.9056 15.5045 63.7903 15.3747 64.4274 15.941C65.0998 16.5402 65.0832 17.4509 64.3589 18.003C63.7054 18.5032 62.7687 18.3286 62.2898 17.4627C62.0633 17.0522 62.1577 16.6157 62.3771 16.2901L62.3747 16.2925Z" fill="white"/>
<path d="M167.18 41.3366C166.13 38.621 164.375 36.2688 162.065 34.4851C157.708 31.1184 150.84 30.8636 147.133 35.3463L147.055 32.206L136.597 32.232V39.5624C137.656 39.5341 138.413 39.461 139.281 39.5482L139.303 49.7712L139.293 62.8111L136.578 62.8725L136.571 70.2855L149.995 70.2595L149.981 62.8559L147.084 62.7828L147.112 56.7477C149.372 58.0217 151.557 59.0197 154.037 59.2509C157.97 59.619 161.669 58.0217 164.389 55.2259C166.85 52.6944 168.072 49.4362 167.997 45.9066C167.961 44.3117 167.768 42.8513 167.18 41.3366ZM156.924 51.09C154.289 52.692 150.991 52.0786 148.91 49.6697C147.414 47.9403 147.081 45.4748 147.971 43.3043C148.728 41.4499 150.498 39.9116 152.682 39.5954C155.681 39.1613 158.515 40.7515 159.543 43.4482C160.643 46.3266 159.583 49.4739 156.927 51.09H156.924Z" fill="white"/>
<path d="M128.641 51.833C126.73 53.7134 124.245 54.2844 121.789 53.4138C119.911 52.7484 118.385 51.4272 117.382 49.5374L137.34 49.5516C139.336 41.4685 133.69 33.3029 125.361 32.2837C121.098 31.7623 116.979 33.1708 114.081 36.3771C113.008 37.5639 112.015 38.7884 111.3 40.2629C109.804 43.3466 109.53 46.8761 110.417 50.1697C111.087 52.6611 112.454 54.6949 114.169 56.5068C119.373 62.0017 127.9 62.1598 133.329 56.8749C134.789 55.4522 135.983 53.8125 136.75 51.833H128.643H128.641ZM124.727 39.3357C127.237 39.6849 129.351 41.2397 130.498 43.5919L117.311 43.6179C118.486 40.631 121.53 38.8922 124.727 39.3357Z" fill="white"/>
<path d="M39.0127 42.4366C40.1405 43.1656 41.641 43.5809 42.8325 42.7221C43.9343 41.927 44.7247 40.8535 45.4301 39.7658C46.7891 37.6755 48.0725 35.663 49.7783 33.8227C51.9395 31.7206 54.3696 30.0643 57.1276 28.8587C59.1448 27.9787 61.2186 27.6861 63.368 28.1037C62.8985 23.076 60.1782 18.6547 55.9786 16.0547C50.6277 17.2721 45.4749 18.9236 40.4331 21.0895C38.0572 22.1087 35.8843 23.2034 33.6996 24.5482C33.4094 24.8785 32.7912 25.0461 32.6426 25.4849C31.7791 28.04 31.8333 30.673 32.5223 33.273C33.525 37.0574 35.7309 40.3132 39.0151 42.4389L39.0127 42.4366Z" fill="white"/>
<path d="M106.73 41.9954L110.172 41.9317L110.153 34.7476L106.751 34.6461C106.548 32.8696 106.801 30.7556 108.957 30.5126C109.566 30.4442 110.134 30.5008 110.788 30.4937L110.856 23.6611C109.092 23.7767 107.457 23.7532 105.81 24.0646C102.849 24.6214 100.645 26.5985 99.7817 29.4556C99.4325 30.6141 99.0173 31.7465 98.9819 32.9639L98.9324 34.6886L96.146 34.7098L96.179 41.9364L98.9441 41.9978L98.963 53.247L96.1554 53.2918V60.5727L109.608 60.5562L109.615 53.2989L106.725 53.2423L106.732 42.0001L106.73 41.9954Z" fill="white"/>
<path d="M88.6008 22.6651C89.2378 24.9867 89.5894 27.3059 89.5398 29.6983C89.4502 33.9757 87.8482 38.876 85.562 42.474C85.3733 42.7713 85.1798 42.901 85.0453 43.2785C84.7457 44.1231 83.9459 44.7295 83.5354 45.5033C83.2499 46.0436 82.7992 46.3173 82.4359 46.7491L78.8663 51.0053C76.2356 54.1432 73.9471 57.3943 71.7034 60.8908L76.7358 60.905C76.9812 60.4496 77.1109 60.0037 77.4011 59.5507C79.541 56.2147 81.7824 53.0154 84.3257 49.9743L86.5152 47.3554C87.7066 45.9304 88.9193 44.6634 90.0329 43.1275C92.1256 40.235 93.6403 36.9249 94.3882 33.4024C96.3842 23.9982 91.8071 14.2471 83.1555 10.1678L82.2755 9.7526C80.6758 8.99762 79.0007 8.57058 77.2666 8.24972C77.0189 8.20489 76.8726 8.15298 76.5541 8.11523C82.3321 11.2059 86.8384 16.2478 88.6008 22.6628V22.6651Z" fill="white"/>
<path d="M63.2972 31.5878C60.7539 30.6535 58.732 31.76 56.736 32.7792C53.9968 34.1783 51.7672 36.3158 50.0685 38.8616L48.7355 40.8858C47.7989 42.3085 46.8599 43.6604 45.5835 44.8637C47.6503 45.2883 49.6226 45.0666 51.6941 44.5735C54.8178 43.8303 57.4084 42.0631 59.553 39.6519C61.6198 37.42 62.757 34.5487 63.2972 31.5878Z" fill="white"/>
<path d="M34.5396 21.0135C40.4166 17.9252 45.6567 16.1274 52.008 14.313C45.1919 12.5553 38.331 14.9288 34.5396 21.0135Z" fill="white"/>
<path d="M50.2149 69.9053C50.1512 69.9666 50.1701 70.0398 50.222 70.1247C50.2857 70.2285 50.314 70.2049 50.3754 70.1247C50.4414 70.0374 50.4674 69.9713 50.4013 69.9053C50.34 69.91 50.2786 69.91 50.2173 69.9053H50.2149Z" fill="white"/>
<path d="M71.1325 67.5366H74.2893V66.6425H71.1325V65.0027H74.5417V64.0566H70.0354V70.3159H74.6054V69.3698H71.1325V67.5366Z" fill="white"/>
<path d="M77.4271 67.643C76.691 67.4755 75.9549 67.407 75.9549 66.9163C75.9549 66.5223 76.4905 66.4515 76.7783 66.4515C77.2172 66.4515 77.6112 66.5836 77.6985 67.0555H78.7413C78.6186 66.0481 77.7763 65.6611 76.8467 65.6611C76.0233 65.6611 74.9522 65.9678 74.9522 66.9588C74.9522 67.8789 75.6718 68.1431 76.4079 68.3012C77.1346 68.4687 77.8636 68.5301 77.8895 69.0562C77.9155 69.5729 77.2572 69.6531 76.8821 69.6531C76.3465 69.6531 75.9101 69.4431 75.8558 68.8651H74.8555C74.872 69.9339 75.7237 70.4435 76.8633 70.4435C77.8023 70.4435 78.8875 70.0495 78.8875 68.9713C78.8875 68.0771 78.1514 67.8128 77.4224 67.6477L77.4271 67.643Z" fill="white"/>
<path d="M81.7329 65.6611C81.1548 65.6611 80.6098 65.8805 80.329 66.3972H80.3125V65.7838H79.3665V71.9912H80.3668V69.7286H80.3833C80.6995 70.2288 81.3223 70.4388 81.9004 70.4388C83.2428 70.4388 83.8562 69.2898 83.8562 68.0724C83.8562 66.7488 83.1626 65.6611 81.7352 65.6611H81.7329ZM81.6007 69.6507C80.7938 69.6507 80.329 68.9665 80.329 68.0558C80.329 67.0909 80.7584 66.4515 81.6007 66.4515C82.443 66.4515 82.8535 67.2324 82.8535 68.0558C82.8535 68.8792 82.5114 69.6507 81.6007 69.6507Z" fill="white"/>
<path d="M88.1761 69.3082V66.9772C88.1761 66.0217 87.2466 65.6631 86.3618 65.6631C85.3615 65.6631 84.3706 66.0052 84.3021 67.1707H85.3025C85.3473 66.68 85.7413 66.4511 86.3028 66.4511C86.7063 66.4511 87.2418 66.5478 87.2418 67.0645C87.2418 67.652 86.6025 67.5741 85.8829 67.7039C85.0406 67.8006 84.137 67.9847 84.137 69.1148C84.137 69.9995 84.8731 70.4383 85.6894 70.4383C86.225 70.4383 86.8643 70.2708 87.2583 69.8863C87.3362 70.2992 87.6264 70.4383 88.0298 70.4383C88.1973 70.4383 88.5112 70.377 88.6621 70.3251V69.6315C88.556 69.648 88.4781 69.648 88.4168 69.648C88.2327 69.648 88.1808 69.5512 88.1808 69.3059L88.1761 69.3082ZM87.1758 68.7892C87.1758 69.4215 86.4916 69.648 86.0527 69.648C85.7012 69.648 85.1326 69.5159 85.1326 69.0699C85.1326 68.5438 85.5172 68.3857 85.9489 68.315C86.3878 68.2371 86.8691 68.2442 87.1758 68.0436V68.7892Z" fill="white"/>
<path d="M91.5523 64.4412C91.3848 64.4412 91.2102 64.3539 91.0097 64.2737C90.8091 64.1864 90.5803 64.1062 90.2995 64.1062C89.764 64.1062 89.4573 64.6488 89.3865 65.0971H89.8866C89.8866 64.9296 90.0542 64.7385 90.2547 64.7385C90.4222 64.7385 90.6322 64.8163 90.8587 64.8966C91.0781 64.9839 91.314 65.0641 91.5075 65.0641C91.8236 65.0641 92.0431 64.9508 92.1917 64.7668C92.3498 64.5922 92.4371 64.3374 92.4819 64.0566H91.9912C91.9298 64.2855 91.8071 64.4412 91.5523 64.4412Z" fill="white"/>
<path d="M91.3142 65.6611C90.7173 65.6611 90.2006 65.9678 89.9033 66.468L89.8868 66.4515V65.7862H88.9407V70.3184H89.941V67.6453C89.941 66.98 90.3704 66.4539 91.0381 66.4539C91.6256 66.4539 91.9063 66.7606 91.9229 67.4707V70.3208H92.9232V67.2088C92.9232 66.192 92.3004 65.6659 91.3189 65.6659L91.3142 65.6611Z" fill="white"/>
<path d="M95.7331 65.6611C94.2774 65.6611 93.4446 66.6615 93.4446 68.0464C93.4446 69.4313 94.2774 70.4411 95.7331 70.4411C97.1888 70.4411 98.0216 69.4408 98.0216 68.0464C98.0216 66.652 97.1888 65.6611 95.7331 65.6611ZM95.7331 69.6507C94.8389 69.6507 94.4449 68.8344 94.4449 68.0464C94.4449 67.2584 94.8389 66.4515 95.7331 66.4515C96.6273 66.4515 97.0213 67.2678 97.0213 68.0464C97.0213 68.825 96.6273 69.6507 95.7331 69.6507Z" fill="white"/>
<path d="M99.5648 64.0566H98.5645V70.3159H99.5648V64.0566Z" fill="white"/>
<path d="M104.132 69.3082V66.9772C104.132 66.0217 103.203 65.6631 102.318 65.6631C101.318 65.6631 100.327 66.0052 100.258 67.1707H101.259C101.304 66.68 101.698 66.4511 102.259 66.4511C102.663 66.4511 103.198 66.5478 103.198 67.0645C103.198 67.652 102.559 67.5741 101.839 67.7039C100.997 67.8006 100.093 67.9847 100.093 69.1148C100.093 69.9995 100.829 70.4383 101.646 70.4383C102.181 70.4383 102.821 70.2708 103.215 69.8863C103.292 70.2992 103.583 70.4383 103.986 70.4383C104.154 70.4383 104.467 70.377 104.618 70.3251V69.6315C104.512 69.648 104.434 69.648 104.373 69.648C104.189 69.648 104.137 69.5512 104.137 69.3059L104.132 69.3082ZM103.132 68.7892C103.132 69.4215 102.448 69.648 102.009 69.648C101.657 69.648 101.089 69.5159 101.089 69.0699C101.089 68.5438 101.473 68.3857 101.905 68.315C102.344 68.2371 102.825 68.2442 103.132 68.0436V68.7892Z" fill="white"/>
<path d="M117.222 64.0566H114.459V70.3159H115.556V67.9141H117.222C119.01 67.9236 119.352 66.7651 119.352 65.9936C119.352 65.2221 119.01 64.0566 117.222 64.0566ZM117.16 67.0199H115.556V64.9508H117.179C117.757 64.9508 118.257 65.1608 118.257 65.9866C118.257 66.8123 117.653 67.0199 117.16 67.0199Z" fill="white"/>
<path d="M123.078 63.9062H121.896L121.105 65.1614H121.834L123.078 63.9062Z" fill="white"/>
<path d="M123.649 69.3082V66.9772C123.649 66.0217 122.719 65.6631 121.834 65.6631C120.834 65.6631 119.843 66.0052 119.775 67.1707H120.775C120.82 66.68 121.214 66.4511 121.775 66.4511C122.179 66.4511 122.714 66.5478 122.714 67.0645C122.714 67.652 122.075 67.5741 121.355 67.7039C120.513 67.8006 119.609 67.9847 119.609 69.1148C119.609 69.9995 120.346 70.4383 121.162 70.4383C121.697 70.4383 122.337 70.2708 122.731 69.8863C122.809 70.2992 123.099 70.4383 123.502 70.4383C123.67 70.4383 123.984 70.377 124.135 70.3251V69.6315C124.028 69.648 123.951 69.648 123.889 69.648C123.705 69.648 123.653 69.5512 123.653 69.3059L123.649 69.3082ZM122.648 68.7892C122.648 69.4215 121.964 69.648 121.525 69.648C121.174 69.648 120.605 69.5159 120.605 69.0699C120.605 68.5438 120.99 68.3857 121.421 68.315C121.86 68.2371 122.341 68.2442 122.648 68.0436V68.7892Z" fill="white"/>
<path d="M127.681 66.3717H127.664C127.357 65.8715 126.725 65.6615 126.157 65.6615C125.166 65.6615 124.194 66.3811 124.194 68.0209C124.194 69.3798 124.887 70.4415 126.315 70.4415C126.886 70.4415 127.454 70.2221 127.718 69.7054H127.735V70.3188H128.681V64.0596H127.681V66.3741V66.3717ZM126.444 69.6512C125.576 69.6512 125.192 68.8797 125.192 68.0987C125.192 67.3178 125.524 66.4496 126.463 66.4496C127.235 66.4496 127.716 67.0465 127.716 68.0445C127.716 68.8325 127.339 69.6488 126.444 69.6488V69.6512Z" fill="white"/>
<path d="M131.425 65.6611C130.075 65.6611 129.233 66.7653 129.233 68.0558C129.233 69.4502 130.031 70.4411 131.451 70.4411C132.442 70.4411 133.284 69.889 133.504 68.8981H132.557C132.383 69.3983 132.031 69.6531 131.453 69.6531C130.62 69.6531 130.234 69.0208 130.234 68.3106H133.565C133.732 66.9517 132.855 65.6635 131.425 65.6635V65.6611ZM130.231 67.65C130.257 66.9753 130.731 66.4492 131.423 66.4492C132.114 66.4492 132.527 67.0177 132.562 67.65H130.231Z" fill="white"/>
<path d="M135.037 64.0566H134.037V70.3159H135.037V64.0566Z" fill="white"/>
<path d="M32.9211 64.3893H36.4625V64.0566H32.5342V70.3159H32.9211V67.2299H36.1109V66.8973H32.9211V64.3893Z" fill="white"/>
<path d="M38.4513 65.7041C37.0923 65.7041 36.4435 66.905 36.46 68.1413C36.4435 69.387 37.1348 70.4204 38.4513 70.4204C39.52 70.4204 40.2231 69.8424 40.3977 68.7901H40.0651C39.907 69.6229 39.303 70.1325 38.4513 70.1325C37.3377 70.1325 36.7762 69.1676 36.7951 68.1082H40.4331C40.4945 66.8201 39.8621 65.7065 38.4513 65.7065V65.7041ZM36.7951 67.8181C36.8658 66.9239 37.4533 65.9943 38.4513 65.9943C39.4493 65.9943 40.0816 66.872 40.1004 67.8181H36.7951Z" fill="white"/>
<path d="M44.3802 66.817H44.3637C44.1277 66.1069 43.4341 65.7034 42.698 65.7034C41.339 65.7034 40.6902 66.7368 40.6902 68.0698C40.6902 69.3156 41.2777 70.4197 42.6366 70.4197C43.4435 70.4197 43.9956 70.0611 44.3637 69.351H44.3802V70.3159H44.7128V64.0566H44.3802V66.8194V66.817ZM42.7051 70.1319C41.5466 70.1319 41.0205 69.1315 41.0205 68.0722C41.0205 67.0129 41.5018 65.9936 42.6956 65.9936C43.8894 65.9936 44.3707 67.0199 44.3707 68.0722C44.3707 69.1245 43.8446 70.1319 42.7051 70.1319Z" fill="white"/>
<path d="M47.2467 65.7041C45.8877 65.7041 45.2389 66.905 45.2554 68.1413C45.2389 69.387 45.9302 70.4204 47.2467 70.4204C48.3155 70.4204 49.0185 69.8424 49.1931 68.7901H48.8605C48.7024 69.6229 48.0984 70.1325 47.2467 70.1325C46.1331 70.1325 45.5716 69.1676 45.5904 68.1082H49.2285C49.2899 66.8201 48.6576 65.7065 47.2467 65.7065V65.7041ZM45.5881 67.8181C45.6589 66.9239 46.2463 65.9943 47.2443 65.9943C48.2423 65.9943 48.8746 66.872 48.8935 67.8181H45.5881Z" fill="white"/>
<path d="M51.779 66.1167V65.7841C50.9627 65.7487 50.2266 66.2229 50.052 66.8104H50.026V65.81H49.6934V70.3163H50.026V67.8532C50.0614 67.1784 50.2006 66.8977 50.5357 66.5556C50.9391 66.1616 51.4298 66.0743 51.7814 66.1167H51.779Z" fill="white"/>
<path d="M55.1363 69.4837V66.8791C55.1363 65.9495 54.3483 65.7041 53.5579 65.7041C52.4962 65.7041 51.8828 66.2043 51.8403 67.1952H52.173C52.2178 66.4143 52.751 65.9943 53.5579 65.9943C54.5842 65.9943 54.8107 66.6785 54.8107 66.8791C54.8107 67.6152 54.7494 67.7119 53.2583 67.8181C52.5128 67.8794 51.6021 68.0988 51.6021 69.1511C51.6021 70.0972 52.2603 70.4227 53.1097 70.4227C53.959 70.4227 54.5748 69.958 54.7848 69.4224H54.8013V69.6583C54.8013 70.0264 54.8791 70.3166 55.4053 70.3166C55.4926 70.3166 55.5799 70.3001 55.6766 70.2812V70.0004C55.5704 70.0169 55.4926 70.0264 55.4312 70.0264C55.134 70.0264 55.134 69.7456 55.134 69.4837H55.1363ZM54.8037 68.599C54.8037 68.8349 54.6361 70.1325 53.1191 70.1325C52.3311 70.1325 51.9347 69.6937 51.9347 69.1511C51.9347 68.4763 52.3806 68.1955 53.171 68.1082C53.8198 68.021 54.5394 68.0563 54.8013 67.7567V68.599H54.8037Z" fill="white"/>
<path d="M57.7481 70.1321C56.5826 70.1321 56.0116 69.238 56.0116 68.0182C56.0116 66.9919 56.6156 65.9939 57.7481 65.9939C58.5644 65.9939 59.2132 66.4068 59.2746 67.2042H59.6072C59.5105 66.1779 58.7225 65.7061 57.7481 65.7061C56.4151 65.7061 55.679 66.7677 55.679 68.0205C55.679 69.2733 56.2829 70.4223 57.7481 70.4223C58.7201 70.4223 59.5011 69.8089 59.6497 68.7307H59.317C59.2038 69.5541 58.5904 70.1345 57.7481 70.1345V70.1321Z" fill="white"/>
<path d="M60.5275 64.0566H60.1948V64.9603H60.5275V64.0566Z" fill="white"/>
<path d="M60.5275 65.8096H60.1948V70.3159H60.5275V65.8096Z" fill="white"/>
<path d="M62.9574 65.1355L64.1324 63.9062H63.6841L62.6318 65.1355H62.9574Z" fill="white"/>
<path d="M63.1321 65.7041C61.8085 65.7041 61.063 66.7823 61.063 68.0634C61.063 69.3445 61.8085 70.4227 63.1321 70.4227C64.4557 70.4227 65.2012 69.3445 65.2012 68.0634C65.2012 66.7823 64.4557 65.7041 63.1321 65.7041ZM63.1321 70.1325C62.002 70.1325 61.3956 69.1416 61.3956 68.0634C61.3956 66.9852 61.9996 65.9943 63.1321 65.9943C64.2646 65.9943 64.8686 66.9852 64.8686 68.0634C64.8686 69.1416 64.2646 70.1325 63.1321 70.1325Z" fill="white"/>
<path d="M67.629 65.7035C66.9282 65.7035 66.244 66.0975 66.0152 66.7723H65.9987V65.8073H65.666V70.3137H65.9987V67.8765C65.9987 66.7723 66.6121 65.9914 67.6219 65.9914C68.8487 65.9914 68.903 66.9988 68.903 67.4636V70.3137H69.2357V67.5249C69.2357 66.9729 69.2191 65.7012 67.6313 65.7012L67.629 65.7035Z" fill="white"/>
<path d="M108.853 66.817H108.837C108.601 66.1069 107.907 65.7034 107.171 65.7034C105.812 65.7034 105.163 66.7368 105.163 68.0698C105.163 69.3156 105.751 70.4197 107.11 70.4197C107.917 70.4197 108.469 70.0611 108.837 69.351H108.853V70.3159H109.186V64.0566H108.853V66.8194V66.817ZM107.178 70.1319C106.02 70.1319 105.494 69.1315 105.494 68.0722C105.494 67.0129 105.975 65.9936 107.169 65.9936C108.363 65.9936 108.844 67.0199 108.844 68.0722C108.844 69.1245 108.318 70.1319 107.178 70.1319Z" fill="white"/>
<path d="M111.72 65.7041C110.361 65.7041 109.712 66.905 109.729 68.1413C109.712 69.387 110.403 70.4204 111.72 70.4204C112.789 70.4204 113.492 69.8424 113.666 68.7901H113.334C113.176 69.6229 112.572 70.1325 111.72 70.1325C110.606 70.1325 110.045 69.1676 110.064 68.1082H113.702C113.763 66.8201 113.131 65.7065 111.72 65.7065V65.7041ZM110.064 67.8181C110.134 66.9239 110.722 65.9943 111.72 65.9943C112.718 65.9943 113.35 66.872 113.369 67.8181H110.064Z" fill="white"/>
</svg>
