<svg width="200" height="80" viewBox="0 0 200 80" fill="none" xmlns="http://www.w3.org/2000/svg">
<path fill-rule="evenodd" clip-rule="evenodd" d="M39.4692 15.5312C52.9884 15.5313 63.9385 26.5425 63.9385 40.0005C63.9385 53.5197 52.9884 64.4696 39.4692 64.4697C25.95 64.4697 15 53.5197 15 40.0005C15 26.4812 25.95 15.5312 39.4692 15.5312ZM39.3468 18.468C35.8599 18.468 32.4951 19.3243 29.62 20.7925C33.841 25.2581 36.4715 31.2533 36.4715 37.86C36.4715 45.8736 32.6788 52.9696 26.8063 57.4963C30.3543 60.0656 34.6975 61.5341 39.4077 61.5341H39.7751C44.4854 61.5341 48.8285 60.0044 52.3765 57.4963C46.3817 52.9696 42.5889 45.8736 42.5888 37.86C42.5888 31.2533 45.2194 25.197 49.4403 20.7925C46.504 19.3244 43.2004 18.468 39.7136 18.468H39.3468ZM52.3156 22.5662C48.3394 26.4812 45.8925 31.9255 45.8924 37.9204C45.8924 45.1388 49.4402 51.5011 54.8234 55.4162C58.7997 51.5011 61.2466 46.0564 61.2466 40.0614C61.2465 32.8431 57.6987 26.4812 52.3156 22.5662ZM26.7454 22.5052C21.301 26.4814 17.8138 32.8433 17.8137 40.0005C17.8137 45.9954 20.2607 51.4402 24.2369 55.3553C29.6201 51.4402 33.1685 45.0779 33.1685 37.8594C33.1685 31.8646 30.7215 26.4202 26.7454 22.5052Z" fill="white"/>
<path d="M43.0785 25.4423C43.0785 27.3998 41.488 28.9903 39.5305 28.9903C37.5729 28.9903 35.9824 27.3998 35.9824 25.4423C35.9824 23.4847 37.5729 21.8942 39.5305 21.8942C41.488 21.8331 43.0785 23.4847 43.0785 25.4423Z" fill="white"/>
<path d="M74.2765 47.5847V34.9218H69.5662V33.209H80.9444V34.9218H76.234V47.5235H74.2765V47.5847Z" fill="white"/>
<path d="M83.208 47.584V33.2695H85.1044V47.584H83.208Z" fill="white"/>
<path d="M88.4688 47.584V33.2695H98.807V34.9824H90.3651V39.3257H98.2564V40.9773H90.3651V45.8712H99.174V47.584H88.4688Z" fill="white"/>
<path d="M107.249 47.584V33.2695H111.898C113.672 33.2695 114.773 33.3307 115.324 33.5142C116.119 33.7589 116.853 34.1871 117.404 34.9212C117.954 35.6553 118.26 36.5729 118.26 37.7352C118.26 38.5916 118.077 39.3257 117.771 39.9374C117.465 40.5491 117.037 40.9773 116.547 41.3444C116.058 41.7114 115.569 41.8949 115.018 42.0173C114.345 42.1396 113.305 42.2008 112.021 42.2008H110.124V47.584H107.249ZM110.124 35.6553V39.6927H111.715C112.877 39.6927 113.611 39.6315 113.978 39.448C114.345 39.3257 114.651 39.081 114.896 38.7751C115.14 38.4692 115.202 38.1022 115.202 37.674C115.202 37.1234 115.018 36.6952 114.712 36.3894C114.406 36.0223 114.039 35.8388 113.55 35.7776C113.183 35.7165 112.51 35.6553 111.47 35.6553H110.124Z" fill="white"/>
<path d="M120.646 47.5867V33.3945H123.521V45.2009H130.678V47.5867H120.646Z" fill="white"/>
<path d="M145.727 47.584H142.607L141.384 44.3419H135.633L134.471 47.584H131.412L136.979 33.2695H140.038L145.727 47.584ZM140.405 41.8949L138.447 36.5729L136.49 41.8949H140.405Z" fill="white"/>
<path d="M149.152 47.584V41.5891L143.892 33.2695H147.256L150.621 38.9586L153.924 33.2695H157.227L151.966 41.5891V47.584H149.152Z" fill="white"/>
<path d="M158.757 47.584V33.2695H169.401V35.7165H161.693V38.8975H168.85V41.2832H161.693V45.1983H169.645V47.584H158.757Z" fill="white"/>
<path d="M172.093 47.584V33.2695H178.149C179.678 33.2695 180.779 33.3919 181.513 33.6366C182.186 33.8813 182.737 34.3706 183.165 34.9824C183.593 35.6553 183.777 36.3894 183.777 37.2458C183.777 38.3469 183.471 39.2033 182.859 39.8762C182.247 40.5491 181.268 41.0385 180.045 41.222C180.657 41.5891 181.207 42.0173 181.574 42.4455C182.003 42.8737 182.553 43.669 183.226 44.7701L185 47.584H181.513L179.433 44.4642C178.699 43.3631 178.21 42.629 177.904 42.3843C177.659 42.0785 177.353 41.8949 177.048 41.7726C176.742 41.6502 176.252 41.5891 175.579 41.5891H174.968V47.584H172.093ZM174.968 39.3257H177.109C178.516 39.3257 179.372 39.2645 179.678 39.1421C180.045 39.0198 180.29 38.8363 180.473 38.5304C180.657 38.2246 180.779 37.8575 180.779 37.4293C180.779 36.9399 180.657 36.5729 180.412 36.267C180.167 35.9611 179.8 35.7776 179.311 35.7165C179.066 35.6553 178.393 35.6553 177.231 35.6553H174.968V39.3257Z" fill="white"/>
</svg>
