<svg width="28" height="33" viewBox="0 0 28 33" fill="none" xmlns="http://www.w3.org/2000/svg">
<path d="M18.6663 15.1667C18.6663 17.744 16.577 19.8333 13.9997 19.8333C11.4223 19.8333 9.33301 17.744 9.33301 15.1667C9.33301 12.5893 11.4223 10.5 13.9997 10.5C16.577 10.5 18.6663 12.5893 18.6663 15.1667Z" fill="#003EC4"/>
<path d="M16.333 21.3333H11.6663C8.44468 21.3333 5.83301 23.945 5.83301 27.1666C5.83301 28.4553 6.87768 29.4999 8.16634 29.4999H19.833C21.1217 29.4999 22.1663 28.4553 22.1663 27.1666C22.1663 23.945 19.5546 21.3333 16.333 21.3333Z" fill="#003EC4"/>
<path d="M13.5516 0.908493C13.735 0.53687 14.265 0.53687 14.4484 0.908493L15.3531 2.74174C15.426 2.88931 15.5667 2.99159 15.7296 3.01526L17.7527 3.30923C18.1628 3.36882 18.3266 3.87281 18.0298 4.16208L16.5659 5.58906C16.448 5.70393 16.3943 5.86943 16.4221 6.03162L16.7677 8.04655C16.8377 8.45501 16.409 8.76649 16.0422 8.57364L14.2327 7.62232C14.087 7.54574 13.913 7.54574 13.7673 7.62232L11.9578 8.57364C11.591 8.76649 11.1623 8.45501 11.2323 8.04655L11.5779 6.03162C11.6057 5.86943 11.552 5.70393 11.4341 5.58906L9.97019 4.16208C9.67343 3.87281 9.83719 3.36882 10.2473 3.30923L12.2704 3.01526C12.4333 2.99159 12.574 2.88931 12.6469 2.74174L13.5516 0.908493Z" fill="#003EC4"/>
<path d="M23.0516 8.90849C23.235 8.53687 23.765 8.53687 23.9484 8.90849L24.7062 10.444C24.779 10.5916 24.9198 10.6938 25.0827 10.7175L26.7772 10.9637C27.1873 11.0233 27.351 11.5273 27.0543 11.8166L25.8281 13.0118C25.7103 13.1267 25.6565 13.2922 25.6843 13.4544L25.9738 15.142C26.0438 15.5505 25.6151 15.862 25.2483 15.6691L23.7327 14.8723C23.587 14.7957 23.413 14.7957 23.2673 14.8723L21.7517 15.6691C21.3849 15.862 20.9562 15.5505 21.0262 15.142L21.3157 13.4544C21.3435 13.2922 21.2897 13.1267 21.1719 13.0118L19.9457 11.8166C19.649 11.5273 19.8127 11.0233 20.2228 10.9637L21.9173 10.7175C22.0802 10.6938 22.221 10.5916 22.2938 10.444L23.0516 8.90849Z" fill="#003EC4"/>
<path d="M4.05163 8.90849C4.23504 8.53687 4.76496 8.53687 4.94837 8.90849L5.70618 10.444C5.77901 10.5916 5.9198 10.6938 6.08265 10.7175L7.77717 10.9637C8.18728 11.0233 8.35104 11.5273 8.05428 11.8166L6.82811 13.0118C6.71027 13.1267 6.65649 13.2922 6.68431 13.4544L6.97377 15.142C7.04383 15.5505 6.61511 15.862 6.2483 15.6691L4.73267 14.8723C4.58701 14.7957 4.41299 14.7957 4.26733 14.8723L2.7517 15.6691C2.38489 15.862 1.95617 15.5505 2.02623 15.142L2.31569 13.4544C2.34351 13.2922 2.28973 13.1267 2.17189 13.0118L0.94572 11.8166C0.648962 11.5273 0.812717 11.0233 1.22283 10.9637L2.91735 10.7175C3.0802 10.6938 3.22099 10.5916 3.29382 10.444L4.05163 8.90849Z" fill="#003EC4"/>
</svg>
