<svg width="65" height="65" viewBox="0 0 65 65" fill="none" xmlns="http://www.w3.org/2000/svg">
<g opacity="0.5">
<path fill-rule="evenodd" clip-rule="evenodd" d="M32.0778 10.0011C32.8741 9.98381 33.4985 10.1721 34.0913 10.702C34.4735 11.0439 34.6252 11.3153 34.7883 11.819C35.1302 12.8743 34.9042 13.9022 34.5093 14.8993C34.333 15.3446 34.1414 15.8106 34.2121 16.2918C34.2021 16.3467 34.2894 16.6307 34.3396 16.6513C34.8859 16.875 35.4739 17.0362 36.0318 17.2256C36.3219 17.3193 36.6538 17.5015 36.9425 17.5816C37.4658 17.7267 37.8983 17.7314 38.2232 18.2578C38.4218 18.5797 38.6987 18.9389 38.8607 19.2857C39.2683 20.1584 39.4936 21.1208 39.903 21.998C40.1167 22.4611 40.4411 22.9021 40.5695 23.3871C40.6042 23.5186 40.33 23.8083 40.2516 23.898C40.4154 24.4144 40.6522 24.6908 40.9892 25.0834C41.5254 23.8991 41.9569 22.5841 42.4687 21.3835C42.8617 20.4617 43.4772 19.4048 44.0226 18.5402C44.4693 17.832 45.4629 16.3139 46.2802 16.1027C46.5075 16.044 46.785 16.1631 46.9724 16.2875C47.1593 16.4119 47.3446 16.6805 47.3656 16.9072C47.4759 18.106 46.0233 20.4656 45.4068 21.3852C45.0145 21.9781 44.589 22.5466 44.1319 23.0875C43.3845 23.9817 42.2929 24.9806 41.6499 25.9633L41.6292 25.9958C41.9866 26.7465 42.2242 27.5405 42.5067 28.3204C42.8088 29.1541 43.0337 30.0062 43.4886 30.7716C44.1174 31.8288 45.2838 32.4815 45.7545 33.6577C45.8238 33.8303 46.0364 34.0575 45.8853 34.22C45.7362 34.2672 45.6891 34.2337 45.5443 34.1626C45.5721 34.2889 45.7182 34.9934 45.69 35.0382C45.3207 35.6028 44.9828 34.0893 44.8083 33.786L44.7909 33.7569C44.8062 34.0775 44.8269 34.3976 44.853 34.7172C44.8697 34.9121 44.9067 35.203 44.9026 35.3908C44.7777 35.6102 44.533 35.4918 44.5028 35.3437C44.3856 34.7669 44.2855 34.2196 44.1311 33.6491C44.1297 33.9944 44.0869 34.3129 44.0309 34.653C44.0055 34.8078 44.02 35.2053 43.9067 35.283C43.4361 35.3019 43.6109 33.9532 43.5971 33.6046C43.4002 33.2612 43.2598 33.1545 43.0018 32.86C42.8284 32.662 42.6421 32.3873 42.4927 32.1693C42.3385 31.9645 42.4356 31.5495 42.3022 31.3562C41.8514 30.7051 41.303 30.1126 40.8419 29.4647C40.6888 29.2494 40.5074 29.0152 40.3393 28.8253C40.2434 29.2695 40.2509 29.3123 39.8111 29.3663C39.698 29.8888 39.4712 29.7717 39.0909 29.5674C38.912 29.7525 38.6882 29.9414 38.4294 29.9748C38.0028 30.0297 37.8258 29.723 37.5775 29.4441C37.4966 29.3533 37.365 29.2517 37.2679 29.1797C37.2416 29.4438 37.2208 29.6519 37.1627 29.9106C37.5932 30.4489 37.9587 30.8025 37.6967 31.583C37.8161 31.8264 37.8723 31.9143 37.9467 32.1787C38.561 32.3726 38.9961 32.6485 38.4567 33.2982C38.5038 33.4968 38.5818 33.8093 38.7109 33.9598C38.8052 34.0698 38.8848 34.1467 38.9568 34.2756C39.0584 34.4577 38.9991 34.6765 39.0876 34.8499C39.2326 35.1344 39.3979 35.3981 39.5421 35.6852C39.6976 35.9948 39.8341 36.3889 39.9908 36.6858C40.2072 37.0956 40.3375 37.2368 40.4892 37.6837C40.4663 37.7685 40.4379 37.8266 40.4022 37.9071C40.5572 38.4835 40.7015 39.1607 40.8642 39.7113C41.0558 40.3588 41.6208 41.3474 41.9984 41.9178C42.0834 42.046 42.3681 42.3278 42.4819 42.4613C42.813 42.8498 43.1471 43.2981 43.3388 43.7793C43.7696 44.8606 43.986 46.0332 44.3223 47.1506C44.3959 47.3946 44.5382 47.5272 44.5839 47.7181C44.8305 48.7475 44.8575 49.4022 45.4747 50.284L45.5062 50.2951C45.8058 50.4066 45.8274 50.4825 45.9599 50.7753C46.3447 50.9963 46.4003 51.6767 46.6205 52.1139C46.714 52.2996 46.8189 52.4794 46.9343 52.6514C47.0862 52.8745 47.3265 53.1752 47.4236 53.4191C47.4976 53.6055 47.5375 54.4658 47.4509 54.6191C47.2286 55.0117 46.4676 55.0002 46.084 54.9999C45.5603 54.9902 44.6077 54.9567 44.4382 54.2913C44.4115 54.1864 44.4201 53.9957 44.4208 53.8821C43.7497 53.4665 43.5753 53.3339 43.766 52.5444C43.8009 52.3999 43.6402 52.0381 43.612 51.816C43.5215 51.1022 43.4047 50.288 43.0382 49.6644C42.9048 49.3725 42.5985 49.0592 42.4653 48.7837C42.2229 48.2825 41.9714 47.8896 41.6317 47.4493C41.3609 47.0985 40.9753 46.7726 40.7516 46.388C40.4401 45.8532 40.2364 45.2057 40.0363 44.6172C39.8334 43.9523 39.6982 43.6296 39.2151 43.1323C38.9484 42.8578 38.6431 42.4794 38.3872 42.1797C38.0211 41.7507 37.6958 41.2556 37.3564 40.8026C37.1285 40.4965 36.8579 40.1722 36.6171 39.8722C36.111 39.8904 35.0073 40.08 34.7147 39.5393C34.3158 38.8071 33.9851 38.0509 33.5225 37.3551C33.1937 36.8604 33.0824 36.6484 32.5357 36.4067C32.3791 36.4547 32.1232 36.5465 32.0058 36.6661C31.4081 37.2764 30.87 38.1009 30.4187 38.8306C30.2846 39.0475 30.0882 39.5296 29.9063 39.6257C29.4476 39.8681 28.5397 39.6489 28.0916 39.5256C27.393 40.0398 26.6332 40.78 26.0185 41.388C25.8252 41.5793 25.4545 41.9299 25.29 42.1326C24.8557 42.6681 24.8433 43.6188 24.7047 44.2894C24.6014 44.7888 24.5241 45.262 24.3569 45.7496C24.1676 46.3021 23.8036 46.649 23.5183 47.1472C23.2785 47.566 23.268 47.9196 23.1333 48.3018C22.9042 48.864 22.7124 49.4239 22.5422 50.005C22.3559 50.6412 22.4636 50.3947 22.582 50.9516C22.6463 51.3494 22.6044 51.9068 22.7012 52.2902C22.7828 52.6136 23.1044 53.0577 22.7575 53.4165C22.3773 53.8093 21.6537 53.9111 21.1365 53.9301C21.06 54.0646 20.9808 54.2069 20.8682 54.3144C20.3487 54.8093 19.3418 54.8771 18.6776 54.8707C18.3915 54.8678 17.7988 54.8444 17.6014 54.6096C17.5147 54.5062 17.491 54.3752 17.5029 54.245C17.5848 53.3493 17.9365 53.2522 18.4947 52.7122C18.8043 52.3737 19.1017 52.0229 19.3383 51.6252C19.4098 51.53 19.4567 51.3753 19.5304 51.2863C19.7808 50.9841 19.7945 50.5572 20.013 50.2737C20.0804 50.1866 20.3295 50.2173 20.4311 50.2233C20.7013 49.3617 20.695 48.6266 20.7606 47.7361C20.7743 47.55 20.881 47.3124 20.9055 47.0907C21.0107 46.1361 21.0665 45.159 21.2325 44.2141C21.3319 43.6714 21.4979 43.1437 21.7267 42.6444C21.8998 42.2718 22.1075 41.9311 22.2442 41.5378C22.3263 41.3015 22.4595 41.0668 22.5522 40.8334C22.652 40.5822 22.6773 40.305 22.7956 40.0614C22.9524 39.7285 23.1954 39.4566 23.342 39.1216C23.4566 38.827 23.5058 38.3942 23.6309 38.0723C23.7558 37.7508 23.9076 37.4646 24.0341 37.1488C24.1002 36.9837 24.0614 36.8479 24.1641 36.6575C24.2469 36.483 24.4403 36.321 24.53 36.1611C24.8505 35.589 25.2325 35.0698 25.6203 34.5452C25.7588 34.3579 25.8139 33.9844 26.0061 33.8682C26.3157 33.6805 26.3184 33.4421 26.521 33.1732C26.4155 33.002 26.3004 32.8141 26.2942 32.6058C26.2805 32.1444 26.7856 32.1352 27.1014 32.0965C27.2087 31.8863 27.2388 31.8155 27.411 31.66C27.263 30.7706 27.4793 30.5962 28.1023 30.0621C28.1914 29.6763 28.0284 29.4399 28.0651 29.029C28.0987 28.6533 28.2612 28.3181 28.2604 27.9583C28.2601 27.7841 28.1627 27.5304 28.1089 27.3626C28.0083 27.0481 28.0519 26.7579 28.0965 26.4374C28.0389 26.2806 27.9837 26.1691 27.9102 26.0189C27.8217 26.0015 27.6615 25.9842 27.6304 25.8854C27.3965 25.1952 27.2971 24.3784 27.0476 23.6943C26.83 23.0977 26.7315 22.7942 26.6394 22.158C26.53 21.4013 26.2628 20.7084 26.5086 19.9267C26.6247 19.3693 27.0487 19.2456 27.3556 18.9254C28.0924 18.1564 28.792 17.9684 29.6861 17.4909C29.5307 17.1854 29.5934 17.1132 29.5462 16.7874C29.5362 16.7188 29.3997 16.5294 29.388 16.4493C29.3694 16.3216 29.4172 16.2493 29.3582 16.1215L29.2829 15.9614C29.2968 15.8125 29.3197 15.6614 29.34 15.513C29.2068 15.4687 28.9939 15.4237 28.9228 15.2879C28.777 15.0086 29.2091 14.4765 29.2821 14.1846C29.3414 13.9466 29.1153 13.7938 29.0221 13.6035C28.9119 13.3782 29.215 12.2286 29.3069 11.9542C29.2577 11.8727 29.2116 11.785 29.1661 11.7009C29.2172 11.4291 29.2974 11.1935 29.4807 10.9862C30.0713 10.3186 31.2527 10.0537 32.0778 10.0011ZM37.9318 29.3183C37.9371 29.6945 38.3587 29.7682 38.6388 29.5794L38.7837 29.4373C38.4144 29.4336 38.2321 29.3373 37.9318 29.3183ZM37.3465 23.9888C37.3223 24.7496 37.218 25.3575 37.1279 26.1079C37.0887 26.4356 37.1031 26.9129 37.1073 27.2514C37.1546 27.2544 37.3101 27.2634 37.3498 27.2531C37.6681 27.1705 37.9125 27.0053 38.2473 27.1675C38.3359 27.1163 38.4468 27.0476 38.5362 27.0032C38.7239 26.9056 38.911 26.8054 39.0967 26.7036C38.8026 26.0287 38.4309 25.2683 38.003 24.6606C37.9562 24.5941 37.7169 24.4691 37.6495 24.3953C37.5459 24.2814 37.4584 24.0827 37.3465 23.9888Z" fill="#003EC4"/>
</g>
</svg>
