<svg width="65" height="65" viewBox="0 0 65 65" fill="none" xmlns="http://www.w3.org/2000/svg">
<g opacity="0.5">
<path fill-rule="evenodd" clip-rule="evenodd" d="M33.6632 10.4113C34.2844 9.88656 34.6438 10.0101 35.4081 10.0186C35.4274 10.0185 35.9423 10.0211 35.9488 10.0212C37.1466 10.0212 37.3914 10.5388 37.9509 10.827C38.0886 10.9183 38.3939 11.2551 38.4375 11.4271C38.5267 11.6917 38.1602 11.805 38.0976 11.9912C38.0569 12.1122 38.1771 12.1172 38.0881 12.323C37.8971 12.7642 37.6999 13.1268 37.253 13.3343C37.302 13.5518 37.3482 13.7701 37.3915 13.9889L37.392 13.9916C37.4172 14.1255 37.4929 14.5275 37.4007 14.6773C37.2209 14.9692 37.5068 15.2073 37.1683 15.5098C37.1247 15.5487 37.1972 15.6548 37.2294 15.7189C37.2019 15.8757 37.1687 16.033 37.1294 16.1868C36.8663 17.216 37.101 17.1933 36.0451 17.2692C35.8876 17.4407 35.8416 17.5006 35.7207 17.7C36.3155 18.2469 37.0558 18.5104 37.4995 19.0007C37.906 19.562 38.2255 20.8261 38.1798 21.5053C38.098 22.7232 38.1401 23.6645 38.3666 24.8566C38.4212 25.1442 38.4574 25.7785 38.6288 26.002C39.1761 26.7155 39.9602 27.2269 40.8218 27.4511C40.8661 27.1612 40.8759 26.6501 40.8847 26.3434C40.9139 25.3312 41.17 24.5731 41.74 23.7379C42.2178 23.0339 42.9316 22.338 43.7931 22.1902C45.2355 21.9426 46.4296 23.0536 47.2821 24.0815C47.5798 24.4403 47.8817 24.821 47.9622 25.2943C48.0874 26.0303 47.8971 26.7895 47.4595 27.388C46.421 28.7707 45.1537 29.4128 43.4839 29.6906C43.5718 29.9546 43.7525 30.3835 43.3323 30.4559C43.0816 30.382 42.9815 30.1185 42.8113 29.9395C42.7529 29.8781 42.6407 29.7936 42.5658 29.7372L42.5532 29.7277C41.3647 30.3226 40.9801 32.7521 39.175 32.5191L39.1747 32.5241C39.1569 32.9628 39.1313 33.5958 38.7158 33.8647C38.3882 34.061 38.0285 33.7646 37.8963 33.4744C37.6446 32.9218 37.612 32.311 37.7865 31.738C36.9989 31.4978 36.9135 31.3628 36.0435 31.2588C36.3416 31.6441 36.4147 31.8757 36.1164 32.3005C36.3259 32.4877 36.7439 32.9872 36.938 33.2121C37.7366 34.1218 38.4837 35.0765 39.176 36.0715C39.5264 36.5858 39.8057 37.0846 40.1914 37.5947C40.5843 38.1143 41.3093 38.596 41.55 39.1691C41.7262 39.5885 41.6701 40.2856 41.798 40.7737C42.0259 41.6345 42.2783 42.4774 42.448 43.3538C42.7267 44.7925 42.858 46.2599 43.2885 47.666C43.389 47.9941 43.4991 48.3282 43.5797 48.6613C44.3771 48.088 44.4328 48.8512 44.2633 49.4594C44.6057 49.7738 45.0149 50.0488 45.3739 50.3409C45.7771 50.6646 46.1569 51.0815 46.6625 51.2376C47.2604 51.4222 47.3564 51.6601 47.4224 52.2503C46.4814 52.7338 45.351 52.7791 44.3274 52.5958L44.0033 52.275C43.6417 52.3858 41.8944 52.3731 41.8041 51.9039C41.7083 51.4055 41.9259 50.5588 41.9051 50.0361C41.8495 48.642 41.13 47.3955 40.5089 46.1903C39.9945 45.2501 39.6422 44.7853 39.3752 43.7528C39.263 43.3003 39.0003 41.3338 38.8831 41.1322C37.997 39.6085 35.6001 38.7344 34.3171 37.648L34.288 37.623C33.5098 37.9367 32.7593 38.0702 31.9816 38.3327C31.7678 37.8955 31.3729 37.3212 31.1181 36.8198C30.8246 37.3399 30.5344 37.862 30.2475 38.386L30.2218 38.3864C29.6369 38.3951 28.8885 38.4061 28.3286 38.2747C28.1796 38.6352 28.0455 39.0019 27.9265 39.3736C27.7709 39.875 27.5411 40.7799 27.2866 41.2057C26.8616 41.9171 26.2365 42.9512 25.677 43.5577C25.3474 43.9147 24.8279 44.2638 24.5145 44.68C24.0431 45.3196 23.7796 46.0346 23.31 46.6854C22.4417 47.8886 21.19 48.9181 20.6322 50.3219C20.4411 50.803 20.4333 51.2951 20.1112 51.7267C20.5583 52.0907 20.6412 52.5306 20.0387 52.7984C20.1248 53.3228 20.2737 53.4067 20.4614 53.8512C20.8794 54.8417 20.2891 55.0251 19.4712 54.9974C18.7364 54.9725 18.4084 55.0599 17.7066 54.7927C17.4644 54.4407 17.5689 54.295 17.4629 54.0378C17.3979 53.8801 17.163 53.8665 17 53.4223C17.0536 53.2147 17.1069 53.015 17.1434 52.8051C17.1958 52.5595 17.1855 52.0961 17.3081 51.8828C17.6659 51.2612 18.0906 50.6077 18.5419 50.0507C18.7658 49.7745 18.8791 49.5988 19.0293 49.2777C19.4443 48.393 19.8282 47.4936 20.18 46.5813C20.4635 45.8406 20.7808 44.777 21.1874 44.1331C21.8436 43.094 23.0314 42.5806 23.5297 41.4024C23.7676 40.8061 24.1516 40.0312 24.2293 39.393C24.4254 37.7831 24.7465 36.2538 25.2121 34.7001C25.3572 34.216 25.5138 33.5479 25.732 33.0972C25.3353 32.882 25.1621 32.7014 24.856 32.3797C24.9204 32.2956 24.9781 32.1978 25.0323 32.1058L25.0337 32.1035C25.2357 31.7609 25.4676 31.4594 25.7155 31.1495C25.7112 31.1176 25.7082 31.0838 25.7015 31.0524C25.5644 30.4102 26.6686 29.2497 26.813 28.5426C26.8431 28.3953 26.7892 28.2169 26.7883 28.0656C26.7847 27.5306 27.6621 26.8283 27.791 26.0028C27.8968 25.3242 27.9275 24.6301 28.026 23.9484C28.1268 23.2502 28.293 22.5638 28.3862 21.8642C28.4889 21.0934 28.4279 20.2908 28.7431 19.565C28.9752 19.0305 29.4639 18.5555 29.9037 18.1871C30.409 17.7638 30.9954 17.5116 31.5499 17.1681C31.9123 16.9435 32.2236 16.6723 32.5278 16.3736C32.2933 16.1435 32.1937 16.0552 31.9296 15.8776C31.9324 15.1073 31.6245 14.6154 31.2144 13.9809C31.2248 13.7018 31.2598 13.4702 31.3646 13.2088C31.4682 12.9502 31.3539 13.0518 31.3346 12.8677C31.4336 12.6086 31.5679 12.4091 31.69 12.1688C32.0058 11.5473 32.1741 11.1022 32.7165 10.624C33.0675 10.3145 33.1908 10.3855 33.6632 10.4113ZM38.2291 31.9467C38.146 32.074 38.0645 32.2022 37.9844 32.3314C38.0052 32.6993 38.08 33.463 38.4769 33.6063C38.5467 33.5958 38.5516 33.5995 38.6129 33.5597C38.895 33.1909 38.8234 32.8454 38.9056 32.405C38.5044 32.2503 38.3373 31.9849 38.2291 31.9467ZM36.0765 26.6672C35.8251 27.4255 35.6461 28.2564 35.4138 28.9355C36.4919 29.2969 37.986 30.0942 39.1747 29.9033C39.4282 29.8626 39.54 29.8355 39.8006 29.8304C40.0627 29.8461 40.2293 29.8775 40.4825 29.8042L40.5293 29.753C40.4469 29.4704 40.2124 29.4813 40.1179 29.1568C38.5902 28.9979 37.3561 29.0917 36.4713 27.5313C36.3805 27.3711 36.1641 26.7391 36.0765 26.6672Z" fill="#003EC4"/>
</g>
</svg>
