<svg width="65" height="65" viewBox="0 0 65 65" fill="none" xmlns="http://www.w3.org/2000/svg">
<path fill-rule="evenodd" clip-rule="evenodd" d="M30.3656 10.0087C31.0787 9.93104 32.4197 10.3831 32.7952 11.0307C33.2243 11.7717 33.2257 12.8648 33.0261 13.6683C33.7805 13.7693 33.1465 15.1914 32.8557 15.484C32.7871 15.5097 32.6822 15.5316 32.6075 15.5499C32.5775 15.9019 32.5714 16.3513 32.5686 16.7062C33.1483 16.9506 33.6289 17.0555 34.2319 17.2082C34.5735 17.2948 34.9368 17.4996 35.281 17.6025C35.6271 17.7058 36.017 17.7209 36.3172 17.9326C36.6664 18.2686 37.0982 18.8691 37.3085 19.3045C37.8423 20.4102 38.1096 21.653 38.778 22.7092C38.8985 22.8997 39.0527 23.197 39.098 23.4131C39.1241 23.5404 38.8407 23.8392 38.7615 23.928C38.8916 24.2468 39.021 24.4837 39.2252 24.7584C39.391 23.6996 39.1876 22.617 39.2174 21.5239C39.2762 19.3738 40.4972 16.3384 43.1139 16.4804C44.2705 16.5433 45.4912 17.25 46.2537 18.0986C47.3549 19.3247 47.0691 20.9791 46.1205 22.2004C45.3169 23.2615 44.2279 24.0627 42.9954 24.5771C41.9963 24.9942 41.0141 25.3014 40.1792 26.0114C40.6611 26.9144 40.9812 27.9834 41.3443 28.9475C41.7154 29.9336 42.0262 30.8911 42.8345 31.6433C43.0225 31.8183 43.2047 31.9895 43.3942 32.1624C43.5764 32.3375 43.6911 32.5739 43.9027 32.7346C44.162 32.9317 44.2784 33.243 44.4373 33.5146C44.5348 33.6936 44.7976 34.0652 44.6276 34.2424C44.4956 34.287 44.4174 34.2361 44.2954 34.1774C44.3427 34.3895 44.521 35.0011 44.3932 35.1558C44.063 35.3259 43.9371 34.7954 43.8569 34.5854C43.7548 34.3176 43.6659 34.0052 43.5083 33.7652C43.521 34.103 43.5417 34.4071 43.5741 34.7436C43.5884 34.8924 43.6378 35.292 43.6199 35.4192C43.5866 35.4647 43.5627 35.5106 43.5006 35.521C43.0929 35.5889 43.1146 34.8028 43.0482 34.5409C42.9709 34.2379 42.9037 33.9573 42.8233 33.6642C42.8125 33.9407 42.7301 35.2641 42.5015 35.3243C42.1467 35.1606 42.2707 33.984 42.2637 33.6181C42.0966 33.3347 41.934 33.1763 41.7049 32.9458C41.5345 32.7743 41.3883 32.5509 41.2361 32.3608C41.166 32.2731 41.0795 32.1649 41.0398 32.0598C40.9597 31.8233 41.0393 31.5374 40.8858 31.3243C40.6274 30.9661 40.3209 30.6442 40.0417 30.3022L39.22 29.2802C39.1556 29.1996 38.9252 28.8963 38.8584 28.8449C38.6639 29.0176 38.8874 29.3319 38.2876 29.287L38.2538 29.2845L38.2227 29.3674C38.0773 29.7564 37.8163 29.5617 37.5506 29.4205C37.0455 29.8976 36.4632 30.0092 36.0837 29.3384C35.8415 29.2249 35.8003 29.175 35.6296 28.9774C35.6558 29.3299 35.6224 29.5859 35.5379 29.9259C36.009 30.4787 36.3544 30.8081 36.0923 31.6056C36.2278 31.8447 36.2783 31.9304 36.3518 32.1949C37.0216 32.4 37.4431 32.6478 36.8924 33.3204C36.9342 33.4677 37.0391 33.8646 37.132 33.9482C37.5234 34.299 37.4282 34.4437 37.5463 34.8744C37.5789 34.9912 37.8459 35.3423 37.9252 35.5073C38.1132 35.8987 38.3058 36.2986 38.49 36.6936C38.703 37.0967 38.8551 37.2507 39.015 37.6976C38.9845 37.7967 38.9661 37.8288 38.9172 37.9226C39.0942 38.5027 39.212 39.0676 39.3774 39.6348C39.5735 40.3072 40.1388 41.246 40.5338 41.8473C40.6341 41.9997 40.9486 42.3049 41.0848 42.4563C41.4654 42.8794 41.8139 43.3477 42.0302 43.876C42.4339 44.8639 42.6403 45.925 42.9565 46.9438C42.9892 47.1907 43.248 47.5129 43.2938 47.7195C43.5162 48.7235 43.6111 49.4062 44.2141 50.2862C44.255 50.2991 44.2959 50.3135 44.3361 50.3281C44.5839 50.418 44.621 50.5508 44.7305 50.7797C45.1022 50.9892 45.2081 51.6693 45.4112 52.0976C45.5952 52.4847 46.2948 53.2788 46.3168 53.6131C46.3822 54.6066 46.4239 54.8519 45.3844 54.9892C44.7366 55.0062 43.7996 55.0607 43.2835 54.5761C43.0917 54.3958 43.123 54.1199 43.1295 53.8791C42.4128 53.4734 42.2414 53.3345 42.441 52.5329C42.483 52.3645 42.3076 52.0739 42.2793 51.841C42.184 51.0571 42.0426 50.1936 41.5908 49.525C41.4975 49.3 41.0727 48.8788 41.0052 48.6954C40.8226 48.1963 40.5134 47.8511 40.1852 47.4271C39.913 47.075 39.5401 46.7962 39.3004 46.411C38.7935 45.5949 38.6168 44.6414 38.2166 43.7828C37.9675 43.3174 37.1896 42.6517 36.8267 42.198C36.2073 41.4236 35.6101 40.6327 34.9627 39.8803C34.421 39.9032 33.7653 40.0024 33.2519 39.8024C33.0011 39.705 32.7455 39.1165 32.6127 38.8736C32.2108 38.1387 31.8192 37.3367 31.2314 36.7278C31.1006 36.5924 30.875 36.4914 30.7046 36.4173C30.5535 36.4648 30.2809 36.5591 30.1675 36.6679C29.5397 37.2698 28.9716 38.1032 28.5016 38.8283C28.3436 39.0726 28.1529 39.5492 27.9213 39.6553C27.4482 39.8721 26.508 39.6489 26.0504 39.5356C25.2719 40.1553 24.5558 40.7276 23.8535 41.4377C23.645 41.6484 23.3659 41.8755 23.171 42.0971C22.7262 42.6033 22.7076 43.3092 22.5863 43.9376C22.4471 44.6591 22.3139 45.5601 21.9437 46.2049C21.7883 46.4755 21.5391 46.7445 21.3676 47.0054C21.2481 47.1876 21.1372 47.4672 21.0536 47.6665C21.006 47.7972 20.9461 47.9083 20.9533 48.0488C20.9625 48.2385 20.7933 48.5097 20.7241 48.6903C20.5001 49.2742 20.2491 49.8693 20.1576 50.4897C20.1415 50.6033 20.2938 50.7725 20.3003 50.8891C20.3489 51.3515 20.3559 51.8459 20.4326 52.3029C20.5034 52.5235 20.6109 52.6545 20.6385 52.8904C20.7362 53.7332 19.4563 53.9045 18.7892 53.9304C18.7415 54.0172 18.6691 54.1435 18.6119 54.2204C18.3175 54.6158 17.4724 54.7959 16.9953 54.8396C16.472 54.8665 15.5857 54.9484 15.1349 54.6446C14.8486 54.4511 15.0844 53.7029 15.2335 53.4643C15.3997 53.1986 15.7083 53.022 15.9384 52.8126C16.1214 52.6458 16.2927 52.4223 16.4617 52.2387C16.5819 52.1018 16.8171 51.8018 16.9028 51.658C17.1041 51.3198 17.0806 51.2377 17.369 50.9387C17.4607 50.4352 17.4722 50.1814 18.0549 50.2289C18.3383 49.4454 18.3388 48.5299 18.4069 47.7084C18.4391 47.5008 18.5267 47.3111 18.5522 47.1012C18.6618 46.1968 18.7133 45.2673 18.8679 44.3695C18.9627 43.8046 19.1327 43.254 19.3739 42.7334C19.4949 42.4783 19.6656 42.1973 19.777 41.9517C19.8933 41.6052 20.1479 41.2027 20.2631 40.8715C20.441 40.3597 20.5073 39.953 20.8772 39.5125C20.939 39.4392 21.0708 39.2127 21.1038 39.1216C21.2215 38.7962 21.2662 38.436 21.3901 38.1099C21.516 37.7712 21.6998 37.4619 21.8373 37.1289C21.9075 36.964 21.8478 36.8521 21.9514 36.6739C22.0567 36.4932 22.2401 36.3323 22.345 36.1693C22.5081 35.9156 22.6375 35.6839 22.8181 35.4363C23.05 35.1189 23.3003 34.8056 23.5282 34.487C23.604 34.381 23.6662 34.1285 23.7635 33.9935C23.8469 33.8783 24.0724 33.763 24.1138 33.7002C24.2365 33.5121 24.279 33.3791 24.4234 33.1819C24.2689 32.9513 24.0541 32.6183 24.2686 32.3446C24.4306 32.1388 24.7744 32.1395 25.0185 32.1214C25.1373 31.9047 25.161 31.837 25.3533 31.6818C25.203 30.7938 25.4007 30.6253 26.0642 30.0935C26.1746 29.7191 25.9956 29.4354 26.0366 29.0493C26.0941 28.511 26.3844 28.09 26.1395 27.5492C25.9804 27.1982 26.0087 26.8385 26.0781 26.4715C26.0164 26.3116 25.9571 26.1964 25.8791 26.043C25.7008 26.0091 25.5934 26.0062 25.5418 25.813C25.3634 25.143 25.2114 24.4662 25.0038 23.8031C24.9095 23.5018 24.7624 23.2114 24.6812 22.9068C24.6141 22.6548 24.5984 22.3803 24.5376 22.126C24.362 21.2963 24.1113 20.4095 24.5558 19.6141C24.7171 19.3144 25.0485 19.1666 25.2849 18.9598C25.6783 18.6157 26.0324 18.3173 26.5071 18.078C26.9109 17.8745 27.3452 17.7193 27.7439 17.5016C28.0697 17.3237 28.3598 16.9669 28.7222 16.8747C28.4712 16.2749 28.4048 16.1469 28.3088 15.4977C27.9418 15.2283 27.8156 14.2519 27.8313 13.8086C27.8341 13.7293 27.9709 13.6555 28.0346 13.6213C27.8094 12.6773 27.7431 11.6068 28.4229 10.8357C28.8789 10.3187 29.7024 10.0646 30.3656 10.0087ZM36.3864 29.2178C36.4992 29.5584 36.7625 29.5547 37.0524 29.4102L37.1536 29.3307L37.1415 29.3067C36.9589 29.2798 36.5524 29.2082 36.3864 29.2178ZM35.7265 24.0075C35.7157 24.7758 35.6037 25.3766 35.5025 26.1354C35.466 26.4105 35.4726 26.8472 35.4774 27.1343C35.8378 27.1412 35.9894 26.9627 36.357 26.9017C36.488 26.9431 36.5198 26.9548 36.6381 27.0232L36.8777 26.9086C37.1032 26.7859 37.2641 26.7123 37.497 26.6118C37.2423 25.982 36.8192 25.2447 36.4202 24.6857C36.3631 24.6057 36.1311 24.5055 36.0439 24.4138C35.9382 24.3025 35.8462 24.0742 35.7265 24.0075ZM40.1368 23.5046C40.0645 23.7298 40.1002 24.0281 40.0754 24.2675C40.0536 24.4765 39.956 24.7697 40.046 24.962C40.1752 25.0528 40.2795 24.9553 40.3989 24.8807C40.5559 24.7828 40.7029 24.6788 40.8659 24.5891C41.0061 24.5203 41.2875 24.395 41.3936 24.2915C41.3573 24.1465 40.8877 24.0625 40.7457 23.975C40.5533 23.8557 40.3381 23.5447 40.1368 23.5046Z" fill="#012F93"/>
<path d="M48.2274 26.6152C49.0571 26.4753 49.8436 27.0298 49.9798 27.8511C50.1159 28.6723 49.5492 29.4459 48.7179 29.5753C47.8941 29.7032 47.1203 29.1497 46.9854 28.336C46.8507 27.5223 47.4054 26.7539 48.2274 26.6152Z" fill="#012F93"/>
</svg>
