<svg width="30" height="38" viewBox="0 0 30 38" fill="none" xmlns="http://www.w3.org/2000/svg">
<path fill-rule="evenodd" clip-rule="evenodd" d="M13.1705 0.00732129C13.7817 -0.0582334 14.9312 0.323472 15.253 0.870371C15.6208 1.49607 15.622 2.41919 15.451 3.09769C16.0976 3.18294 15.5541 4.38388 15.3049 4.63096C15.2461 4.65259 15.1562 4.67109 15.0921 4.68657C15.0664 4.9838 15.0612 5.3633 15.0588 5.66301C15.5557 5.86936 15.9677 5.95798 16.4845 6.08695C16.7773 6.16009 17.0887 6.33303 17.3837 6.41989C17.6804 6.50711 18.0146 6.5199 18.2719 6.69867C18.5712 6.98239 18.9413 7.48942 19.1215 7.8571C19.5791 8.79086 19.8082 9.84031 20.3811 10.7323C20.4844 10.8931 20.6166 11.1441 20.6554 11.3266C20.6778 11.4341 20.4349 11.6864 20.367 11.7614C20.4785 12.0306 20.5894 12.2306 20.7644 12.4627C20.9066 11.5686 20.7322 10.6544 20.7577 9.73126C20.8081 7.91563 21.8547 5.35243 24.0977 5.47234C25.089 5.52542 26.1353 6.12225 26.7888 6.83878C27.7327 7.87418 27.4878 9.27122 26.6747 10.3025C25.9859 11.1986 25.0525 11.8752 23.9961 12.3096C23.1396 12.6618 22.2978 12.9212 21.5822 13.5207C21.9952 14.2832 22.2696 15.186 22.5808 16.0001C22.8989 16.8328 23.1653 17.6414 23.8582 18.2765C24.0193 18.4243 24.1755 18.5689 24.3379 18.7149C24.4941 18.8628 24.5924 19.0624 24.7738 19.1981C24.996 19.3645 25.0958 19.6274 25.232 19.8568C25.3156 20.008 25.5408 20.3218 25.3951 20.4714C25.2819 20.5091 25.2149 20.466 25.1104 20.4165C25.1509 20.5955 25.3037 21.112 25.1941 21.2427C24.9111 21.3863 24.8032 20.9384 24.7345 20.761C24.647 20.5349 24.5708 20.271 24.4357 20.0684C24.4466 20.3536 24.4643 20.6105 24.4921 20.8946C24.5044 21.0202 24.5467 21.3577 24.5314 21.4651C24.5028 21.5035 24.4823 21.5423 24.429 21.5511C24.0796 21.6084 24.0982 20.9446 24.0413 20.7234C23.975 20.4676 23.9175 20.2306 23.8485 19.9831C23.8393 20.2166 23.7686 21.3341 23.5728 21.385C23.2686 21.2467 23.3749 20.2532 23.3689 19.9441C23.2257 19.7048 23.0863 19.5711 22.8899 19.3765C22.7438 19.2317 22.6185 19.043 22.4881 18.8825C22.428 18.8084 22.3539 18.7171 22.3198 18.6283C22.2511 18.4286 22.3194 18.1872 22.1879 18.0072C21.9663 17.7047 21.7036 17.4329 21.4643 17.1441L20.76 16.2811C20.7048 16.213 20.5073 15.9569 20.4501 15.9134C20.2833 16.0593 20.4749 16.3247 19.9608 16.2868L19.9319 16.2847L19.9052 16.3547C19.7806 16.6832 19.5568 16.5187 19.3291 16.3995C18.8961 16.8024 18.397 16.8966 18.0717 16.3302C17.8642 16.2343 17.8288 16.1922 17.6825 16.0254C17.705 16.323 17.6763 16.5392 17.6039 16.8263C18.0077 17.2932 18.3038 17.5713 18.0792 18.2448C18.1952 18.4466 18.2386 18.519 18.3016 18.7424C18.8756 18.9156 19.2369 19.1248 18.7649 19.6928C18.8008 19.8172 18.8906 20.1523 18.9703 20.2229C19.3058 20.5192 19.2241 20.6414 19.3254 21.0051C19.3534 21.1037 19.5822 21.4002 19.6501 21.5395C19.8113 21.8701 19.9764 22.2077 20.1343 22.5412C20.3169 22.8817 20.4472 23.0117 20.5843 23.3891C20.5581 23.4727 20.5424 23.4998 20.5005 23.5791C20.6522 24.069 20.7532 24.546 20.8949 25.0249C21.063 25.5928 21.5475 26.3855 21.8861 26.8933C21.9721 27.022 22.2416 27.2797 22.3584 27.4075C22.6846 27.7648 22.9834 28.1603 23.1687 28.6064C23.5148 29.4406 23.6917 30.3367 23.9627 31.197C23.9907 31.4055 24.2126 31.6775 24.2519 31.8521C24.4425 32.6999 24.5238 33.2764 25.0407 34.0194C25.0757 34.0304 25.1108 34.0425 25.1452 34.0548C25.3576 34.1308 25.3894 34.2429 25.4833 34.4362C25.8019 34.6131 25.8927 35.1874 26.0667 35.5491C26.2245 35.876 26.8242 36.5466 26.843 36.8289C26.899 37.6678 26.9348 37.8749 26.0438 37.9909C25.4885 38.0053 24.6854 38.0512 24.243 37.6421C24.0786 37.4898 24.1054 37.2568 24.111 37.0535C23.4967 36.7109 23.3498 36.5936 23.5209 35.9167C23.5569 35.7745 23.4065 35.5291 23.3822 35.3324C23.3006 34.6705 23.1794 33.9412 22.7921 33.3767C22.7121 33.1866 22.3481 32.831 22.2902 32.6761C22.1337 32.2547 21.8686 31.9631 21.5873 31.6051C21.354 31.3078 21.0344 31.0724 20.8289 30.7471C20.3944 30.0579 20.243 29.2528 19.9 28.5277C19.6864 28.1347 19.0197 27.5725 18.7086 27.1894C18.1777 26.5355 17.6658 25.8676 17.1109 25.2322C16.6465 25.2516 16.0845 25.3354 15.6445 25.1665C15.4295 25.0842 15.2104 24.5873 15.0966 24.3822C14.7521 23.7616 14.4164 23.0843 13.9126 22.5701C13.8005 22.4558 13.6072 22.3705 13.4611 22.308C13.3316 22.348 13.0979 22.4277 13.0007 22.5196C12.4626 23.0279 11.9757 23.7316 11.5728 24.3439C11.4374 24.5502 11.2739 24.9527 11.0754 25.0423C10.6699 25.2253 9.86398 25.0368 9.47177 24.9412C8.80446 25.4645 8.19067 25.9477 7.58867 26.5474C7.40997 26.7253 7.17076 26.9171 7.00373 27.1042C6.62249 27.5317 6.60649 28.1278 6.50256 28.6584C6.38322 29.2677 6.26902 30.0285 5.95171 30.573C5.81853 30.8015 5.60492 31.0287 5.45796 31.249C5.35548 31.4029 5.26049 31.639 5.18884 31.8073C5.14797 31.9176 5.09668 32.0114 5.10284 32.1301C5.11074 32.2903 4.96571 32.5193 4.90637 32.6718C4.71438 33.1648 4.49919 33.6674 4.42077 34.1913C4.40702 34.2872 4.53758 34.4301 4.5431 34.5286C4.58474 34.9191 4.59075 35.3365 4.65653 35.7224C4.71719 35.9087 4.80935 36.0194 4.83298 36.2186C4.91678 36.9303 3.81967 37.0749 3.24791 37.0968C3.20704 37.1701 3.14496 37.2767 3.09593 37.3416C2.84359 37.6755 2.1192 37.8276 1.7103 37.8645C1.26173 37.8872 0.501987 37.9564 0.115595 37.6999C-0.129755 37.5365 0.0723458 36.9047 0.200112 36.7032C0.342639 36.4788 0.607099 36.3297 0.804334 36.1529C0.961169 36.012 1.10802 35.8233 1.25287 35.6683C1.35594 35.5526 1.55751 35.2993 1.63097 35.1779C1.80352 34.8923 1.78338 34.8229 2.03057 34.5705C2.10913 34.1453 2.11899 33.931 2.61848 33.9711C2.86144 33.3095 2.86186 32.5364 2.92022 31.8427C2.94783 31.6674 3.02291 31.5072 3.04477 31.3299C3.1387 30.5662 3.18287 29.7813 3.31538 29.0231C3.39658 28.5461 3.54231 28.0812 3.74908 27.6415C3.85274 27.4261 3.99905 27.1889 4.09456 26.9814C4.19427 26.6888 4.41245 26.3489 4.51122 26.0693C4.66372 25.6371 4.72054 25.2936 5.0376 24.9217C5.09055 24.8597 5.20351 24.6685 5.23184 24.5916C5.33272 24.3168 5.37105 24.0126 5.47723 23.7372C5.58513 23.4512 5.74267 23.1901 5.86052 22.9088C5.9207 22.7696 5.86955 22.6751 5.95839 22.5246C6.04862 22.372 6.20582 22.2362 6.29571 22.0985C6.43552 21.8843 6.54642 21.6886 6.70124 21.4796C6.89997 21.2115 7.11458 20.9469 7.30991 20.6779C7.37484 20.5884 7.42814 20.3752 7.51157 20.2612C7.58306 20.1639 7.77637 20.0665 7.81183 20.0135C7.91696 19.8547 7.95339 19.7423 8.07724 19.5758C7.94478 19.3811 7.76063 19.0999 7.94453 18.8688C8.08335 18.695 8.37806 18.6956 8.58731 18.6803C8.6891 18.4973 8.70946 18.4402 8.87422 18.309C8.74545 17.5592 8.91487 17.4169 9.48363 16.9679C9.57821 16.6516 9.42477 16.4121 9.45991 16.0861C9.50919 15.6315 9.75808 15.276 9.54813 14.8193C9.41176 14.5229 9.43599 14.2192 9.49549 13.9093C9.44265 13.7743 9.39182 13.6769 9.32498 13.5475C9.17207 13.5188 9.08005 13.5163 9.03584 13.3532C8.88296 12.7874 8.7526 12.2159 8.5747 11.656C8.49385 11.4015 8.36774 11.1563 8.29817 10.8991C8.24066 10.6863 8.22717 10.4544 8.1751 10.2397C8.02456 9.53908 7.80966 8.79025 8.19067 8.11855C8.32895 7.86547 8.61296 7.74067 8.81565 7.56605C9.15286 7.27544 9.45632 7.02352 9.86322 6.82144C10.2093 6.64959 10.5816 6.51855 10.9234 6.33467C11.2026 6.18443 11.4513 5.88316 11.7619 5.80528C11.5467 5.2988 11.4898 5.19069 11.4075 4.64251C11.093 4.41502 10.9848 3.59048 10.9983 3.21613C11.0007 3.14921 11.1179 3.08684 11.1725 3.05797C10.9795 2.26082 10.9227 1.35688 11.5054 0.705706C11.8962 0.269119 12.6021 0.0545749 13.1705 0.00732129ZM18.3312 16.2283C18.4279 16.516 18.6536 16.5129 18.9021 16.3908L18.9888 16.3237L18.9784 16.3034C18.8219 16.2807 18.4735 16.2202 18.3312 16.2283ZM17.7656 11.8286C17.7563 12.4773 17.6603 12.9847 17.5735 13.6255C17.5423 13.8577 17.5479 14.2266 17.552 14.469C17.8609 14.4748 17.9909 14.3241 18.306 14.2726C18.4183 14.3075 18.4456 14.3174 18.547 14.3751L18.7523 14.2783C18.9456 14.1748 19.0835 14.1126 19.2831 14.0277C19.0649 13.4959 18.7022 12.8733 18.3601 12.4013C18.3112 12.3337 18.1124 12.2491 18.0376 12.1716C17.9471 12.0777 17.8682 11.8849 17.7656 11.8286ZM21.5458 11.4039C21.4839 11.594 21.5144 11.8459 21.4932 12.0481C21.4745 12.2246 21.3909 12.4722 21.468 12.6346C21.5787 12.7113 21.6681 12.6289 21.7705 12.566C21.9051 12.4833 22.0311 12.3954 22.1708 12.3197C22.291 12.2616 22.5322 12.1558 22.6231 12.0684C22.592 11.9459 22.1895 11.875 22.0678 11.8011C21.9028 11.7004 21.7184 11.4377 21.5458 11.4039Z" fill="#00B8FF"/>
<path d="M28.4807 14.0306C29.1918 13.9125 29.866 14.3807 29.9827 15.0742C30.0994 15.7677 29.6136 16.421 28.901 16.5302C28.195 16.6383 27.5317 16.1708 27.4161 15.4837C27.3006 14.7966 27.7761 14.1477 28.4807 14.0306Z" fill="#00B8FF"/>
</svg>
