<svg width="65" height="65" viewBox="0 0 65 65" fill="none" xmlns="http://www.w3.org/2000/svg">
<g opacity="0.5">
<path fill-rule="evenodd" clip-rule="evenodd" d="M33.7089 10.0044C34.4769 9.95983 35.712 10.2632 36.4181 10.5844C36.4847 10.6147 36.6813 10.731 36.7351 10.7264L36.6759 10.6133L36.6947 10.5993C37.2311 10.8017 37.5751 11.2812 37.3549 11.826C37.2387 12.1139 37.2039 12.2174 36.9094 12.3675C37.0544 12.8215 37.1597 13.4159 37.1277 13.893C37.0774 13.9516 36.9203 14.0913 36.9094 14.1576C36.8452 14.5493 37.426 15.0832 37.3163 15.4763C37.2757 15.6218 37.0388 15.5801 36.869 15.6516C36.7217 15.8192 36.8646 15.8992 36.8088 16.1238C36.7424 16.2056 36.6536 16.2414 36.5582 16.2929C36.5725 16.394 36.5763 16.3978 36.6444 16.4752C36.6355 16.5924 36.4506 16.7484 36.3588 16.8406C36.361 16.8842 36.3624 16.9284 36.3642 16.972L36.3669 17.0132C36.3889 17.4661 36.1613 17.6305 35.7003 17.6073C35.3565 17.5899 34.7852 17.3851 34.4805 17.5757C34.3283 17.6723 34.2589 17.9862 34.1275 18.0822C33.8321 18.2976 33.5961 18.4291 33.3244 18.6806C33.4935 19.011 33.7481 19.2897 33.9694 19.5875C34.311 20.0147 34.2152 20.5387 34.2568 21.0227C34.321 21.7679 34.0098 22.2267 33.8194 22.8908C33.6617 23.442 33.743 24.2366 33.6712 24.8132C33.603 25.3591 33.3882 25.8233 33.5984 26.3738C33.6817 26.4339 33.8186 26.507 33.9137 26.5604C34.2473 26.7474 34.6772 27.1048 35.0599 27.1816C35.5128 27.2724 36.0951 27.2733 36.5537 27.2509C36.7379 26.9096 37.0021 26.7541 37.2337 26.4395C37.424 26.181 37.5435 25.3411 37.9783 25.4853C38.0619 25.5131 38.0925 25.6023 38.1274 25.6772L38.1436 25.714L38.1697 25.7114C38.2559 25.5914 38.582 24.9025 38.6511 24.7475C39.5825 22.6544 42.2855 20.445 44.7036 21.6694C46.3726 22.5146 47.6574 25.3032 46.6367 27.0362C45.6222 28.7584 43.4458 29.2816 41.5408 29.0488C41.3556 29.0254 40.5164 28.8527 40.4279 28.8789C40.415 28.9871 40.3967 29.2452 40.2482 29.2521C39.9468 29.2653 39.5156 28.9162 39.2709 28.7632C39.2711 29.3945 38.902 29.2705 38.5029 29.0357C38.4526 29.1408 38.4166 29.1949 38.3511 29.2924L38.0358 29.3555C37.774 29.6545 37.4948 29.4974 37.1968 29.3441C36.9684 29.5667 36.8124 29.5092 36.5249 29.4379C36.5554 29.9488 36.3528 29.9591 35.906 29.8786C35.8996 29.9026 35.8926 29.9267 35.8854 29.9505C35.8556 30.049 35.8269 30.1418 35.7318 30.1932C35.583 30.1979 35.537 30.1917 35.4048 30.2589C35.3666 30.312 35.294 30.4196 35.2395 30.4438C34.9172 30.587 34.4378 30.445 34.1284 30.3395C33.68 30.6162 32.9621 30.7867 32.8888 30.0337C32.8769 29.9121 33.0042 29.767 33.0011 29.6289C32.7842 29.3812 31.7346 29.3927 31.3617 29.3441C30.4383 29.2235 29.5324 29.1118 28.6337 28.8605C28.1471 29.4883 28.1486 29.4544 27.4965 29.8497C27.5312 29.9814 27.5974 30.2226 27.5917 30.3553C27.5877 30.4465 27.4852 30.5685 27.5028 30.676C27.8145 31.2019 28.1155 30.7129 28.2439 31.8002C28.3326 31.9051 28.532 32.0456 28.5619 32.0867C28.7805 32.3865 29.014 32.6901 29.2338 32.9883C29.4649 33.302 29.7012 33.6518 29.9075 33.9802C30.0121 34.1468 30.1084 34.3833 30.2111 34.5567C30.4342 34.9337 30.6208 35.2887 30.7887 35.6923C30.9192 36.006 30.9292 36.2484 31.0806 36.5527C31.3555 37.1052 31.6469 37.6564 31.9079 38.2149C32.0601 38.5404 32.3262 38.929 32.3741 39.2778C32.52 40.3407 31.7352 41.3603 31.3465 42.3121C31.2684 42.5031 31.1603 42.9061 31.0941 43.1226C30.9523 43.5917 30.7931 44.056 30.6171 44.514C30.271 45.3882 29.8791 46.1996 29.4979 47.0559C29.4127 47.2473 29.3674 47.4846 29.2948 47.6815C29.06 48.3187 28.8976 48.8581 28.7846 49.5277C29.3221 49.8334 29.0086 50.2761 29.2158 50.5423C29.5897 51.0227 30.5837 51.5851 31.0968 51.9565C31.488 52.2397 32.6251 52.1277 33.019 52.5427C33.2472 52.783 33.3339 53.0994 33.0568 53.3576C32.0071 54.0135 30.4952 53.7065 29.3074 53.6625C28.9702 53.6502 28.6199 53.5563 28.2789 53.5495C27.6353 53.5459 27.0857 53.5878 26.4411 53.5714C26.0238 53.5484 24.8465 53.5313 24.8161 52.8109C24.8228 52.6302 25.038 52.3797 25.0631 52.229C25.144 51.7452 25.25 51.2811 25.3865 50.8096C25.4941 50.4379 25.5364 50.1599 26 50.2944C26.1872 49.7343 26.345 49.1648 26.4725 48.5893C26.5773 48.0961 26.6544 47.6175 26.7474 47.126C26.8055 46.8193 26.9299 46.6229 26.9603 46.2647C27.0204 45.2418 26.9423 44.4006 27.1947 43.3811C27.4892 42.1916 28.1234 41.3416 28.6292 40.2696C28.4183 39.5316 27.3781 38.7121 26.7662 38.1869C26.8525 38.5892 26.9503 39.7345 26.7932 40.1128C26.2207 41.4891 25.0953 42.6175 24.6014 44.0426C24.4911 44.3608 24.301 44.7511 24.1586 45.0625C23.9004 45.626 23.6284 46.1837 23.343 46.7343C23.1879 47.0411 23.0315 47.3448 22.884 47.6552C22.7973 47.8378 22.7747 48.0278 22.7106 48.1862C22.4089 48.9309 22.2258 49.5867 22.1465 50.3855C22.5801 50.6002 22.4791 51.042 22.5085 51.4632C22.997 52.1318 23.9878 52.893 24.7407 53.2814C24.9801 53.419 25.373 53.489 25.5886 53.652C25.8326 53.837 25.8546 54.3631 25.6416 54.5729C25.3002 54.9091 24.5437 54.9489 24.0948 54.976C23.2191 55.0289 22.3432 54.9932 21.4764 54.8805C21.1501 54.8365 20.7731 54.7065 20.4317 54.6632C19.7707 54.579 18.7438 54.6461 18.1977 54.2207C18.0955 54.1411 18.0035 53.9822 18.0001 53.8439C17.9939 53.5917 18.2593 53.2734 18.2983 53.0807C18.3758 52.7054 18.4635 52.3445 18.5525 51.9697C18.6147 51.7081 18.6237 51.301 18.8292 51.1075C18.9812 50.9643 19.2042 51.0011 19.3987 51.012C19.7126 50.0804 19.8499 49.0742 20.0086 48.1073C20.0523 47.9611 20.0353 47.5251 20.129 47.4178C20.2879 47.2357 20.2593 47.0081 20.3185 46.7694C20.5424 45.8669 20.5531 44.8803 20.7506 43.9839C20.8395 43.5876 20.9782 43.2035 21.162 42.8396C21.3371 42.4873 21.5048 42.2393 21.6929 41.9274C21.97 41.4678 22.9219 40.4745 23.0277 40.0637C23.1564 39.5629 22.1839 38.3654 21.8815 37.9336C21.6326 38.0095 21.3424 38.0959 21.0793 38.08C20.9924 38.0749 20.8923 38.0548 20.8359 37.9845C20.631 37.7283 20.2205 35.1218 20.0481 34.5926C19.9211 34.2029 19.6568 33.8229 19.4535 33.4658C19.1256 32.8896 18.8608 32.2533 18.707 31.6118C18.5463 30.9411 18.5603 30.306 18.6558 29.6289C18.5238 29.3759 18.6962 29.2034 18.7906 28.9498C18.9676 28.4742 19.1524 27.9913 19.4158 27.554C19.5299 27.3645 19.7327 27.2011 19.8478 27.0081C19.982 26.7712 20.0131 26.5138 20.2053 26.2888C20.4294 26.0265 20.8529 25.8133 21.0299 25.5273C21.1757 25.292 21.327 25.0128 21.4674 24.7685C21.8213 24.1422 22.1797 23.518 22.5417 22.8961C23.2338 21.7318 24.0912 20.5508 24.9338 19.4859C25.348 18.9624 25.8385 18.2761 26.3953 17.8903C26.901 17.5398 27.7547 16.9301 28.3247 16.7249C28.9445 16.5019 29.8026 16.5631 30.3647 16.1817L30.6566 16.1931C30.878 16.0288 31.0473 16.0085 31.1794 15.755C31.5801 14.9862 31.1705 14.0689 30.9962 13.2954C30.8499 12.6465 31.0054 11.9526 31.3034 11.3695C31.3656 11.2499 31.656 11.1127 31.6905 10.9884L31.5683 10.9954L31.5477 10.9735C32.4704 10.3829 32.463 10.0989 33.7089 10.0044ZM33.214 29.8865C33.0853 30.3296 33.4369 30.3235 33.7565 30.2344L33.7897 30.1967C33.583 29.9655 33.3845 30.0006 33.214 29.8865ZM38.2864 27.1387C38.4788 27.3241 39.0407 27.796 39.2817 27.8598C39.4231 27.8818 39.6959 27.966 39.738 27.7932C39.645 27.5312 39.2629 27.3526 39.1218 27.0397C39.0018 26.7739 39.0817 26.2415 38.8083 26.2108L38.2864 27.1387ZM30.9 25.8752C30.7116 26.1509 30.4847 26.4572 30.3072 26.7313L30.5973 26.9083L30.9845 27.1229C30.9577 26.8481 30.9466 26.0508 30.9 25.8752Z" fill="#003EC4"/>
</g>
</svg>
