<svg width="32" height="32" viewBox="0 0 32 32" fill="none" xmlns="http://www.w3.org/2000/svg">
<path d="M10.6665 9.33333C10.6665 9.33333 13.5942 5.71181 15.2057 4.31852C15.4648 4.09453 15.7557 3.98869 16.0448 4.00096C16.3041 4.01196 16.5618 4.11792 16.7942 4.31882C18.4053 5.71237 21.3332 9.33333 21.3332 9.33333M16.0448 5.33333V20" stroke="#86A7D2" stroke-width="2" stroke-linecap="round" stroke-linejoin="round"/>
<path d="M10.6668 14.6667C8.79999 14.6667 7.86656 14.6667 7.15352 15.03C6.52632 15.3496 6.01639 15.8595 5.6968 16.4867C5.3335 17.1998 5.3335 18.1332 5.3335 20V21.3334C5.3335 24.476 5.3335 26.0474 6.3098 27.0238C7.28612 28 8.85747 28 12.0002 28H20.0002C23.1428 28 24.7142 28 25.6906 27.0238C26.6668 26.0474 26.6668 24.476 26.6668 21.3334V20C26.6668 18.1332 26.6668 17.1998 26.3035 16.4867C25.9839 15.8595 25.474 15.3496 24.8468 15.03C24.1338 14.6667 23.2003 14.6667 21.3335 14.6667" stroke="#86A7D2" stroke-width="2" stroke-linecap="round" stroke-linejoin="round"/>
</svg>
