<svg width="153" height="72" viewBox="0 0 153 72" fill="none" xmlns="http://www.w3.org/2000/svg">
<g filter="url(#filter0_d_1547_11424)">
<rect x="13" y="13" width="119" height="38" rx="19" stroke="#0E2969" stroke-width="2" shape-rendering="crispEdges"/>
<g clip-path="url(#clip0_1547_11424)">
<path d="M46.6663 32C46.6663 28.3181 43.6815 25.3334 39.9997 25.3334C36.3178 25.3334 33.333 28.3181 33.333 32C33.333 35.6819 36.3178 38.6667 39.9997 38.6667C43.6815 38.6667 46.6663 35.6819 46.6663 32Z" stroke="#1F6CD0" stroke-linecap="round" stroke-linejoin="round"/>
<path d="M39.9997 29.3334V34.6667M42.6663 32H37.333" stroke="#1F6CD0" stroke-linecap="round" stroke-linejoin="round"/>
<path d="M42.6663 32.0001H37.333" stroke="#1F6CD0" stroke-linecap="round" stroke-linejoin="round"/>
</g>
<path d="M55.4611 37.5H53.8304L57.4945 27.3182H59.2694L62.9334 37.5H61.3027L58.4242 29.1676H58.3446L55.4611 37.5ZM55.7346 33.5128H61.0243V34.8054H55.7346V33.5128ZM67.0201 37.6491C66.4036 37.6491 65.8534 37.4917 65.3695 37.1768C64.8889 36.8587 64.5111 36.4062 64.236 35.8196C63.9642 35.2296 63.8283 34.522 63.8283 33.6967C63.8283 32.8714 63.9658 32.1655 64.2409 31.5788C64.5194 30.9922 64.9005 30.5431 65.3844 30.2315C65.8683 29.92 66.4168 29.7642 67.03 29.7642C67.504 29.7642 67.8851 29.8438 68.1735 30.0028C68.4651 30.1586 68.6905 30.3409 68.8496 30.5497C69.012 30.7585 69.138 30.9425 69.2275 31.1016H69.3169V27.3182H70.8034V37.5H69.3517V36.3118H69.2275C69.138 36.4742 69.0087 36.6598 68.8397 36.8686C68.6739 37.0774 68.4453 37.2597 68.1536 37.4155C67.8619 37.5713 67.4841 37.6491 67.0201 37.6491ZM67.3482 36.3814C67.7757 36.3814 68.137 36.2687 68.432 36.0433C68.7303 35.8146 68.9557 35.4981 69.1081 35.0938C69.2639 34.6894 69.3418 34.2187 69.3418 33.6818C69.3418 33.1515 69.2656 32.6875 69.1131 32.2898C68.9606 31.892 68.7369 31.5821 68.4419 31.3601C68.147 31.138 67.7824 31.027 67.3482 31.027C66.9007 31.027 66.5279 31.143 66.2296 31.375C65.9313 31.607 65.7059 31.9235 65.5534 32.3246C65.4043 32.7256 65.3297 33.178 65.3297 33.6818C65.3297 34.1922 65.406 34.6513 65.5584 35.0589C65.7109 35.4666 65.9363 35.7898 66.2346 36.0284C66.5362 36.2637 66.9074 36.3814 67.3482 36.3814ZM75.7837 37.6491C75.1673 37.6491 74.6171 37.4917 74.1332 37.1768C73.6526 36.8587 73.2747 36.4062 72.9996 35.8196C72.7279 35.2296 72.592 34.522 72.592 33.6967C72.592 32.8714 72.7295 32.1655 73.0046 31.5788C73.283 30.9922 73.6642 30.5431 74.1481 30.2315C74.632 29.92 75.1805 29.7642 75.7937 29.7642C76.2676 29.7642 76.6488 29.8438 76.9371 30.0028C77.2288 30.1586 77.4542 30.3409 77.6133 30.5497C77.7757 30.7585 77.9016 30.9425 77.9911 31.1016H78.0806V27.3182H79.5671V37.5H78.1154V36.3118H77.9911C77.9016 36.4742 77.7724 36.6598 77.6033 36.8686C77.4376 37.0774 77.2089 37.2597 76.9173 37.4155C76.6256 37.5713 76.2478 37.6491 75.7837 37.6491ZM76.1119 36.3814C76.5394 36.3814 76.9007 36.2687 77.1957 36.0433C77.494 35.8146 77.7193 35.4981 77.8718 35.0938C78.0276 34.6894 78.1055 34.2187 78.1055 33.6818C78.1055 33.1515 78.0292 32.6875 77.8768 32.2898C77.7243 31.892 77.5006 31.5821 77.2056 31.3601C76.9106 31.138 76.546 31.027 76.1119 31.027C75.6644 31.027 75.2915 31.143 74.9933 31.375C74.695 31.607 74.4696 31.9235 74.3171 32.3246C74.168 32.7256 74.0934 33.178 74.0934 33.6818C74.0934 34.1922 74.1696 34.6513 74.3221 35.0589C74.4746 35.4666 74.6999 35.7898 74.9982 36.0284C75.2998 36.2637 75.671 36.3814 76.1119 36.3814ZM86.8803 32.9659V37.5H85.3938V29.8636H86.8207V31.1065H86.9151C87.0908 30.7022 87.3659 30.3774 87.7404 30.1321C88.1183 29.8868 88.5939 29.7642 89.1673 29.7642C89.6876 29.7642 90.1433 29.8736 90.5344 30.0923C90.9255 30.3078 91.2288 30.6293 91.4442 31.0568C91.6597 31.4844 91.7674 32.013 91.7674 32.6428V37.5H90.2809V32.8217C90.2809 32.2682 90.1367 31.8357 89.8484 31.5241C89.56 31.2093 89.1639 31.0518 88.6602 31.0518C88.3155 31.0518 88.0089 31.1264 87.7404 31.2756C87.4753 31.4247 87.2648 31.6435 87.109 31.9318C86.9566 32.2169 86.8803 32.5616 86.8803 32.9659ZM97.0522 37.6541C96.2998 37.6541 95.6519 37.4934 95.1083 37.1719C94.5681 36.8471 94.1504 36.3913 93.8555 35.8047C93.5638 35.2147 93.418 34.5237 93.418 33.7315C93.418 32.9493 93.5638 32.2599 93.8555 31.6634C94.1504 31.0668 94.5614 30.6011 95.0884 30.2663C95.6187 29.9316 96.2385 29.7642 96.9478 29.7642C97.3787 29.7642 97.7963 29.8355 98.2006 29.978C98.605 30.1205 98.9679 30.3442 99.2894 30.6491C99.6109 30.9541 99.8645 31.3501 100.05 31.8374C100.236 32.3213 100.328 32.9096 100.328 33.6023V34.1293H94.2582V33.0156H98.8718C98.8718 32.6245 98.7923 32.2782 98.6332 31.9766C98.4741 31.6716 98.2504 31.4313 97.962 31.2557C97.677 31.08 97.3422 30.9922 96.9577 30.9922C96.5401 30.9922 96.1755 31.0949 95.864 31.3004C95.5558 31.5026 95.3171 31.7678 95.1481 32.0959C94.9824 32.4207 94.8995 32.7737 94.8995 33.1548V34.0249C94.8995 34.5353 94.989 34.9695 95.168 35.3274C95.3503 35.6854 95.6038 35.9588 95.9286 36.1477C96.2534 36.3333 96.6329 36.4261 97.0671 36.4261C97.3488 36.4261 97.6057 36.3864 97.8377 36.3068C98.0697 36.224 98.2702 36.1013 98.4393 35.9389C98.6083 35.7765 98.7376 35.576 98.8271 35.3374L100.234 35.5909C100.121 36.0052 99.9192 36.3681 99.6275 36.6797C99.3391 36.9879 98.9762 37.2282 98.5387 37.4006C98.1045 37.5696 97.609 37.6541 97.0522 37.6541ZM103.62 37.5L101.373 29.8636H102.909L104.405 35.4716H104.48L105.981 29.8636H107.517L109.009 35.4467H109.083L110.57 29.8636H112.106L109.864 37.5H108.348L106.797 31.9865H106.682L105.131 37.5H103.62Z" fill="#1F6CD0"/>
</g>
<defs>
<filter id="filter0_d_1547_11424" x="0" y="0" width="153" height="72" filterUnits="userSpaceOnUse" color-interpolation-filters="sRGB">
<feFlood flood-opacity="0" result="BackgroundImageFix"/>
<feColorMatrix in="SourceAlpha" type="matrix" values="0 0 0 0 0 0 0 0 0 0 0 0 0 0 0 0 0 0 127 0" result="hardAlpha"/>
<feOffset dx="4" dy="4"/>
<feGaussianBlur stdDeviation="8"/>
<feComposite in2="hardAlpha" operator="out"/>
<feColorMatrix type="matrix" values="0 0 0 0 0 0 0 0 0 0 0 0 0 0 0 0 0 0 0.1 0"/>
<feBlend mode="normal" in2="BackgroundImageFix" result="effect1_dropShadow_1547_11424"/>
<feBlend mode="normal" in="SourceGraphic" in2="effect1_dropShadow_1547_11424" result="shape"/>
</filter>
<clipPath id="clip0_1547_11424">
<rect width="16" height="16" fill="white" transform="translate(32 24)"/>
</clipPath>
</defs>
</svg>
