<svg width="48" height="50" viewBox="0 0 48 50" fill="none" xmlns="http://www.w3.org/2000/svg">
<path d="M9 15.75C9 14.5938 9.02019 13.4652 9.05863 12.3755C9.18423 8.81525 9.24703 7.03513 10.6951 5.57617C12.1432 4.11721 13.9735 4.0389 17.6343 3.88229C19.6428 3.79635 21.7813 3.75 24 3.75C26.2186 3.75 28.3572 3.79635 30.3657 3.88229C34.0264 4.0389 35.8569 4.11721 37.3048 5.57617C38.7529 7.03513 38.8158 8.81525 38.9413 12.3755C38.9797 13.4652 39 14.5938 39 15.75C39 16.9062 38.9797 18.0348 38.9413 19.1245C38.8158 22.6848 38.7529 24.4649 37.3048 25.9239C35.8569 27.3828 34.0264 27.4611 30.3655 27.6177C29.2647 27.6648 28.1247 27.7001 26.9539 27.7223C25.8423 27.7433 25.2864 27.7539 24.798 27.9399C24.3096 28.1259 23.8987 28.4782 23.0767 29.1829L19.8075 31.9863C19.6091 32.1564 19.3563 32.25 19.0949 32.25C18.4902 32.25 18 31.7598 18 31.1551V27.6328C17.8776 27.6279 17.7557 27.623 17.6343 27.6177C13.9735 27.4611 12.1432 27.3828 10.6951 25.9237C9.24703 24.4648 9.18423 22.6848 9.05863 19.1245C9.02019 18.0348 9 16.9062 9 15.75Z" stroke="white" stroke-width="2" stroke-linecap="round" stroke-linejoin="round"/>
<path d="M0.878906 39H2.34375L4.89063 45.2187H4.98438L7.53125 39H8.99609V47H7.84766V41.2109H7.77344L5.41406 46.9883H4.46094L2.10156 41.207H2.02734V47H0.878906V39ZM13.2432 47.1211C12.652 47.1211 12.1429 46.9948 11.7158 46.7422C11.2913 46.487 10.9632 46.1289 10.7314 45.668C10.5023 45.2044 10.3877 44.6615 10.3877 44.0391C10.3877 43.4245 10.5023 42.8828 10.7314 42.4141C10.9632 41.9453 11.2861 41.5794 11.7002 41.3164C12.1169 41.0534 12.6038 40.9219 13.1611 40.9219C13.4997 40.9219 13.8278 40.9779 14.1455 41.0898C14.4632 41.2018 14.7484 41.3776 15.001 41.6172C15.2536 41.8568 15.4528 42.168 15.5986 42.5508C15.7445 42.931 15.8174 43.3932 15.8174 43.9375V44.3516H11.0479V43.4766H14.6729C14.6729 43.1693 14.6104 42.8971 14.4854 42.6602C14.3604 42.4206 14.1846 42.2318 13.958 42.0937C13.734 41.9557 13.471 41.8867 13.1689 41.8867C12.8408 41.8867 12.5544 41.9674 12.3096 42.1289C12.0674 42.2878 11.8799 42.4961 11.7471 42.7539C11.6169 43.0091 11.5518 43.2865 11.5518 43.5859V44.2695C11.5518 44.6706 11.6221 45.0117 11.7627 45.293C11.9059 45.5742 12.1051 45.7891 12.3604 45.9375C12.6156 46.0833 12.9137 46.1562 13.2549 46.1562C13.4762 46.1562 13.6781 46.125 13.8604 46.0625C14.0426 45.9974 14.2002 45.901 14.333 45.7734C14.4658 45.6458 14.5674 45.4883 14.6377 45.3008L15.7432 45.5C15.6546 45.8255 15.4958 46.1107 15.2666 46.3555C15.04 46.5977 14.7549 46.7865 14.4111 46.9219C14.07 47.0547 13.6807 47.1211 13.2432 47.1211ZM21.6094 42.4648L20.5508 42.6523C20.5065 42.5169 20.4362 42.388 20.3398 42.2656C20.2461 42.1432 20.1185 42.043 19.957 41.9648C19.7956 41.8867 19.5938 41.8477 19.3516 41.8477C19.0208 41.8477 18.7448 41.9219 18.5234 42.0703C18.3021 42.2161 18.1914 42.4049 18.1914 42.6367C18.1914 42.8372 18.2656 42.9987 18.4141 43.1211C18.5625 43.2435 18.8021 43.3437 19.1328 43.4219L20.0859 43.6406C20.638 43.7682 21.0495 43.9648 21.3203 44.2305C21.5911 44.4961 21.7266 44.8411 21.7266 45.2656C21.7266 45.625 21.6224 45.9453 21.4141 46.2266C21.2083 46.5052 20.9206 46.724 20.5508 46.8828C20.1836 47.0417 19.7578 47.1211 19.2734 47.1211C18.6016 47.1211 18.0534 46.9779 17.6289 46.6914C17.2044 46.4023 16.944 45.9922 16.8477 45.4609L17.9766 45.2891C18.0469 45.5833 18.1914 45.806 18.4102 45.957C18.6289 46.1055 18.9141 46.1797 19.2656 46.1797C19.6484 46.1797 19.9544 46.1003 20.1836 45.9414C20.4128 45.7799 20.5273 45.5833 20.5273 45.3516C20.5273 45.1641 20.457 45.0065 20.3164 44.8789C20.1784 44.7513 19.9661 44.6549 19.6797 44.5898L18.6641 44.3672C18.1042 44.2396 17.6901 44.0365 17.4219 43.7578C17.1563 43.4792 17.0234 43.1263 17.0234 42.6992C17.0234 42.3451 17.1224 42.0352 17.3203 41.7695C17.5182 41.5039 17.7917 41.2969 18.1406 41.1484C18.4896 40.9974 18.8893 40.9219 19.3398 40.9219C19.9883 40.9219 20.4987 41.0625 20.8711 41.3437C21.2435 41.6224 21.4896 41.9961 21.6094 42.4648ZM27.5068 42.4648L26.4482 42.6523C26.404 42.5169 26.3337 42.388 26.2373 42.2656C26.1436 42.1432 26.016 42.043 25.8545 41.9648C25.693 41.8867 25.4912 41.8477 25.249 41.8477C24.9183 41.8477 24.6423 41.9219 24.4209 42.0703C24.1995 42.2161 24.0889 42.4049 24.0889 42.6367C24.0889 42.8372 24.1631 42.9987 24.3115 43.1211C24.46 43.2435 24.6995 43.3437 25.0303 43.4219L25.9834 43.6406C26.5355 43.7682 26.9469 43.9648 27.2178 44.2305C27.4886 44.4961 27.624 44.8411 27.624 45.2656C27.624 45.625 27.5199 45.9453 27.3115 46.2266C27.1058 46.5052 26.818 46.724 26.4482 46.8828C26.0811 47.0417 25.6553 47.1211 25.1709 47.1211C24.499 47.1211 23.9508 46.9779 23.5264 46.6914C23.1019 46.4023 22.8415 45.9922 22.7451 45.4609L23.874 45.2891C23.9443 45.5833 24.0889 45.806 24.3076 45.957C24.5264 46.1055 24.8115 46.1797 25.1631 46.1797C25.5459 46.1797 25.8519 46.1003 26.0811 45.9414C26.3102 45.7799 26.4248 45.5833 26.4248 45.3516C26.4248 45.1641 26.3545 45.0065 26.2139 44.8789C26.0758 44.7513 25.8636 44.6549 25.5771 44.5898L24.5615 44.3672C24.0016 44.2396 23.5876 44.0365 23.3193 43.7578C23.0537 43.4792 22.9209 43.1263 22.9209 42.6992C22.9209 42.3451 23.0199 42.0352 23.2178 41.7695C23.4157 41.5039 23.6891 41.2969 24.0381 41.1484C24.387 40.9974 24.7868 40.9219 25.2373 40.9219C25.8857 40.9219 26.3962 41.0625 26.7686 41.3437C27.141 41.6224 27.387 41.9961 27.5068 42.4648ZM30.6543 47.1328C30.2741 47.1328 29.9303 47.0625 29.623 46.9219C29.3158 46.7786 29.0723 46.5716 28.8926 46.3008C28.7155 46.0299 28.627 45.6979 28.627 45.3047C28.627 44.9661 28.6921 44.6875 28.8223 44.4687C28.9525 44.25 29.1283 44.0768 29.3496 43.9492C29.571 43.8216 29.8184 43.7253 30.0918 43.6602C30.3652 43.5951 30.6439 43.5456 30.9277 43.5117C31.2871 43.4701 31.5788 43.4362 31.8027 43.4102C32.0267 43.3815 32.1895 43.3359 32.291 43.2734C32.3926 43.2109 32.4434 43.1094 32.4434 42.9687V42.9414C32.4434 42.6003 32.347 42.3359 32.1543 42.1484C31.9642 41.9609 31.6803 41.8672 31.3027 41.8672C30.9095 41.8672 30.5996 41.9544 30.373 42.1289C30.1491 42.3008 29.9941 42.4922 29.9082 42.7031L28.8105 42.4531C28.9408 42.0885 29.1309 41.7943 29.3809 41.5703C29.6335 41.3437 29.9238 41.1797 30.252 41.0781C30.5801 40.974 30.9251 40.9219 31.2871 40.9219C31.5267 40.9219 31.7806 40.9505 32.0488 41.0078C32.3197 41.0625 32.5723 41.1641 32.8066 41.3125C33.0436 41.4609 33.2376 41.6732 33.3887 41.9492C33.5397 42.2227 33.6152 42.5781 33.6152 43.0156V47H32.4746V46.1797H32.4277C32.3522 46.3307 32.2389 46.4792 32.0879 46.625C31.9368 46.7708 31.7428 46.8919 31.5059 46.9883C31.2689 47.0846 30.985 47.1328 30.6543 47.1328ZM30.9082 46.1953C31.2311 46.1953 31.5072 46.1315 31.7363 46.0039C31.9681 45.8763 32.1439 45.7096 32.2637 45.5039C32.3861 45.2956 32.4473 45.0729 32.4473 44.8359V44.0625C32.4056 44.1042 32.3249 44.1432 32.2051 44.1797C32.0879 44.2135 31.9538 44.2435 31.8027 44.2695C31.6517 44.293 31.5046 44.3151 31.3613 44.3359C31.2181 44.3542 31.0983 44.3698 31.002 44.3828C30.7754 44.4115 30.5684 44.4596 30.3809 44.5273C30.196 44.5951 30.0475 44.6927 29.9355 44.8203C29.8262 44.9453 29.7715 45.112 29.7715 45.3203C29.7715 45.6094 29.8783 45.8281 30.0918 45.9766C30.3053 46.1224 30.5775 46.1953 30.9082 46.1953ZM37.6865 49.375C37.21 49.375 36.7998 49.3125 36.4561 49.1875C36.1149 49.0625 35.8363 48.8971 35.6201 48.6914C35.404 48.4857 35.2425 48.2604 35.1357 48.0156L36.1396 47.6016C36.21 47.7161 36.3037 47.8372 36.4209 47.9648C36.5407 48.0951 36.7021 48.2057 36.9053 48.2969C37.111 48.388 37.3753 48.4336 37.6982 48.4336C38.141 48.4336 38.5068 48.3255 38.7959 48.1094C39.085 47.8958 39.2295 47.5547 39.2295 47.0859V45.9062H39.1553C39.085 46.0339 38.9834 46.1758 38.8506 46.332C38.7204 46.4883 38.5407 46.6237 38.3115 46.7383C38.0824 46.8529 37.7842 46.9102 37.417 46.9102C36.943 46.9102 36.516 46.7995 36.1357 46.5781C35.7581 46.3542 35.4587 46.0247 35.2373 45.5898C35.0186 45.1523 34.9092 44.6146 34.9092 43.9766C34.9092 43.3385 35.0173 42.7917 35.2334 42.3359C35.4521 41.8802 35.7516 41.5312 36.1318 41.2891C36.512 41.0443 36.943 40.9219 37.4248 40.9219C37.7972 40.9219 38.098 40.9844 38.3271 41.1094C38.5563 41.2318 38.7347 41.375 38.8623 41.5391C38.9925 41.7031 39.0928 41.8477 39.1631 41.9727H39.249V41H40.3936V47.1328C40.3936 47.6484 40.2738 48.0716 40.0342 48.4023C39.7946 48.7331 39.4704 48.9779 39.0615 49.1367C38.6553 49.2956 38.1969 49.375 37.6865 49.375ZM37.6748 45.9414C38.0107 45.9414 38.2946 45.8633 38.5264 45.707C38.7607 45.5482 38.9378 45.3216 39.0576 45.0273C39.18 44.7305 39.2412 44.375 39.2412 43.9609C39.2412 43.5573 39.1813 43.2018 39.0615 42.8945C38.9417 42.5872 38.766 42.3477 38.5342 42.1758C38.3024 42.0013 38.016 41.9141 37.6748 41.9141C37.3232 41.9141 37.0303 42.0052 36.7959 42.1875C36.5615 42.3672 36.3844 42.612 36.2646 42.9219C36.1475 43.2318 36.0889 43.5781 36.0889 43.9609C36.0889 44.3542 36.1488 44.6992 36.2686 44.9961C36.3883 45.293 36.5654 45.5247 36.7998 45.6914C37.0368 45.8581 37.3285 45.9414 37.6748 45.9414ZM44.5459 47.1211C43.9548 47.1211 43.4456 46.9948 43.0186 46.7422C42.5941 46.487 42.266 46.1289 42.0342 45.668C41.805 45.2044 41.6904 44.6615 41.6904 44.0391C41.6904 43.4245 41.805 42.8828 42.0342 42.4141C42.266 41.9453 42.5889 41.5794 43.0029 41.3164C43.4196 41.0534 43.9066 40.9219 44.4639 40.9219C44.8024 40.9219 45.1305 40.9779 45.4482 41.0898C45.766 41.2018 46.0511 41.3776 46.3037 41.6172C46.5563 41.8568 46.7555 42.168 46.9014 42.5508C47.0472 42.931 47.1201 43.3932 47.1201 43.9375V44.3516H42.3506V43.4766H45.9756C45.9756 43.1693 45.9131 42.8971 45.7881 42.6602C45.6631 42.4206 45.4873 42.2318 45.2607 42.0937C45.0368 41.9557 44.7738 41.8867 44.4717 41.8867C44.1436 41.8867 43.8571 41.9674 43.6123 42.1289C43.3701 42.2878 43.1826 42.4961 43.0498 42.7539C42.9196 43.0091 42.8545 43.2865 42.8545 43.5859V44.2695C42.8545 44.6706 42.9248 45.0117 43.0654 45.293C43.2087 45.5742 43.4079 45.7891 43.6631 45.9375C43.9183 46.0833 44.2165 46.1562 44.5576 46.1562C44.779 46.1562 44.9808 46.125 45.1631 46.0625C45.3454 45.9974 45.5029 45.901 45.6357 45.7734C45.7686 45.6458 45.8701 45.4883 45.9404 45.3008L47.0459 45.5C46.9574 45.8255 46.7985 46.1107 46.5693 46.3555C46.3428 46.5977 46.0576 46.7865 45.7139 46.9219C45.3727 47.0547 44.9834 47.1211 44.5459 47.1211Z" fill="white"/>
</svg>
