<svg width="24" height="24" viewBox="0 0 24 24" fill="none" xmlns="http://www.w3.org/2000/svg">
<g clip-path="url(#clip0_1616_7268)">
<path d="M11.9708 1.5C14.3992 1.5 16.7307 1.77833 18.8984 2.29009C19.5531 2.44465 20 3.0391 20 3.71179V18.9419C20 19.7955 19.387 20.5252 18.5499 20.6921C16.477 21.1054 12.8251 21.9305 12 22.7555C11.175 21.9305 7.52304 21.1054 5.4501 20.6921C4.61298 20.5252 4 19.7955 4 18.9419V3.69821C4 3.02429 4.44851 2.42906 5.10475 2.27569C7.25505 1.77313 9.56543 1.5 11.9708 1.5Z" stroke="white" stroke-width="1.5"/>
<path d="M11.1114 13.9939C11.1983 13.9939 11.2778 14.0469 11.3146 14.1304L11.4493 14.4357C11.4861 14.5192 11.4732 14.6176 11.4172 14.6879L10.4003 15.9628C10.3792 15.989 10.3529 16.0102 10.3234 16.0247L9.6861 16.3374C9.65663 16.3519 9.62387 16.3596 9.59121 16.3596H6.85155C6.76466 16.3596 6.68581 16.3065 6.64895 16.2231L6.51431 15.9178C6.47748 15.8343 6.48978 15.7359 6.54572 15.6656L7.56323 14.3906C7.58427 14.3646 7.61024 14.3432 7.63953 14.3288L8.27748 14.0161C8.30695 14.0015 8.33907 13.9939 8.37173 13.9939H11.1114Z" fill="white"/>
<path d="M14.1671 11.7499C14.2331 11.7499 14.2958 11.7808 14.3383 11.8339L17.396 15.6656C17.4519 15.7359 17.4642 15.8343 17.4274 15.9178L17.2928 16.2231C17.2559 16.3062 17.177 16.3595 17.0901 16.3596H14.3499C14.3173 16.3596 14.285 16.3519 14.2556 16.3374L13.6183 16.0247C13.5889 16.0102 13.5625 15.989 13.5414 15.9628L12.2046 14.2871C12.1707 14.2445 12.152 14.1902 12.152 14.1344V13.854C12.152 13.7983 12.1707 13.7439 12.2046 13.7014L13.6946 11.8339C13.7371 11.7807 13.7998 11.7499 13.8658 11.7499H14.1671Z" fill="white"/>
<path d="M17.0901 6.5C17.177 6.50003 17.2559 6.5534 17.2928 6.63651L17.4274 6.94181C17.4642 7.02522 17.4518 7.12372 17.396 7.19398L14.3332 11.033C14.3121 11.0591 14.2856 11.0804 14.2562 11.0949L13.6189 11.4076C13.5895 11.4221 13.5574 11.4298 13.5247 11.4298H10.7844C10.6975 11.4298 10.618 11.3759 10.5811 11.2926L10.4471 10.9873C10.4103 10.9038 10.4226 10.8054 10.4786 10.7351L13.5414 6.89675C13.5624 6.87068 13.5889 6.84936 13.6183 6.83488L14.2556 6.52219C14.2851 6.50767 14.3172 6.5 14.3499 6.5H17.0901Z" fill="white"/>
<path d="M9.59185 6.5C9.62422 6.50002 9.65667 6.50769 9.6861 6.52219L10.3234 6.83556C10.353 6.85007 10.3793 6.87103 10.4003 6.89742L11.4172 8.17173C11.4732 8.24194 11.486 8.34046 11.4493 8.4239L11.3146 8.72987C11.278 8.813 11.1985 8.86638 11.1114 8.86638H8.37173C8.33935 8.86638 8.30692 8.85868 8.27748 8.84419L7.63953 8.5315C7.60987 8.51698 7.58432 8.49537 7.56323 8.46896L6.54572 7.19465C6.48973 7.12438 6.47747 7.02598 6.51431 6.94248L6.64895 6.63718C6.68554 6.55394 6.76437 6.5 6.85155 6.5H9.59185Z" fill="white"/>
</g>
<defs>
<clipPath id="clip0_1616_7268">
<rect width="24" height="24" fill="white"/>
</clipPath>
</defs>
</svg>
