<svg width="36" height="49" viewBox="0 0 36 49" fill="none" xmlns="http://www.w3.org/2000/svg">
<path d="M4.5 31.5L12 24" stroke="white" stroke-width="2" stroke-linecap="round" stroke-linejoin="round"/>
<path d="M19.8877 28.3071C14.2727 27.0323 8.96766 21.7272 7.69279 16.1123C7.49098 15.2234 7.39008 14.779 7.68241 14.058C7.97475 13.3369 8.33185 13.1138 9.04606 12.6676C10.6606 11.659 12.4088 11.3383 14.2231 11.4988C16.7689 11.724 18.0418 11.8366 18.6768 11.5057C19.3119 11.1749 19.7433 10.4013 20.6064 8.85404L21.6996 6.89406C22.4197 5.60292 22.7799 4.95735 23.6269 4.65303C24.474 4.3487 24.9837 4.53299 26.0032 4.90157C28.3873 5.76354 30.2364 7.61258 31.0984 9.99674C31.467 11.0163 31.6513 11.526 31.347 12.3731C31.0426 13.2201 30.397 13.5802 29.1058 14.3004L27.1008 15.4188C25.5564 16.2801 24.7843 16.7109 24.4536 17.352C24.1228 17.9933 24.243 19.2384 24.4831 21.7289C24.6598 23.5602 24.3553 25.32 23.3332 26.9546C22.8865 27.6687 22.6632 28.0259 21.9424 28.3179C21.2215 28.61 20.7769 28.509 19.8877 28.3071Z" stroke="white" stroke-width="2" stroke-linecap="round" stroke-linejoin="round"/>
<path d="M10.3789 47V39H13.2305C13.8529 39 14.3685 39.1133 14.7773 39.3398C15.1862 39.5664 15.4922 39.8763 15.6953 40.2695C15.8984 40.6602 16 41.1003 16 41.5898C16 42.082 15.8971 42.5247 15.6914 42.918C15.4883 43.3086 15.181 43.6185 14.7695 43.8477C14.3607 44.0742 13.8464 44.1875 13.2266 44.1875H11.2656V43.1641H13.1172C13.5104 43.1641 13.8294 43.0964 14.0742 42.9609C14.319 42.8229 14.4987 42.6354 14.6133 42.3984C14.7279 42.1615 14.7852 41.8919 14.7852 41.5898C14.7852 41.2878 14.7279 41.0195 14.6133 40.7852C14.4987 40.5508 14.3177 40.3672 14.0703 40.2344C13.8255 40.1016 13.5026 40.0352 13.1016 40.0352H11.5859V47H10.3789ZM17.3213 47V41H18.4893V47H17.3213ZM17.9111 40.0742C17.708 40.0742 17.5335 40.0065 17.3877 39.8711C17.2445 39.7331 17.1729 39.569 17.1729 39.3789C17.1729 39.1862 17.2445 39.0221 17.3877 38.8867C17.5335 38.7487 17.708 38.6797 17.9111 38.6797C18.1143 38.6797 18.2874 38.7487 18.4307 38.8867C18.5765 39.0221 18.6494 39.1862 18.6494 39.3789C18.6494 39.569 18.5765 39.7331 18.4307 39.8711C18.2874 40.0065 18.1143 40.0742 17.9111 40.0742ZM21.2285 43.4375V47H20.0605V41H21.1816V41.9766H21.2559C21.3939 41.6589 21.61 41.4036 21.9043 41.2109C22.2012 41.0182 22.5749 40.9219 23.0254 40.9219C23.4342 40.9219 23.7923 41.0078 24.0996 41.1797C24.4069 41.349 24.6452 41.6016 24.8145 41.9375C24.9837 42.2734 25.0684 42.6888 25.0684 43.1836V47H23.9004V43.3242C23.9004 42.8893 23.7871 42.5495 23.5605 42.3047C23.334 42.0573 23.0228 41.9336 22.627 41.9336C22.3561 41.9336 22.1152 41.9922 21.9043 42.1094C21.696 42.2266 21.5306 42.3984 21.4082 42.625C21.2884 42.849 21.2285 43.1198 21.2285 43.4375Z" fill="white"/>
</svg>
