<svg width="17" height="22" viewBox="0 0 17 22" fill="none" xmlns="http://www.w3.org/2000/svg">
<path d="M8 0.5C10.6772 0.500001 13.2292 0.859519 15.5549 1.51061V16.9117C15.5549 17.7149 14.9781 18.4014 14.1905 18.5584C12.24 18.9473 8.8038 19.7237 8.02749 20.5C7.25118 19.7237 3.81495 18.9473 1.86445 18.5584C1.07677 18.4014 0.5 17.7148 0.5 16.9117V1.49536C2.81092 0.853943 5.34389 0.5 8 0.5Z" fill="url(#paint0_linear_1564_12452)"/>
<g opacity="0.3">
<path d="M15.5549 15.3449C12.7364 15.8712 10.0988 17.088 7.82716 18.7904C8.25413 19.1488 8.66636 19.5245 9.06245 19.9162C9.00315 19.9401 8.94549 19.9642 8.88961 19.9884C8.49802 19.6124 8.09117 19.2522 7.67078 18.9087C7.30977 19.1848 6.95828 19.4733 6.61703 19.7733C6.11873 19.5938 5.54082 19.4215 4.94303 19.2622C5.43597 18.8198 5.9487 18.4002 6.47897 18.0055C4.65848 16.728 2.63153 15.7491 0.5 15.1421V14.8481C2.70573 15.4924 4.79311 16.5293 6.65468 17.8761C9.28958 15.9559 12.3455 14.6461 15.5549 14.1904V15.3449Z" fill="#FFE343"/>
<path d="M15.5549 16.3799C14.0412 17.1357 12.6252 18.0894 11.3456 19.2009C10.9765 19.2965 10.6119 19.3972 10.2656 19.5017C11.8341 18.0347 13.623 16.807 15.5549 15.8935V16.3799Z" fill="#FFE343"/>
</g>
<path d="M8 0.5C10.6772 0.500001 13.2292 0.859519 15.5549 1.51061V16.9117C15.5549 17.7149 14.9781 18.4014 14.1905 18.5584C12.24 18.9473 8.8038 19.7237 8.02749 20.5C7.25118 19.7237 3.81495 18.9473 1.86445 18.5584C1.07677 18.4014 0.5 17.7148 0.5 16.9117V1.49536C2.81092 0.853942 5.34389 0.5 8 0.5Z" stroke="url(#paint1_linear_1564_12452)"/>
<path d="M7.29393 10.6565C7.36535 10.6565 7.43064 10.7 7.46091 10.7686L7.57152 11.0194C7.60178 11.088 7.59118 11.1689 7.54518 11.2266L6.70979 12.2741C6.69245 12.2956 6.67077 12.313 6.64658 12.3249L6.12301 12.5818C6.0988 12.5937 6.07189 12.6 6.04505 12.6H3.79433C3.72294 12.6 3.65816 12.5564 3.62788 12.4879L3.51727 12.237C3.48702 12.1685 3.49712 12.0876 3.54308 12.0299L4.379 10.9824C4.39628 10.9611 4.41762 10.9435 4.44168 10.9316L4.96578 10.6747C4.98999 10.6628 5.01638 10.6565 5.04321 10.6565H7.29393Z" fill="#2A2A2A"/>
<path d="M9.80434 8.81297C9.85856 8.81297 9.91008 8.8384 9.94497 8.88202L12.457 12.0299C12.5029 12.0876 12.513 12.1685 12.4828 12.237L12.3722 12.4879C12.3419 12.5562 12.2771 12.6 12.2057 12.6H9.95445C9.92768 12.6 9.90119 12.5937 9.87702 12.5818L9.35345 12.3249C9.32927 12.313 9.30759 12.2955 9.29025 12.2741L8.19201 10.8974C8.16417 10.8624 8.14882 10.8178 8.14882 10.7719V10.5416C8.14882 10.4958 8.16417 10.4511 8.19201 10.4162L9.41613 8.88202C9.45104 8.83826 9.50259 8.81297 9.55677 8.81297H9.80434Z" fill="#2A2A2A"/>
<path d="M12.2057 4.5C12.277 4.50003 12.3419 4.54387 12.3722 4.61215L12.4828 4.86296C12.513 4.93149 12.5028 5.01241 12.457 5.07013L9.94076 8.22406C9.92344 8.24548 9.90169 8.26299 9.87755 8.27488L9.35398 8.53177C9.32977 8.5437 9.30338 8.55 9.27655 8.55H7.0253C6.95388 8.55 6.88859 8.50569 6.85833 8.4373L6.74824 8.18649C6.71798 8.11789 6.72805 8.03705 6.77405 7.97932L9.29025 4.82594C9.30757 4.80452 9.32932 4.78701 9.35345 4.77512L9.87702 4.51823C9.90123 4.5063 9.92762 4.5 9.95445 4.5H12.2057Z" fill="#2A2A2A"/>
<path d="M6.04558 4.5C6.07218 4.50002 6.09883 4.50632 6.12301 4.51823L6.64658 4.77567C6.67093 4.7876 6.69247 4.80481 6.70979 4.8265L7.54518 5.87339C7.59114 5.93106 7.60168 6.012 7.57152 6.08056L7.46091 6.33192C7.43082 6.40021 7.3655 6.44407 7.29393 6.44407H5.04321C5.01661 6.44407 4.98997 6.43774 4.96578 6.42584L4.44168 6.16895C4.41732 6.15702 4.39633 6.13927 4.379 6.11757L3.54308 5.07068C3.49708 5.01295 3.48701 4.93211 3.51727 4.86351L3.62788 4.6127C3.65794 4.54431 3.72271 4.5 3.79433 4.5H6.04558Z" fill="#2A2A2A"/>
<defs>
<linearGradient id="paint0_linear_1564_12452" x1="-4.91776" y1="-10.7777" x2="29.466" y2="4.42814" gradientUnits="userSpaceOnUse">
<stop stop-color="#FFE1AA"/>
<stop offset="0.159089" stop-color="#FFFDF4"/>
<stop offset="0.264351" stop-color="#FFFBEF"/>
<stop offset="0.474908" stop-color="#FFE16B"/>
<stop offset="0.801053" stop-color="#DB991E"/>
<stop offset="0.927176" stop-color="#FFD342"/>
</linearGradient>
<linearGradient id="paint1_linear_1564_12452" x1="-1.69857" y1="-1.69178" x2="15.583" y2="20.5" gradientUnits="userSpaceOnUse">
<stop offset="0.134114" stop-color="white"/>
<stop offset="0.203974" stop-color="#FFDD57"/>
<stop offset="0.311679" stop-color="#FFC525"/>
<stop offset="0.495192" stop-color="white"/>
<stop offset="0.787403" stop-color="#EBAD00"/>
<stop offset="0.874515" stop-color="#FFF3E5"/>
<stop offset="0.926913" stop-color="#FFE6A1"/>
</linearGradient>
</defs>
</svg>
