<svg width="54" height="49" viewBox="0 0 54 49" fill="none" xmlns="http://www.w3.org/2000/svg">
<path d="M25.5 12H28.5" stroke="white" stroke-width="2" stroke-linecap="round"/>
<path d="M12 16.5C12 11.5503 12 9.07537 13.5377 7.53769C15.0754 6 17.5503 6 22.5 6H24C28.9497 6 31.4246 6 32.9624 7.53769C34.5 9.07537 34.5 11.5503 34.5 16.5V19.5C34.5 24.4497 34.5 26.9245 32.9624 28.4623C31.4246 30 28.9497 30 24 30H22.5C17.5503 30 15.0754 30 13.5377 28.4623C12 26.9245 12 24.4497 12 19.5V16.5Z" stroke="white" stroke-width="2" stroke-linecap="round"/>
<path d="M34.5 13.3588L34.6889 13.2029C37.8625 10.5843 39.4494 9.27504 40.7247 9.90723C42 10.5394 42 12.6353 42 16.8272V19.1729C42 23.3648 42 25.4606 40.7247 26.0928C39.4494 26.7249 37.8625 25.4157 34.6889 22.797L34.5 22.6412" stroke="white" stroke-width="2" stroke-linecap="round"/>
<path d="M1.57812 39L3.80469 45.5156H3.89453L6.12109 39H7.42578L4.54688 47H3.15234L0.273438 39H1.57812ZM8.4873 47V41H9.65527V47H8.4873ZM9.07715 40.0742C8.87402 40.0742 8.69954 40.0065 8.55371 39.8711C8.41048 39.7331 8.33887 39.569 8.33887 39.3789C8.33887 39.1862 8.41048 39.0221 8.55371 38.8867C8.69954 38.7487 8.87402 38.6797 9.07715 38.6797C9.28027 38.6797 9.45345 38.7487 9.59668 38.8867C9.74251 39.0221 9.81543 39.1862 9.81543 39.3789C9.81543 39.569 9.74251 39.7331 9.59668 39.8711C9.45345 40.0065 9.28027 40.0742 9.07715 40.0742ZM13.4727 47.1172C12.9883 47.1172 12.556 46.9935 12.1758 46.7461C11.7982 46.4961 11.5013 46.1406 11.2852 45.6797C11.0716 45.2161 10.9648 44.6602 10.9648 44.0117C10.9648 43.3633 11.0729 42.8086 11.2891 42.3477C11.5078 41.8867 11.8073 41.5339 12.1875 41.2891C12.5677 41.0443 12.9987 40.9219 13.4805 40.9219C13.8529 40.9219 14.1523 40.9844 14.3789 41.1094C14.6081 41.2318 14.7852 41.375 14.9102 41.5391C15.0378 41.7031 15.1367 41.8477 15.207 41.9727H15.2773V39H16.4453V47H15.3047V46.0664H15.207C15.1367 46.194 15.0352 46.3398 14.9023 46.5039C14.7721 46.668 14.5924 46.8112 14.3633 46.9336C14.1341 47.056 13.8372 47.1172 13.4727 47.1172ZM13.7305 46.1211C14.0664 46.1211 14.3503 46.0326 14.582 45.8555C14.8164 45.6758 14.9935 45.4271 15.1133 45.1094C15.2357 44.7917 15.2969 44.4219 15.2969 44C15.2969 43.5833 15.237 43.2187 15.1172 42.9062C14.9974 42.5937 14.8216 42.3503 14.5898 42.1758C14.3581 42.0013 14.0716 41.9141 13.7305 41.9141C13.3789 41.9141 13.0859 42.0052 12.8516 42.1875C12.6172 42.3698 12.4401 42.6185 12.3203 42.9336C12.2031 43.2487 12.1445 43.6042 12.1445 44C12.1445 44.401 12.2044 44.7617 12.3242 45.082C12.444 45.4023 12.6211 45.6562 12.8555 45.8437C13.0924 46.0286 13.3841 46.1211 13.7305 46.1211ZM20.6982 47.1211C20.1071 47.1211 19.598 46.9948 19.1709 46.7422C18.7464 46.487 18.4183 46.1289 18.1865 45.668C17.9574 45.2044 17.8428 44.6615 17.8428 44.0391C17.8428 43.4245 17.9574 42.8828 18.1865 42.4141C18.4183 41.9453 18.7412 41.5794 19.1553 41.3164C19.5719 41.0534 20.0589 40.9219 20.6162 40.9219C20.9548 40.9219 21.2829 40.9779 21.6006 41.0898C21.9183 41.2018 22.2035 41.3776 22.4561 41.6172C22.7087 41.8568 22.9079 42.168 23.0537 42.5508C23.1995 42.931 23.2725 43.3932 23.2725 43.9375V44.3516H18.5029V43.4766H22.1279C22.1279 43.1693 22.0654 42.8971 21.9404 42.6602C21.8154 42.4206 21.6396 42.2318 21.4131 42.0937C21.1891 41.9557 20.9261 41.8867 20.624 41.8867C20.2959 41.8867 20.0094 41.9674 19.7646 42.1289C19.5225 42.2878 19.335 42.4961 19.2021 42.7539C19.0719 43.0091 19.0068 43.2865 19.0068 43.5859V44.2695C19.0068 44.6706 19.0771 45.0117 19.2178 45.293C19.361 45.5742 19.5602 45.7891 19.8154 45.9375C20.0706 46.0833 20.3688 46.1562 20.71 46.1562C20.9313 46.1562 21.1331 46.125 21.3154 46.0625C21.4977 45.9974 21.6553 45.901 21.7881 45.7734C21.9209 45.6458 22.0225 45.4883 22.0928 45.3008L23.1982 45.5C23.1097 45.8255 22.9508 46.1107 22.7217 46.3555C22.4951 46.5977 22.21 46.7865 21.8662 46.9219C21.5251 47.0547 21.1357 47.1211 20.6982 47.1211ZM27.0957 47.1211C26.5332 47.1211 26.0423 46.9922 25.623 46.7344C25.2038 46.4766 24.8783 46.1159 24.6465 45.6523C24.4147 45.1888 24.2988 44.6471 24.2988 44.0273C24.2988 43.4049 24.4147 42.8607 24.6465 42.3945C24.8783 41.9284 25.2038 41.5664 25.623 41.3086C26.0423 41.0508 26.5332 40.9219 27.0957 40.9219C27.6582 40.9219 28.1491 41.0508 28.5684 41.3086C28.9876 41.5664 29.3132 41.9284 29.5449 42.3945C29.7767 42.8607 29.8926 43.4049 29.8926 44.0273C29.8926 44.6471 29.7767 45.1888 29.5449 45.6523C29.3132 46.1159 28.9876 46.4766 28.5684 46.7344C28.1491 46.9922 27.6582 47.1211 27.0957 47.1211ZM27.0996 46.1406C27.4642 46.1406 27.7663 46.0443 28.0059 45.8516C28.2454 45.6589 28.4225 45.4023 28.5371 45.082C28.6543 44.7617 28.7129 44.4089 28.7129 44.0234C28.7129 43.6406 28.6543 43.2891 28.5371 42.9687C28.4225 42.6458 28.2454 42.3867 28.0059 42.1914C27.7663 41.9961 27.4642 41.8984 27.0996 41.8984C26.7324 41.8984 26.4277 41.9961 26.1855 42.1914C25.946 42.3867 25.7676 42.6458 25.6504 42.9687C25.5358 43.2891 25.4785 43.6406 25.4785 44.0234C25.4785 44.4089 25.5358 44.7617 25.6504 45.082C25.7676 45.4023 25.946 45.6589 26.1855 45.8516C26.4277 46.0443 26.7324 46.1406 27.0996 46.1406ZM40.8457 41.6016H39.627C39.5801 41.3411 39.4928 41.112 39.3652 40.9141C39.2376 40.7161 39.0814 40.5482 38.8965 40.4102C38.7116 40.2721 38.5046 40.168 38.2754 40.0977C38.0488 40.0273 37.8079 39.9922 37.5527 39.9922C37.0918 39.9922 36.679 40.1081 36.3145 40.3398C35.9525 40.5716 35.666 40.9115 35.4551 41.3594C35.2467 41.8073 35.1426 42.3542 35.1426 43C35.1426 43.651 35.2467 44.2005 35.4551 44.6484C35.666 45.0964 35.9538 45.4349 36.3184 45.6641C36.6829 45.8932 37.0931 46.0078 37.5488 46.0078C37.8014 46.0078 38.041 45.974 38.2676 45.9062C38.4967 45.8359 38.7038 45.7331 38.8887 45.5977C39.0736 45.4622 39.2298 45.2969 39.3574 45.1016C39.4876 44.9036 39.5775 44.6771 39.627 44.4219L40.8457 44.4258C40.7806 44.819 40.6543 45.181 40.4668 45.5117C40.2819 45.8398 40.0436 46.1237 39.752 46.3633C39.4629 46.6003 39.1322 46.7839 38.7598 46.9141C38.3874 47.0443 37.9811 47.1094 37.541 47.1094C36.8483 47.1094 36.2311 46.9453 35.6895 46.6172C35.1478 46.2865 34.7207 45.8138 34.4082 45.1992C34.0983 44.5846 33.9434 43.8516 33.9434 43C33.9434 42.1458 34.0996 41.4128 34.4121 40.8008C34.7246 40.1862 35.1517 39.7148 35.6934 39.3867C36.235 39.056 36.8509 38.8906 37.541 38.8906C37.9655 38.8906 38.3613 38.9518 38.7285 39.0742C39.0983 39.194 39.4303 39.3711 39.7246 39.6055C40.0189 39.8372 40.2624 40.1211 40.4551 40.457C40.6478 40.7904 40.778 41.1719 40.8457 41.6016ZM43.9424 47.1328C43.5622 47.1328 43.2184 47.0625 42.9111 46.9219C42.6038 46.7786 42.3604 46.5716 42.1807 46.3008C42.0036 46.0299 41.915 45.6979 41.915 45.3047C41.915 44.9661 41.9801 44.6875 42.1104 44.4687C42.2406 44.25 42.4163 44.0768 42.6377 43.9492C42.859 43.8216 43.1064 43.7253 43.3799 43.6602C43.6533 43.5951 43.932 43.5456 44.2158 43.5117C44.5752 43.4701 44.8669 43.4362 45.0908 43.4102C45.3148 43.3815 45.4775 43.3359 45.5791 43.2734C45.6807 43.2109 45.7314 43.1094 45.7314 42.9687V42.9414C45.7314 42.6003 45.6351 42.3359 45.4424 42.1484C45.2523 41.9609 44.9684 41.8672 44.5908 41.8672C44.1976 41.8672 43.8877 41.9544 43.6611 42.1289C43.4372 42.3008 43.2822 42.4922 43.1963 42.7031L42.0986 42.4531C42.2288 42.0885 42.4189 41.7943 42.6689 41.5703C42.9215 41.3437 43.2119 41.1797 43.54 41.0781C43.8682 40.974 44.2132 40.9219 44.5752 40.9219C44.8148 40.9219 45.0687 40.9505 45.3369 41.0078C45.6077 41.0625 45.8604 41.1641 46.0947 41.3125C46.3317 41.4609 46.5257 41.6732 46.6768 41.9492C46.8278 42.2227 46.9033 42.5781 46.9033 43.0156V47H45.7627V46.1797H45.7158C45.6403 46.3307 45.527 46.4792 45.376 46.625C45.2249 46.7708 45.0309 46.8919 44.7939 46.9883C44.557 47.0846 44.2731 47.1328 43.9424 47.1328ZM44.1963 46.1953C44.5192 46.1953 44.7952 46.1315 45.0244 46.0039C45.2562 45.8763 45.432 45.7096 45.5518 45.5039C45.6742 45.2956 45.7354 45.0729 45.7354 44.8359V44.0625C45.6937 44.1042 45.613 44.1432 45.4932 44.1797C45.376 44.2135 45.2419 44.2435 45.0908 44.2695C44.9398 44.293 44.7926 44.3151 44.6494 44.3359C44.5062 44.3542 44.3864 44.3698 44.29 44.3828C44.0635 44.4115 43.8564 44.4596 43.6689 44.5273C43.484 44.5951 43.3356 44.6927 43.2236 44.8203C43.1143 44.9453 43.0596 45.112 43.0596 45.3203C43.0596 45.6094 43.1663 45.8281 43.3799 45.9766C43.5934 46.1224 43.8656 46.1953 44.1963 46.1953ZM49.627 39V47H48.459V39H49.627ZM52.3662 39V47H51.1982V39H52.3662Z" fill="white"/>
</svg>
