<svg width="72" height="13" viewBox="0 0 72 13" fill="none" xmlns="http://www.w3.org/2000/svg">
<rect x="1" y="1.5" width="10" height="10" rx="5" stroke="#E2E8F0"/>
<rect x="2.7002" y="3.19995" width="6.6" height="6.6" rx="3.3" fill="#E60017"/>
<path d="M23.689 3V11H22.7515L18.3921 4.71875H18.314V11H17.3452V3H18.2827L22.6577 9.29687H22.7358V3H23.689ZM28.0181 11.125C27.4399 11.125 26.9412 10.9974 26.522 10.7422C26.1053 10.4844 25.7837 10.125 25.5571 9.66406C25.3332 9.20052 25.2212 8.66146 25.2212 8.04688C25.2212 7.43229 25.3332 6.89062 25.5571 6.42187C25.7837 5.95052 26.0988 5.58333 26.5024 5.32031C26.9087 5.05469 27.3826 4.92188 27.9243 4.92188C28.2368 4.92188 28.5454 4.97396 28.8501 5.07812C29.1548 5.18229 29.4321 5.35156 29.6821 5.58594C29.9321 5.81771 30.1313 6.125 30.2798 6.50781C30.4282 6.89062 30.5024 7.36198 30.5024 7.92187V8.3125H25.8774V7.51562H29.5649C29.5649 7.17708 29.4972 6.875 29.3618 6.60937C29.229 6.34375 29.0389 6.13411 28.7915 5.98047C28.5467 5.82682 28.2576 5.75 27.9243 5.75C27.5571 5.75 27.2394 5.84115 26.9712 6.02344C26.7056 6.20312 26.5011 6.4375 26.3579 6.72656C26.2147 7.01562 26.1431 7.32552 26.1431 7.65625V8.1875C26.1431 8.64063 26.2212 9.02474 26.3774 9.33984C26.5363 9.65234 26.7563 9.89062 27.0376 10.0547C27.3188 10.2161 27.6457 10.2969 28.0181 10.2969C28.2603 10.2969 28.479 10.263 28.6743 10.1953C28.8722 10.125 29.0428 10.0208 29.186 9.88281C29.3293 9.74219 29.4399 9.56771 29.5181 9.35937L30.4087 9.60938C30.3149 9.91146 30.1574 10.1771 29.936 10.4062C29.7147 10.6328 29.4412 10.8099 29.1157 10.9375C28.7902 11.0625 28.4243 11.125 28.0181 11.125ZM33.2642 11L31.436 5H32.4048L33.7017 9.59375H33.7642L35.0454 5H36.0298L37.2954 9.57812H37.3579L38.6548 5H39.6235L37.7954 11H36.8892L35.5767 6.39062H35.4829L34.1704 11H33.2642ZM48.8423 5L46.6235 11H45.686L43.4673 5H44.4673L46.1235 9.78125H46.186L47.8423 5H48.8423ZM50.0591 11V5H50.981V11H50.0591ZM50.5278 4C50.3481 4 50.1932 3.9388 50.063 3.81641C49.9354 3.69401 49.8716 3.54688 49.8716 3.375C49.8716 3.20313 49.9354 3.05599 50.063 2.93359C50.1932 2.8112 50.3481 2.75 50.5278 2.75C50.7075 2.75 50.8612 2.8112 50.9888 2.93359C51.119 3.05599 51.1841 3.20313 51.1841 3.375C51.1841 3.54688 51.119 3.69401 50.9888 3.81641C50.8612 3.9388 50.7075 4 50.5278 4ZM54.9351 11.125C54.4351 11.125 53.9937 10.9987 53.6108 10.7461C53.228 10.4909 52.9285 10.1315 52.7124 9.66797C52.4963 9.20182 52.3882 8.65104 52.3882 8.01563C52.3882 7.38542 52.4963 6.83854 52.7124 6.375C52.9285 5.91146 53.2293 5.55339 53.6147 5.30078C54.0002 5.04818 54.4455 4.92188 54.9507 4.92188C55.3413 4.92188 55.6499 4.98698 55.8765 5.11719C56.1056 5.24479 56.2801 5.39062 56.3999 5.55469C56.5223 5.71615 56.6174 5.84896 56.6851 5.95312H56.7632V3H57.6851V11H56.7944V10.0781H56.6851C56.6174 10.1875 56.521 10.3255 56.396 10.4922C56.271 10.6562 56.0926 10.8034 55.8608 10.9336C55.6291 11.0612 55.3205 11.125 54.9351 11.125ZM55.0601 10.2969C55.4299 10.2969 55.7424 10.2005 55.9976 10.0078C56.2528 9.8125 56.4468 9.54297 56.5796 9.19922C56.7124 8.85286 56.7788 8.45312 56.7788 8C56.7788 7.55208 56.7137 7.16016 56.5835 6.82422C56.4533 6.48568 56.2606 6.22266 56.0054 6.03516C55.7502 5.84505 55.4351 5.75 55.0601 5.75C54.6694 5.75 54.3439 5.85026 54.0835 6.05078C53.8257 6.2487 53.6317 6.51823 53.5015 6.85937C53.3739 7.19792 53.3101 7.57812 53.3101 8C53.3101 8.42708 53.3752 8.8151 53.5054 9.16406C53.6382 9.51042 53.8335 9.78646 54.0913 9.99219C54.3517 10.1953 54.6746 10.2969 55.0601 10.2969ZM62.0171 11.125C61.439 11.125 60.9403 10.9974 60.521 10.7422C60.1043 10.4844 59.7827 10.125 59.5562 9.66406C59.3322 9.20052 59.2202 8.66146 59.2202 8.04688C59.2202 7.43229 59.3322 6.89062 59.5562 6.42187C59.7827 5.95052 60.0978 5.58333 60.5015 5.32031C60.9077 5.05469 61.3817 4.92188 61.9233 4.92188C62.2358 4.92188 62.5444 4.97396 62.8491 5.07812C63.1538 5.18229 63.4312 5.35156 63.6812 5.58594C63.9312 5.81771 64.1304 6.125 64.2788 6.50781C64.4272 6.89062 64.5015 7.36198 64.5015 7.92187V8.3125H59.8765V7.51562H63.564C63.564 7.17708 63.4963 6.875 63.3608 6.60937C63.228 6.34375 63.0379 6.13411 62.7905 5.98047C62.5457 5.82682 62.2567 5.75 61.9233 5.75C61.5562 5.75 61.2384 5.84115 60.9702 6.02344C60.7046 6.20312 60.5002 6.4375 60.3569 6.72656C60.2137 7.01562 60.1421 7.32552 60.1421 7.65625V8.1875C60.1421 8.64063 60.2202 9.02474 60.3765 9.33984C60.5353 9.65234 60.7554 9.89062 61.0366 10.0547C61.3179 10.2161 61.6447 10.2969 62.0171 10.2969C62.2593 10.2969 62.478 10.263 62.6733 10.1953C62.8713 10.125 63.0418 10.0208 63.1851 9.88281C63.3283 9.74219 63.439 9.56771 63.5171 9.35937L64.4077 9.60938C64.314 9.91146 64.1564 10.1771 63.9351 10.4062C63.7137 10.6328 63.4403 10.8099 63.1147 10.9375C62.7892 11.0625 62.4233 11.125 62.0171 11.125ZM68.3413 11.125C67.7996 11.125 67.3244 10.9961 66.9155 10.7383C66.5093 10.4805 66.1916 10.1198 65.9624 9.65625C65.7358 9.19271 65.6226 8.65104 65.6226 8.03125C65.6226 7.40625 65.7358 6.86068 65.9624 6.39453C66.1916 5.92839 66.5093 5.56641 66.9155 5.30859C67.3244 5.05078 67.7996 4.92188 68.3413 4.92188C68.883 4.92188 69.3569 5.05078 69.7632 5.30859C70.172 5.56641 70.4897 5.92839 70.7163 6.39453C70.9455 6.86068 71.0601 7.40625 71.0601 8.03125C71.0601 8.65104 70.9455 9.19271 70.7163 9.65625C70.4897 10.1198 70.172 10.4805 69.7632 10.7383C69.3569 10.9961 68.883 11.125 68.3413 11.125ZM68.3413 10.2969C68.7528 10.2969 69.0913 10.1914 69.3569 9.98047C69.6226 9.76953 69.8192 9.49219 69.9468 9.14844C70.0744 8.80469 70.1382 8.43229 70.1382 8.03125C70.1382 7.63021 70.0744 7.25651 69.9468 6.91016C69.8192 6.5638 69.6226 6.28385 69.3569 6.07031C69.0913 5.85677 68.7528 5.75 68.3413 5.75C67.9299 5.75 67.5913 5.85677 67.3257 6.07031C67.0601 6.28385 66.8634 6.5638 66.7358 6.91016C66.6082 7.25651 66.5444 7.63021 66.5444 8.03125C66.5444 8.43229 66.6082 8.80469 66.7358 9.14844C66.8634 9.49219 67.0601 9.76953 67.3257 9.98047C67.5913 10.1914 67.9299 10.2969 68.3413 10.2969Z" fill="#E2E8F0"/>
</svg>
