<svg width="40" height="40" viewBox="0 0 40 40" fill="none" xmlns="http://www.w3.org/2000/svg">
<path d="M23.9591 24.7994C20.3246 25.5294 18.7498 25.625 15.741 27.0919L13.4582 29.45C13.2142 29.694 12.8188 29.694 12.5748 29.45L11.2498 28.125C11.0059 27.881 11.0059 27.4855 11.2498 27.2416L13.5327 24.8834C14.9998 21.875 15.2819 20.4708 16.0092 16.849M28.1445 22.3805C24.9735 25.5518 20.2278 25.9473 17.5447 23.2639C14.8615 20.5805 15.257 15.8345 18.428 12.6633C21.599 9.49207 26.3446 9.09657 29.0279 11.7799C31.711 14.4632 31.3155 19.2092 28.1445 22.3805Z" stroke="#006FFF" stroke-width="1.5" stroke-linecap="round" stroke-linejoin="round"/>
<path d="M25.1916 15.6055L25.1827 15.6143M21.4327 19.3757L21.4238 19.3846M25.1827 19.3757L25.1738 19.3846M21.4416 15.6158L21.4327 15.6246" stroke="#006FFF" stroke-width="1.5" stroke-linecap="round" stroke-linejoin="round"/>
<path d="M25.4168 35.8131C28.5207 35.8131 30.0727 35.8131 31.3153 35.3608C33.3985 34.6026 35.0397 32.9615 35.7978 30.8783C36.2502 29.6356 36.2502 28.0836 36.2502 24.9798M15.4168 35.8131C12.313 35.8131 10.761 35.8131 9.51835 35.3608C7.4351 34.6026 5.79405 32.9615 5.0358 30.8783C4.5835 29.6356 4.5835 28.0836 4.5835 24.9798M15.4168 4.14648C12.313 4.14648 10.761 4.14648 9.51835 4.59878C7.4351 5.35702 5.79405 6.99808 5.0358 9.08133C4.5835 10.324 4.5835 11.876 4.5835 14.9798M25.4168 4.14648C28.5207 4.14648 30.0727 4.14648 31.3153 4.59878C33.3985 5.35702 35.0397 6.99808 35.7978 9.08133C36.2502 10.324 36.2502 11.876 36.2502 14.9798" stroke="#006FFF" stroke-width="1.5" stroke-linecap="round" stroke-linejoin="round"/>
</svg>
