<svg width="40" height="40" viewBox="0 0 40 40" fill="none" xmlns="http://www.w3.org/2000/svg">
<path d="M5.8335 30C5.8335 27.643 5.8335 26.4645 6.56573 25.7322C7.29796 25 8.47648 25 10.8335 25H11.6668C13.2382 25 14.0238 25 14.512 25.4882C15.0002 25.9763 15.0002 26.762 15.0002 28.3333V36.6667H5.8335V30Z" stroke="#006FFF" stroke-width="1.5" stroke-linecap="round" stroke-linejoin="round"/>
<path d="M25 31.6673C25 30.096 25 29.3103 25.4882 28.8222C25.9763 28.334 26.762 28.334 28.3333 28.334H29.1667C31.5237 28.334 32.7022 28.334 33.4345 29.0662C34.1667 29.7985 34.1667 30.977 34.1667 33.334V36.6673H25V31.6673Z" stroke="#006FFF" stroke-width="1.5" stroke-linecap="round" stroke-linejoin="round"/>
<path d="M3.3335 36.666H36.6668" stroke="#006FFF" stroke-width="1.5" stroke-linecap="round" stroke-linejoin="round"/>
<path d="M15 26.666C15 24.309 15 23.1305 15.7322 22.3982C16.4645 21.666 17.643 21.666 20 21.666C22.357 21.666 23.5355 21.666 24.2678 22.3982C25 23.1305 25 24.309 25 26.666V36.666H15V26.666Z" stroke="#006FFF" stroke-width="1.5" stroke-linecap="round" stroke-linejoin="round"/>
<path d="M21.152 4.29677L22.3252 6.66257C22.4852 6.99191 22.9117 7.30779 23.2717 7.36827L25.3982 7.72449C26.758 7.95301 27.078 8.94772 26.098 9.92899L24.4448 11.5958C24.165 11.8781 24.0117 12.4225 24.0983 12.8123L24.5715 14.8757C24.9448 16.5089 24.085 17.1407 22.6518 16.2871L20.6587 15.0975C20.2987 14.8824 19.7055 14.8824 19.3388 15.0975L17.3457 16.2871C15.9192 17.1407 15.0526 16.5021 15.4259 14.8757L15.8992 12.8123C15.9858 12.4225 15.8325 11.8781 15.5525 11.5958L13.8994 9.92899C12.9262 8.94772 13.2395 7.95301 14.5993 7.72449L16.7257 7.36827C17.079 7.30779 17.5057 6.99191 17.6657 6.66257L18.8388 4.29677C19.4788 3.01306 20.5187 3.01306 21.152 4.29677Z" stroke="#006FFF" stroke-width="1.5" stroke-linecap="round" stroke-linejoin="round"/>
</svg>
