<svg width="31" height="31" viewBox="0 0 31 31" fill="none" xmlns="http://www.w3.org/2000/svg">
<path d="M17.0769 19.4941C12.4741 20.4186 10.4797 20.5397 6.66931 22.3974L3.77834 25.3838C3.46943 25.6928 2.96859 25.6928 2.65968 25.3838L0.981695 23.7057C0.6728 23.3967 0.6728 22.8959 0.981695 22.587L3.87268 19.6005C5.73065 15.7906 6.0879 14.0123 7.00902 9.42564M22.3774 16.4308C18.3616 20.4469 12.3515 20.9478 8.95354 17.5495C5.55557 14.1513 6.0564 8.14086 10.0723 4.12478C14.0881 0.108708 20.098 -0.39216 23.4961 3.00605C26.894 6.40427 26.3932 12.4147 22.3774 16.4308Z" stroke="#006FFF" stroke-width="1.5" stroke-linecap="round" stroke-linejoin="round"/>
<path d="M18.6377 7.84961L18.6265 7.8608M13.8775 12.6243L13.8662 12.6355M18.6265 12.6243L18.6153 12.6355M13.8887 7.8627L13.8775 7.87389" stroke="#006FFF" stroke-width="1.5" stroke-linecap="round" stroke-linejoin="round"/>
<circle cx="25.75" cy="25.918" r="4.25" stroke="#006FFF" stroke-width="1.5"/>
</svg>
