<svg width="32" height="32" viewBox="0 0 32 32" fill="none" xmlns="http://www.w3.org/2000/svg">
<path d="M20.6666 4.33337V9.00004M11.3333 4.33337V9.00004" stroke="#00EB7E" stroke-width="2.5" stroke-linecap="round" stroke-linejoin="round"/>
<path d="M17.1667 6.66663H14.8333C10.4336 6.66663 8.23367 6.66663 6.86683 8.03346C5.5 9.4003 5.5 11.6002 5.5 16V18.3333C5.5 22.733 5.5 24.933 6.86683 26.2998C8.23367 27.6666 10.4336 27.6666 14.8333 27.6666H17.1667C21.5664 27.6666 23.7664 27.6666 25.1331 26.2998C26.5 24.933 26.5 22.733 26.5 18.3333V16C26.5 11.6002 26.5 9.4003 25.1331 8.03346C23.7664 6.66663 21.5664 6.66663 17.1667 6.66663Z" stroke="#00EB7E" stroke-width="2.5" stroke-linecap="round" stroke-linejoin="round"/>
<path d="M5.5 13.6666H26.5" stroke="#00EB7E" stroke-width="2.5" stroke-linecap="round" stroke-linejoin="round"/>
<path d="M10 18H22" stroke="#00EB7E" stroke-width="2.5" stroke-linecap="round" stroke-linejoin="round"/>
</svg>
