<svg width="16" height="16" viewBox="0 0 16 16" fill="none" xmlns="http://www.w3.org/2000/svg">
<path d="M5.75217 8.44907H5.4462C4.45705 8.44907 3.96247 8.44907 3.75165 8.12293C3.54084 7.79687 3.74171 7.34253 4.14344 6.43389L5.3512 3.70215C5.71646 2.876 5.89909 2.46292 6.25339 2.23146C6.60769 2 7.05735 2 7.95675 2H9.34968C10.4422 2 10.9885 2 11.1945 2.3569C11.4005 2.7138 11.1295 3.19059 10.5875 4.14415L9.87288 5.40125C9.60341 5.8753 9.46868 6.11233 9.47055 6.30635C9.47301 6.5585 9.60708 6.7908 9.82368 6.918C9.99035 7.01593 10.2619 7.01593 10.805 7.01593C11.4916 7.01593 11.8349 7.01593 12.0137 7.1348C12.246 7.2892 12.3676 7.56547 12.325 7.84213C12.2922 8.05507 12.0613 8.3104 11.5994 8.82113L7.90935 12.9015C7.18455 13.703 6.82215 14.1037 6.57879 13.9769C6.33543 13.8501 6.4523 13.3215 6.68601 12.2641L7.14388 10.1931C7.32181 9.388 7.41081 8.98547 7.19681 8.71727C6.98281 8.44907 6.57259 8.44907 5.75217 8.44907Z" fill="url(#paint0_linear_2107_14188)"/>
<defs>
<linearGradient id="paint0_linear_2107_14188" x1="8.00009" y1="2" x2="8.00009" y2="14" gradientUnits="userSpaceOnUse">
<stop stop-color="#FFBA00"/>
<stop offset="1" stop-color="#FF6B00"/>
</linearGradient>
</defs>
</svg>
