<svg width="32" height="32" viewBox="0 0 32 32" fill="none" xmlns="http://www.w3.org/2000/svg">
<path d="M16 21C14.3264 21 12.8697 22.265 12.1177 24.1312C11.7585 25.0225 12.2739 26 12.9588 26H19.0412C19.7261 26 20.2415 25.0225 19.8823 24.1312C19.1303 22.265 17.6736 21 16 21Z" stroke="#B7B7B7" stroke-width="2.5" stroke-linecap="round"/>
<path d="M22.5 9H23.7022C24.9031 9 25.5035 9 25.8168 9.37736C26.13 9.75472 25.9998 10.3211 25.7393 11.4539L25.3485 13.1531C24.7609 15.7086 22.6109 17.6088 20 18" stroke="#B7B7B7" stroke-linecap="round" stroke-linejoin="round"/>
<path d="M9.5 9H8.29779C7.09692 9 6.49649 9 6.18324 9.37736C5.86999 9.75472 6.00024 10.3211 6.26075 11.4539L6.65148 13.1531C7.23914 15.7086 9.38912 17.6088 12 18" stroke="#B7B7B7" stroke-linecap="round" stroke-linejoin="round"/>
<path d="M16 21C19.0208 21 21.565 16.3379 22.3297 9.99089C22.5412 8.23558 22.647 7.35793 22.0868 6.67896C21.5267 6 20.6223 6 18.8134 6H13.1866C11.3778 6 10.4733 6 9.91317 6.67896C9.35301 7.35793 9.45875 8.23558 9.67025 9.99089C10.435 16.3379 12.9792 21 16 21Z" stroke="#B7B7B7" stroke-width="2.5" stroke-linecap="round"/>
</svg>
